<?xml version="1.0" encoding="UTF-8"?><svg id="_圖層_2" xmlns="http://www.w3.org/2000/svg" viewBox="0 0 245.01 146.3"><defs><style>.cls-1{fill:#bc1b69;}.cls-2{fill:#fff;}</style></defs><g id="_按鈕_圖片"><polygon class="cls-1" points="234.76 36.71 234.76 17.6 238.94 17.6 238.94 9.8 228.58 9.8 228.58 11.64 204.67 11.64 204.67 7.24 198.55 7.24 198.55 11.64 180.61 11.64 180.61 7.96 174.87 7.96 174.87 11.64 150.63 11.64 150.63 7.24 146.56 7.24 146.56 1.5 109.18 1.5 109.18 2.24 109.18 67.91 217.27 67.91 217.27 52.81 243.51 52.81 243.51 36.71 234.76 36.71"/><path class="cls-1" d="M218.77,69.41h-111.09V0h40.38v5.74h4.07v4.4h21.24v-3.68h8.74v3.68h14.94v-4.4h9.13v4.4h20.9v-1.84h13.36v10.8h-4.18v16.11h8.75v19.1h-26.24v15.1ZM110.68,66.41h105.09v-15.1h26.24v-13.1h-8.75v-22.11h4.18v-4.8h-7.36v1.84h-26.9v-4.4h-3.13v4.4h-20.94v-3.68h-2.74v3.68h-27.24v-4.4h-4.07V3h-34.38v63.41Z"/><path class="cls-1" d="M110.68,69.41H4.05v-15.38H.59V8.8h12.92v2.67h28.98v-2.67h10.35v2.67h20.62v-5.91h11.13v5.57h26.08v58.27ZM7.05,66.41h100.63V14.14h-26.08v-5.57h-5.13v5.91h-26.62v-2.67h-4.35v2.67H10.51v-2.67H3.59v39.23h3.45v15.38Z"/><path class="cls-1" d="M172.64,95.22h3.32l4.55,14.16h-2.96l-.99-3.63h-4.58l-.99,3.63h-2.87l4.53-14.16ZM172.59,103.55h3.36l-.42-1.55c-.44-1.47-.82-3.09-1.22-4.62h-.1c-.36,1.55-.78,3.15-1.2,4.62l-.42,1.55Z"/><path class="cls-1" d="M180.74,107.71l1.3-1.8c.8.78,1.8,1.43,3.12,1.43,1.47,0,2.5-.86,2.5-2.41s-.96-2.39-2.39-2.39c-.84,0-1.3.21-2.12.75l-1.28-.82.38-6.88h7.56v2.35h-5.14l-.27,3c.57-.25,1.05-.38,1.7-.38,2.37,0,4.36,1.34,4.36,4.28s-2.33,4.79-4.95,4.79c-2.23,0-3.72-.88-4.78-1.93Z"/><path class="cls-1" d="M53.32,33.03h3.32l4.55,14.16h-2.96l-.99-3.63h-4.58l-.99,3.63h-2.87l4.53-14.16ZM53.26,41.36h3.36l-.42-1.55c-.44-1.47-.82-3.09-1.22-4.62h-.1c-.36,1.55-.78,3.15-1.2,4.62l-.42,1.55Z"/><path class="cls-1" d="M61.74,45.57c3.69-3.51,6.11-5.92,6.11-7.97,0-1.39-.76-2.24-2.12-2.24-1.03,0-1.87.69-2.6,1.47l-1.53-1.53c1.3-1.39,2.56-2.16,4.49-2.16,2.68,0,4.45,1.7,4.45,4.3,0,2.41-2.22,4.89-4.74,7.53.71-.08,1.64-.15,2.31-.15h3.1v2.37h-9.48v-1.62Z"/><path class="cls-2" d="M153.6,33.03h3.32l4.55,14.16h-2.96l-.99-3.63h-4.58l-.99,3.63h-2.87l4.53-14.16ZM153.54,41.36h3.36l-.42-1.55c-.44-1.47-.82-3.09-1.22-4.62h-.1c-.36,1.55-.78,3.15-1.2,4.62l-.42,1.55Z"/><path class="cls-2" d="M161.69,45.49l1.32-1.78c.84.82,1.87,1.45,3.15,1.45,1.43,0,2.41-.69,2.41-1.87,0-1.34-.82-2.16-3.9-2.16v-2.03c2.6,0,3.44-.86,3.44-2.04,0-1.07-.69-1.7-1.89-1.7-1.01,0-1.83.48-2.67,1.26l-1.43-1.72c1.22-1.07,2.58-1.76,4.24-1.76,2.73,0,4.58,1.34,4.58,3.71,0,1.49-.88,2.52-2.35,3.11v.1c1.59.42,2.81,1.59,2.81,3.4,0,2.52-2.27,3.99-4.97,3.99-2.24,0-3.74-.84-4.74-1.97Z"/><path class="cls-1" d="M206.73,146.3h-12.25v-7.24h-45.58v7.02h-9.35v-8.35h1v-71.33l78.33.58v16.26h22.95v16.15h-5.52v26.47h5.68v19.83h-16.15v-5.52h-19.12v6.13ZM197.48,143.3h6.25v-6.13h25.12v5.52h10.15v-13.83h-5.68v-32.47h5.52v-10.15h-22.95v-16.28l-72.33-.54v71.3h-1v2.35h3.35v-7.02h51.58v7.24Z"/><path class="cls-1" d="M82.26,145.63h-8.94v-3.34h-23.15v3.34h-20.53v-4.38H13.4v4.38H0v-37.04h3.27v-10.54H0v-14.11h3.88l.19-17.53h77.09v71.46h1.11v7.75ZM76.32,142.63h2.94v-1.75h-1.11v-71.46H7.03l-.19,17.53h-3.85v8.11h3.27v16.54h-3.27v31.04h7.4v-4.38h22.24v4.38h14.53v-3.34h29.15v3.34Z"/><polyline class="cls-1" points="80.76 140.52 100.75 140.52 100.75 138.89 119.91 138.89 119.91 140.52 141.05 140.52"/><polygon class="cls-1" points="141.05 142.02 118.41 142.02 118.41 140.39 102.25 140.39 102.25 142.02 80.76 142.02 80.76 139.02 99.25 139.02 99.25 137.39 121.41 137.39 121.41 139.02 141.05 139.02 141.05 142.02"/><path class="cls-1" d="M36.87,95.22h3.32l4.55,14.16h-2.96l-.99-3.63h-4.59l-.99,3.63h-2.87l4.53-14.16ZM36.81,103.55h3.36l-.42-1.55c-.44-1.47-.82-3.09-1.22-4.62h-.1c-.36,1.55-.78,3.15-1.2,4.62l-.42,1.55Z"/><path class="cls-1" d="M46.03,107.1h3.04v-8.58h-2.56v-1.74c1.41-.27,2.39-.63,3.29-1.18h2.08v11.5h2.66v2.27h-8.5v-2.27Z"/></g></svg>