<?xml version="1.0" encoding="UTF-8"?><svg id="_圖層_2" xmlns="http://www.w3.org/2000/svg" viewBox="0 0 67.94 60.2"><defs><style>.cls-1,.cls-2{fill:#003e2c;}.cls-2{font-family:MicrosoftJhengHeiBold, 'Microsoft JhengHei';font-size:18.84px;glyph-orientation-vertical:0deg;text-orientation:upright;writing-mode:tb;}</style></defs><g id="_按鈕_圖片"><polygon class="cls-1" points="5.79 32.37 39.42 19.91 26.95 53.53 21.41 37.92 5.79 32.37"/><path class="cls-1" d="M51.14,34.62c0,14.1-11.47,25.57-25.57,25.57S0,48.72,0,34.62C0,20.52,11.47,9.05,25.57,9.05c14.1,0,25.57,11.47,25.57,25.57ZM49.19,34.62c0-13.02-10.59-23.62-23.62-23.62-13.02,0-23.62,10.6-23.62,23.62,0,13.02,10.6,23.62,23.62,23.62,13.02,0,23.62-10.6,23.62-23.62Z"/><text class="cls-2" transform="translate(58.52 18.83) rotate(-180)"><tspan x="0" y="0">N</tspan></text></g></svg>