<?xml version="1.0" encoding="UTF-8"?><svg id="_圖層_2" xmlns="http://www.w3.org/2000/svg" viewBox="0 0 58.1 52.84"><defs><style>.cls-1{fill:#e4004d;}.cls-2{fill:#532223;}</style></defs><g id="_按鈕_圖片"><rect class="cls-2" x="29.34" y="5.01" width=".54" height="43.34" transform="translate(-10.19 28.75) rotate(-45)"/><rect class="cls-2" x="7.94" y="26.41" width="43.34" height=".54" transform="translate(-10.19 28.75) rotate(-45)"/><polygon class="cls-1" points="29.39 19.14 12.18 9.25 22.07 26.46 23.84 20.91 29.39 19.14"/><path class="cls-2" d="M3.15,6.49v-2.94H.47l-.1-.3h2.78V.33l1.66.17c-.02.15-.1.26-.39.3v9c0,.12-.53.38-1.01.38h-.25v-3.21c-.53.45-1.24,1.01-2.13,1.65-.04.15-.15.27-.28.32l-.73-1.59c.55-.11,1.82-.46,3.15-.86ZM10.34,3.02c-.09.12-.26.15-.47.07-.65.58-1.7,1.29-2.9,1.86v3.32c0,.25.1.34.45.34h.79c.32,0,.57-.01.71-.01.12-.01.21-.04.29-.15.13-.21.32-.86.51-1.54h.11l.05,1.6c.35.16.45.31.45.54,0,.56-.51.78-2.23.78h-.99c-1.09,0-1.42-.25-1.42-1.21V.34l1.66.19c-.01.14-.11.26-.38.3v3.71c.74-.85,1.4-1.85,1.8-2.54l1.57,1.01Z"/><path class="cls-2" d="M53.6,43.02v1.16h2.25l.75-.95s.86.63,1.39,1.08c-.03.12-.16.17-.33.17h-4.07v1.44h2.21l.6-.67,1.26.97c-.08.08-.22.17-.45.22v4.92c0,.85-.21,1.35-1.7,1.48-.04-.4-.1-.7-.27-.88-.18-.2-.42-.35-.99-.42v-.16s1.14.09,1.42.09c.19,0,.24-.09.24-.23v-5h-5.8v6.13c0,.15-.56.46-1.1.46h-.21v-7.47l1.41.57h2.08v-1.44h-4.27l-.1-.3h4.37v-1.6l1.69.14c-.02.15-.1.26-.39.3ZM55.62,48.38c-.02.12-.13.17-.28.17h-1.8v1.32h.5l.59-.73s.67.5,1.08.86c-.03.12-.14.17-.29.17h-1.87v2.04c-.01.05-.38.27-1.02.27h-.22v-2.31h-1.86l-.09-.3h1.95v-1.32h-1.62l-.09-.31h2.59c.17-.56.37-1.34.48-1.9l1.45.41c-.04.12-.17.21-.41.2-.3.37-.77.88-1.21,1.29h.62l.53-.63s.6.44.98.76ZM51.46,47.99c0-.52-.26-1.13-.52-1.51l.1-.05c2.48.54,1.36,2.38.42,1.57Z"/><path class="cls-2" d="M49.37,2.32l1.39.53h1.48v-1.02h-4.08l-.09-.32h4.17V0l1.72.16c-.03.15-.11.27-.4.32v1.04h2.12l.76-.99s.86.66,1.38,1.13c-.03.12-.15.17-.32.17h-3.96v1.02h1.48l.61-.66,1.27.97c-.08.09-.22.17-.44.22v3c-.01.09-.65.37-1.11.37h-.23v-.51h-1.38c.96,1.17,2.73,2,4.32,2.34l-.02.12c-.49.13-.88.54-1.04,1.18-1.59-.71-2.75-1.89-3.48-3.54v3.5c0,.12-.54.39-1.05.39h-.27v-2.67c-1.11,1.03-2.6,1.84-4.35,2.39l-.08-.14c1.65-.86,3.03-2.24,3.82-3.56h-.96v.26c0,.13-.58.41-1.11.41h-.2V2.32ZM52.25,3.17h-1.57v1.21h1.57v-1.21ZM52.25,4.7h-1.57v1.22h1.57v-1.22ZM55.16,4.38v-1.21h-1.59v1.21h1.59ZM55.16,5.92v-1.22h-1.59v1.22h1.59Z"/><path class="cls-2" d="M10.34,43.73c-.03.12-.15.17-.32.17h-3.15v1.93h1.35l.63-.73,1.17.93c-.08.1-.2.17-.45.23v6.02c0,.07-.44.34-1.08.34h-.23v-.93H2.06v.64c0,.09-.38.33-1.02.33h-.22v-7.35l1.36.52h1.21v-1.93H.14l-.09-.3h8.14l.75-.95s.87.64,1.39,1.08ZM4.6,46.14c-.01,1.45-.27,3.1-2.43,4.15l-.1-.11c1.17-1.15,1.31-2.61,1.32-4.04h-1.33v5.25h6.21v-1.84c-.24.05-.56.07-.97.07h-.61c-.87,0-1-.25-1-1v-2.47h-1.09ZM5.69,43.9h-1.09v1.93h1.09v-1.93ZM8.27,46.14h-1.39v2.14c0,.16.03.21.21.21h.74c.07,0,.19-.01.25-.02l.2-.03v-2.29Z"/></g></svg>