<?xml version="1.0" encoding="UTF-8"?><svg id="_圖層_2" xmlns="http://www.w3.org/2000/svg" viewBox="0 0 67.94 60.19"><defs><style>.cls-1,.cls-2{fill:#003e2c;}.cls-2{font-family:MicrosoftJhengHeiBold, 'Microsoft JhengHei';font-size:18.84px;glyph-orientation-vertical:0deg;text-orientation:upright;writing-mode:tb;}</style></defs><g id="_按鈕_圖片"><polygon class="cls-1" points="62.15 27.82 28.52 40.29 40.99 6.66 46.54 22.28 62.15 27.82"/><path class="cls-1" d="M16.8,25.57C16.8,11.47,28.27,0,42.37,0c14.1,0,25.57,11.47,25.57,25.57,0,14.1-11.47,25.57-25.57,25.57-14.1,0-25.57-11.47-25.57-25.57ZM18.75,25.57c0,13.02,10.59,23.62,23.62,23.62,13.02,0,23.62-10.6,23.62-23.62,0-13.02-10.6-23.62-23.62-23.62-13.02,0-23.62,10.6-23.62,23.62Z"/><text class="cls-2" transform="translate(9.42 41.36)"><tspan x="0" y="0">N</tspan></text></g></svg>