<?xml version="1.0" encoding="UTF-8"?><svg id="_圖層_2" xmlns="http://www.w3.org/2000/svg" viewBox="0 0 65.53 60.74"><defs><style>.cls-1,.cls-2{fill:#003e2c;}.cls-2{font-family:MicrosoftJhengHeiBold, 'Microsoft JhengHei';font-size:18.84px;glyph-orientation-vertical:0deg;text-orientation:upright;writing-mode:tb;}</style></defs><g id="_按鈕_圖片"><polygon class="cls-1" points="37.71 54.95 25.24 21.32 58.87 33.79 43.25 39.33 37.71 54.95"/><path class="cls-1" d="M39.96,9.6c14.1,0,25.57,11.47,25.57,25.57s-11.47,25.57-25.57,25.57c-14.1,0-25.57-11.47-25.57-25.57,0-14.1,11.47-25.57,25.57-25.57ZM39.96,11.55c-13.02,0-23.62,10.59-23.62,23.62,0,13.02,10.6,23.62,23.62,23.62,13.02,0,23.62-10.6,23.62-23.62,0-13.02-10.6-23.62-23.62-23.62Z"/><text class="cls-2" transform="translate(9.42 18.83) rotate(-180)"><tspan x="0" y="0">N</tspan></text></g></svg>