<?xml version="1.0" encoding="UTF-8"?><svg id="_圖層_2" xmlns="http://www.w3.org/2000/svg" viewBox="0 0 30 30"><defs><style>.cls-1{fill:none;}.cls-2{fill:#fff;}</style></defs><g id="_按鈕_圖片"><path class="cls-2" d="M19.54,19.13v-3.75h-3.27v-1.4c0-.95.18-1.65.54-2.08.36-.43.88-.65,1.56-.65.59,0,1.18.1,1.78.29l.95-3.4c-.4-.17-.9-.32-1.49-.44-.59-.13-1.23-.19-1.9-.19-1.5,0-2.71.29-3.62.87-.91.58-1.57,1.37-1.97,2.37-.4.99-.6,2.11-.6,3.33v1.33l-2.6.16v3.56h2.6v9.38h4.76v-9.38h3.27Z"/><path class="cls-2" d="M19.42,29.63h-8.84C4.95,29.63.37,25.05.37,19.42v-8.84C.37,4.95,4.95.37,10.58.37h8.84c5.63,0,10.21,4.58,10.21,10.21v8.84c0,5.63-4.58,10.21-10.21,10.21ZM10.58,2.61c-4.39,0-7.96,3.57-7.96,7.96v8.84c0,4.39,3.57,7.96,7.96,7.96h8.84c4.39,0,7.96-3.57,7.96-7.96v-8.84c0-4.39-3.57-7.96-7.96-7.96h-8.84Z"/><rect class="cls-1" width="30" height="30"/></g></svg>