<?xml version="1.0" encoding="UTF-8"?><svg id="_圖層_2" xmlns="http://www.w3.org/2000/svg" viewBox="0 0 36 36"><defs><style>.cls-1{fill:#fff;}</style></defs><g id="_按鈕_圖片"><path class="cls-1" d="M23.89,0h-11.78C5.45,0,0,5.45,0,12.11v11.78c0,6.66,5.45,12.11,12.11,12.11h1.75v-12.5h-3.47v-4.74l3.47-.21v-1.78c0-1.63.27-3.12.8-4.44.54-1.32,1.41-2.37,2.62-3.15,1.21-.78,2.82-1.16,4.82-1.16.9,0,1.75.08,2.54.25.79.17,1.45.37,1.99.59l-1.27,4.53c-.79-.25-1.58-.38-2.37-.38-.9,0-1.59.29-2.07.87-.48.58-.72,1.5-.72,2.77v1.86h4.36v4.99h-4.36v12.5h3.69c6.66,0,12.11-5.45,12.11-12.11v-11.78c0-6.66-5.45-12.11-12.11-12.11Z"/></g></svg>