<?xml version="1.0" encoding="UTF-8"?><svg id="_圖層_2" xmlns="http://www.w3.org/2000/svg" viewBox="0 0 515.1 141.06"><defs><style>.cls-1{fill:#fff;}</style></defs><g id="_文字"><path class="cls-1" d="M8.4,39.78l7.57,2.9h8.05v-5.56H1.83l-.47-1.72h22.66v-8.23l9.35.89c-.18.83-.59,1.48-2.19,1.72v5.62h11.54l4.14-5.38s4.68,3.61,7.52,6.15c-.18.65-.83.95-1.72.95h-21.48v5.56h8.05l3.31-3.61,6.92,5.27c-.41.47-1.18.95-2.37,1.18v16.27c-.06.47-3.55,2.01-6.04,2.01h-1.24v-2.78h-7.49c5.23,6.33,14.83,10.86,23.47,12.72l-.12.65c-2.66.71-4.79,2.96-5.62,6.39-8.63-3.84-14.96-10.25-18.88-19.23v18.99c0,.65-2.96,2.13-5.68,2.13h-1.48v-14.51c-6.01,5.59-14.14,9.98-23.61,12.97l-.41-.77c8.95-4.69,16.45-12.17,20.73-19.35h-5.22v1.42c0,.71-3.14,2.25-6.04,2.25h-1.07v-24.91ZM24.03,44.39h-8.52v6.57h8.52v-6.57ZM24.03,52.68h-8.52v6.63h8.52v-6.63ZM39.83,50.96v-6.57h-8.64v6.57h8.64ZM39.83,59.31v-6.63h-8.64v6.63h8.64Z"/><path class="cls-1" d="M65.86,31.02l7.16,2.78h4.56l3.14-3.49,6.39,5.03c-.41.47-1.24.95-2.43,1.24v33.32c-.06.47-3.2,1.83-5.5,1.83h-1.07v-4.85h-5.8v6.04c0,.53-2.07,2.07-5.33,2.07h-1.12V31.02ZM72.31,49.19h5.8v-13.73h-5.8v13.73ZM72.31,65.22h5.8v-14.32h-5.8v14.32ZM96.59,34.66c5.45-2.2,10.98-5.19,14-7.55l7.34,6.21c-.65.59-1.83.71-3.73.12-4.45,1.38-11.09,2.64-17.63,3.23v11.92h12.9l3.67-4.85s4.08,3.31,6.57,5.56c-.18.65-.83.95-1.66.95h-6.51v30.71c-.06.3-2.07,1.6-5.56,1.6h-1.24v-32.31h-8.17v1.83c0,10.36-1.12,22.31-15.03,29.77l-.59-.71c8.05-8.23,8.99-18.58,8.99-29.17v-19.41l6.65,2.11Z"/><path class="cls-1" d="M12.05,100.09h3.23v.51l-1.18.13v5.15c0,2.86-1.28,4.12-3.47,4.12-2.06,0-3.51-1.05-3.51-3.77v-1.64l-.02-3.86-1.14-.12v-.51h4.12v.51l-1.29.13c-.02,1.21-.02,2.53-.02,3.85v1.3c0,2.33.85,3.15,2.3,3.15,1.55,0,2.38-.91,2.38-3.28v-5.02l-1.39-.13v-.51Z"/><path class="cls-1" d="M17.1,100.09h3.74c2.64,0,3.78,1.1,3.78,2.81s-1.09,2.95-4.01,2.95h-.62c0,1.04,0,2.16.02,3.25l1.37.13v.52h-4.29v-.52l1.23-.12c.03-1.24.03-2.59.03-3.88v-.65c0-1.28,0-2.62-.03-3.86l-1.23-.13v-.51ZM20.62,105.29c1.69,0,2.41-1,2.41-2.39s-.75-2.22-2.29-2.22h-.73c-.03,1.24-.03,2.6-.03,3.91v.7h.63Z"/><path class="cls-1" d="M31.63,105.07h3.83v.51l-.83.1c-.03.89-.05,1.81-.05,2.8v.66c-.95.58-1.91.85-3.07.85-2.84,0-4.82-1.9-4.82-5.04s1.99-5.08,4.91-5.08c1.02,0,1.95.22,2.76.69l.09,2.19h-.73l-.46-1.95c-.48-.25-.96-.35-1.5-.35-1.88,0-3.31,1.55-3.31,4.48s1.36,4.47,3.27,4.47c.48,0,.89-.07,1.3-.23v-.68c0-.93,0-1.84-.03-2.75l-1.38-.15v-.51Z"/><path class="cls-1" d="M37.22,100.09h4.14c2.22,0,3.44.91,3.44,2.46,0,1.16-.84,2.19-2.66,2.46,1.28.19,1.74.77,2.06,1.93l.67,2.17,1.15.11v.52c-.42.11-.74.15-1.26.15-1.02,0-1.51-.28-1.69-1.1l-.58-2.07c-.28-1.05-.65-1.47-1.69-1.47h-.7c0,1.32,0,2.63.03,3.85l1.24.12v.52h-4.14v-.52l1.23-.12c.03-1.24.03-2.59.03-3.88v-.65c0-1.28,0-2.62-.03-3.86l-1.23-.13v-.51ZM40.09,104.71h.98c1.47,0,2.13-.93,2.13-2.07,0-1.26-.69-1.96-2.08-1.96h-1c-.03,1.25-.03,2.59-.03,4.04Z"/><path class="cls-1" d="M52.66,109.24l1.28-.14-.8-2.48h-3.12l-.79,2.46,1.22.15v.52h-2.99v-.52l1.12-.15,3.02-9.05h.98l3.04,9.09,1.07.12v.51h-4.05v-.51ZM50.21,106.01h2.74l-1.37-4.26-1.37,4.26Z"/><path class="cls-1" d="M58.34,100.09h4.02c3,0,4.79,1.78,4.79,4.82s-1.95,4.84-4.96,4.84h-3.85v-.52l1.23-.12c.03-1.24.03-2.61.03-4.03v-.47c0-1.31,0-2.64-.03-3.88l-1.23-.13v-.51ZM62.09,109.17c2.15,0,3.32-1.6,3.32-4.25s-1.17-4.25-3.23-4.25h-.93c-.03,1.24-.03,2.61-.03,3.94v.47c0,1.43,0,2.82.03,4.09h.83Z"/><path class="cls-1" d="M75.09,100.67h-3.09c-.03,1.2-.03,2.52-.03,3.83h1.96l.24-1.3h.55v3.21h-.55l-.23-1.3h-1.97c0,1.42,0,2.8.03,4.06h3.34l.43-1.94h.73l-.12,2.52h-7.29v-.52l1.23-.12c.03-1.24.03-2.59.03-3.88v-.65c0-1.28,0-2.62-.03-3.86l-1.23-.13v-.51h7.03l.12,2.46h-.73l-.42-1.88Z"/><path class="cls-1" d="M82.79,100.09h4.18v.51l-1.27.13c-.03,1.23-.03,2.59-.03,3.96v.73c0,1.15,0,2.49.03,3.74h3.08l.48-2.14h.74l-.16,2.73h-7.06v-.52l1.23-.12c.03-1.24.03-2.58.03-3.77v-.75c0-1.28,0-2.62-.03-3.86l-1.23-.13v-.51Z"/><path class="cls-1" d="M91.87,100.09h4.14v.51l-1.23.12c-.02,1.22-.02,2.56-.02,3.86v.65c0,1.28,0,2.63.03,3.88l1.23.12v.52h-4.14v-.52l1.23-.12c.03-1.24.03-2.59.03-3.88v-.65c0-1.28,0-2.62-.03-3.86l-1.23-.13v-.51Z"/><path class="cls-1" d="M104.2,100.67h-3.1c-.03,1.2-.03,2.52-.03,3.83h1.99l.24-1.3h.55v3.3h-.55l-.25-1.39h-1.98c0,1.4,0,2.75.03,3.99l1.37.13v.52h-4.29v-.52l1.23-.12c.03-1.24.03-2.59.03-3.88v-.65c0-1.28,0-2.62-.03-3.86l-1.23-.13v-.51h7.05l.13,2.46h-.73l-.43-1.88Z"/><path class="cls-1" d="M113.36,100.67h-3.09c-.03,1.2-.03,2.52-.03,3.83h1.96l.24-1.3h.55v3.21h-.55l-.23-1.3h-1.97c0,1.42,0,2.8.03,4.06h3.34l.43-1.94h.73l-.12,2.52h-7.29v-.52l1.23-.12c.03-1.24.03-2.59.03-3.88v-.65c0-1.28,0-2.62-.03-3.86l-1.23-.13v-.51h7.03l.12,2.46h-.73l-.42-1.88Z"/><path class="cls-1" d="M478.46,40.03v28.3c0,.61-.15,1.11-.46,1.5-.31.39-.93.59-1.89.59-.61,0-1.59-.04-2.93-.13-1.35-.08-2.78-.15-4.3-.2-.34,0-.75-.03-1.12-.05,1.94,1.37,11.04,8.05,12.12,14.21,2.72-.5,4.94-1.19,6.54-2.1,2.43-1.39,4.04-3.24,4.83-5.54.78-2.3,1.17-4.98,1.17-8.02v-28.56h9.01c-2.32,10.14-5.62,16.82-5.62,16.82,12.94-8.8,17.61-16.06,19.28-20.47h-23.18c.62-.44,1.23-1.06,1.81-1.92.66-1.28.91-2.71.69-4.31-.24-1.73-1.13-3.42-2.65-5.07,13.56-5.69,19.95-16.08,19.95-16.08h-13.99c-.49,1.02-1.14,2.33-1.94,3.78-1.65,3.01-3.96,6.69-6.8,10.04-1.33-.84-2.89-1.61-4.74-2.29-3.27-1.18-7.59-1.82-12.98-1.9,0,0,8.34,6.91,11.5,12.58,1.31,2.34,2.81,4.17,4.37,5.17h-26.93l1.17,3.65h17.08Z"/><path class="cls-1" d="M414.17,70.61c-6.61.48-11.78.76-15.52.85l6.6,13.9,4.48-1.25c12.34-3.21,22.8-6.08,31.36-8.61,8.56-2.52,15.71-4.78,21.45-6.78l-.13-1.82c-8.61.67-16.9,1.32-24.91,1.94v-8.33h22.1v-3.78h-22.1v-11.22h20.87V9h-38.51v3.78h4.22v12.39h-7.57V8.73l-12.78-2.18v45.87h2.22c3.3,0,5.89-.52,7.76-1.56,1.87-1.04,2.8-1.78,2.8-2.22v-3.13h7.57v11.22h-22.3l1.04,3.78h21.26v9.37c-3.49.26-6.8.51-9.91.73ZM437.51,12.78h7.82v12.39h-7.82v-12.39ZM437.51,28.82h7.82v12.91h-7.82v-12.91ZM416.51,41.73v-12.91h7.57v12.91h-7.57Z"/><polygon class="cls-1" points="496.58 114.75 465.81 114.75 465.81 97.67 503.35 97.67 503.35 93.89 485.11 93.89 465.81 93.89 465.81 86.33 465.81 82.42 450.42 81.11 450.42 93.89 411.82 93.89 412.86 97.67 450.42 97.67 450.42 114.75 397.22 114.75 398.26 118.54 515.1 118.54 515.1 114.75 496.58 114.75"/><polygon class="cls-1" points="493.68 12.78 495.38 9 462.29 9 463.46 12.78 493.68 12.78"/><path class="cls-1" d="M182.7,87.63V14.74h-24.18v3.65h9.71v30.25h-12.78V14.74h-14.22v83.26h2.48c3.65,0,6.52-.63,8.61-1.89,2.09-1.26,3.13-2.15,3.13-2.67v-5.8h27.25ZM168.23,83.98h-12.78v-31.56h12.78v31.56Z"/><path class="cls-1" d="M237.34,47.34h-28.43v-26.26c2.88-.25,5.78-.56,8.67-.93,5.78-.74,11.28-1.65,16.5-2.74,5.22-1.09,9.78-2.24,13.69-3.46l5.75-2.35-13.7-11.6c-2.7,2.17-6.26,4.5-10.69,6.98-4.44,2.48-9.19,4.87-14.28,7.17-1.97.89-3.92,1.71-5.86,2.5l-14.68-4.65v42.77c0,7.74-.41,15.39-1.24,22.95-.83,7.56-2.65,14.84-5.48,21.84-2.83,7-7.2,13.5-13.11,19.49,0,0,13.83-5.17,22.82-16.64,2.82-3.93,5.02-8.01,6.58-12.24,2.13-5.78,3.5-11.67,4.11-17.67.61-6,.91-11.82.91-17.47v-4.04h18v71.2s14.99.2,14.99-13.93v-57.27h14.34c.12,0,.21-.03.33-.03v-3.62h-19.24Z"/><path class="cls-1" d="M376.61,91.39h5.22v-40.95h-30.22c1.25-.95,2.52-1.99,3.8-3.13,1.71-1.53,3.3-3.11,4.84-4.72l2.88-3.48h-15.57c-.1,1.38-.17,2.77-.29,4.15-.25,2.74-.51,5.12-.78,7.17h-4.22v3.78h25.75v15.39h-28.56v-19.24l-13.43-1.44v48.59h1.96c1.91,0,3.76-.28,5.54-.85,1.78-.56,3.21-1.17,4.3-1.83,1.08-.65,1.63-1.19,1.63-1.63v-1.83h7.56v31.82c0,.61-.15,1.11-.46,1.5-.31.39-.94.59-1.89.59-.61,0-1.63-.02-3.06-.06-1.44-.04-2.91-.11-4.43-.2-.34-.02-.76-.04-1.13-.06l.12.17s8.91,7.97,11.96,15.87c0,.02.01.03.02.05,2.85-.56,5.18-1.37,6.89-2.47,2.56-1.65,4.24-3.76,5.02-6.32.78-2.56,1.17-5.5,1.17-8.8v-32.08h15.39ZM339.45,87.61v-14.34h28.56v14.34h-28.56Z"/><path class="cls-1" d="M294.61,41.53c.55-.33,1.08-.71,1.55-1.19,1.31-1.35,2.04-3,2.22-4.95.17-1.96-.44-3.96-1.83-6-1.39-2.04-3.8-3.87-7.24-5.48-2.66-1.24-6.08-2.16-10.22-2.75,2.24,4.31,6.02,12.01,6.62,16.15.86,5.91,5.67,5.37,8.89,4.23Z"/><path class="cls-1" d="M284.42,70.38c.55-.33,1.08-.71,1.55-1.19,1.31-1.35,2.04-3,2.22-4.95.17-1.96-.44-3.96-1.83-6-1.39-2.04-3.8-3.87-7.24-5.48-2.66-1.24-6.08-2.16-10.22-2.75,2.24,4.31,6.02,12.01,6.62,16.15.86,5.91,5.67,5.37,8.89,4.23Z"/><path class="cls-1" d="M367.35,30.75h-45.64l-16.56-2.17v33.6c0,8.43-.24,17.21-.72,26.34-.48,9.13-1.59,18.11-3.33,26.93-1.74,8.83-4.56,17.15-8.48,24.97,0,0,7.61-3.9,14.61-15.46.34-.61.72-1.2,1.04-1.82,3.39-6.65,5.89-13.54,7.5-20.67,1.13-5.03,1.95-10,2.48-14.93.09-1.04.18-2.04.27-2.96.09-1.06.19-2.12.25-3.17.39-6.91.59-13.32.59-19.23v-27.65h66.9c.14,0,.26-.03.39-.04v-3.74h-19.3Z"/><path class="cls-1" d="M341.49,105.74h-14.55c-.25.67-.5,1.33-.77,2.02-1.7,4.22-3.65,8.41-5.87,12.58-2.22,4.17-4.67,7.91-7.37,11.21,0,0,9.35-2.46,20.45-15.03.26-.31.53-.61.78-.92.18-.21.36-.44.55-.66,1.83-2.24,3.46-4.4,4.92-6.47.62-.89,1.24-1.78,1.86-2.74Z"/><path class="cls-1" d="M364.53,102.89s7.03,11.16,7.68,24.71h12.97s-2.1-16.89-20.66-24.71Z"/><path class="cls-1" d="M296.99,57.68c-5.53,18.14-17.33,54.13-28.96,72.36h15.65c12.28-28.52,13.32-72.36,13.32-72.36h0Z"/></g></svg>