<?xml version="1.0" encoding="UTF-8"?><svg id="_圖層_2" xmlns="http://www.w3.org/2000/svg" viewBox="0 0 165.17 62.34"><defs><style>.cls-1{fill:#003e2c;stroke:#003e2c;stroke-miterlimit:10;stroke-width:.1px;}</style></defs><g id="_圖"><path class="cls-1" d="M42.83,8.35c.2-.21.35-.3.45-.26.12,0,.33-.09.61-.28.28-.19.52-.38.7-.59.18-.21.33-.35.44-.43.23-.17.42-.19.57-.06.1.1.09.23-.04.39-.14.17-.25.51-.34,1-.09.5-.19,1.32-.29,2.47-.04.36-.11.84-.22,1.45-.11.61-.18,1.08-.22,1.41-.05.5-.12.87-.22,1.13-.04.05-.1.09-.19.13s-.18.03-.27-.02c-.14-.06-.2-.18-.2-.36s.06-.51.17-.99c.09-.3.16-.58.21-.85.06-.27.1-.56.14-.85.04-.3.06-.54.08-.71.02-.18.04-.46.07-.84.03-.38.05-.65.06-.81.01-.11.02-.21.04-.31.01-.09.02-.17.03-.24,0-.07.01-.13.02-.18,0-.05,0-.09,0-.12,0-.03-.01-.05-.02-.07,0-.01-.02-.02-.03-.02-.07.03-.3.15-.67.38-.38.23-.67.36-.88.4-.17,0-.26-.1-.26-.32-.04-.1.05-.25.25-.46ZM45.59,3.83c.14.05.17.19.08.4-.2.15-.53.32-1.01.53-.48.2-.84.31-1.07.32-.09,0-.15-.06-.2-.19-.07-.17-.06-.3.06-.39.11-.09.39-.2.83-.33.38-.12.64-.22.77-.28.22-.1.4-.12.54-.06ZM50.71,9.18c.14.07.18.15.15.21-.04.07-.2.24-.5.51-.16.15-.28.33-.37.54-.14.3-.17.45-.09.46.02,0,.06,0,.09-.02.29-.06.9.09,1.81.46.3.12.82.28,1.58.46.76.19,1.19.32,1.3.39.27.07.53.15.77.22s.52.17.85.29c.33.12.59.21.8.29.69.24,1.19.33,1.51.3.27,0,.48.04.63.13.15.09.17.25.06.5-.06.17-.12.27-.18.28-.17.03-.52-.02-1.03-.12-.52-.1-.92-.22-1.2-.34-.09-.05-.24-.1-.46-.16-.22-.06-.38-.11-.46-.16-.17-.06-.53-.18-1.07-.35-.54-.17-1.06-.34-1.56-.49-.5-.16-.91-.28-1.24-.36-.1-.04-.37-.14-.81-.32-.44-.17-.75-.28-.92-.32-.12-.01-.26-.06-.4-.13-.14-.07-.25-.11-.32-.1-.07,0-.16.09-.26.25-.02.05-.11.18-.25.4-.14.22-.27.42-.39.61-.12.19-.2.33-.25.42-.37.82-.68,1.09-.94.83-.1-.09-.13-.2-.1-.33.03-.14.08-.25.14-.35.06-.1.14-.22.23-.35.09-.14.15-.23.17-.3.11-.23.31-.56.61-.97.29-.41.52-.79.68-1.14.22-.46.39-.77.51-.95.12-.17.22-.28.32-.33.22-.09.42-.07.61.04ZM50.84,4.08c.44-.45.66-.58.66-.39,0,.2-.23.55-.68,1.07-.46.51-.83.84-1.12.99-.1.06-.2.09-.31.09s-.18,0-.22-.03c-.04-.02-.12-.06-.24-.14-.09-.14-.13-.26-.14-.37s.02-.28.07-.49c.06-.22.09-.37.1-.47.06-.27.11-.45.15-.54.04-.09.11-.21.22-.37.09-.09.15-.13.19-.12.04,0,.11.07.19.19.05.05.07.14.07.26s0,.24-.03.35-.05.24-.08.38c-.04.14-.06.24-.06.31-.01.1-.02.16,0,.19,0,.03.03.04.08.04.14,0,.52-.32,1.14-.95ZM54.48,8.43c-.19.28-.33.48-.42.6-.09.12-.21.29-.36.5-.15.21-.31.39-.47.55-.16.16-.33.31-.52.46-.37.15-.6.15-.68,0-.06-.06-.1-.12-.11-.17-.01-.05-.01-.14,0-.28,0-.3.08-.82.23-1.56.15-.74.24-1.25.27-1.52.04-.41.12-.77.24-1.08.1-.14.24-.16.42-.07.18.09.24.21.17.37-.04.33-.1.76-.18,1.29-.09.53-.16.88-.22,1.07-.05.11-.08.28-.09.5s0,.34.02.35c.07.05.39-.29.96-1.03.57-.74.87-1.19.9-1.36.06-.35.2-.48.42-.39.09.05.14.1.16.16.02.06,0,.14-.03.24-.04.1-.06.19-.07.25-.04.26-.12.44-.24.54-.07.11-.21.31-.4.58ZM54.81,2.41c.06.06.09.14.09.22-.01.11-.06.21-.14.29-.08.08-.22.18-.41.31-.19.12-.29.19-.3.2-.65.4-1.16.43-1.53.11-.17-.15-.25-.34-.25-.57,0-.23.11-.68.3-1.35.07-.26.13-.43.17-.5.04-.07.11-.14.22-.2.18-.11.33-.11.44,0,.1.11.04.49-.18,1.13-.11.33-.17.55-.18.65,0,.1.03.17.1.22.12.09.42-.02.88-.32.31-.2.49-.3.55-.3.09,0,.16.03.22.09Z"/><path class="cls-1" d="M73.98,7.31s-.13.07-.24.13c-.76.42-1.26.67-1.5.75-.24.08-.68.17-1.32.25-.5.07-.94.14-1.31.19-.21.04-.47.09-.78.16-.31.07-.59.13-.84.18-.25.05-.51.1-.8.14-.29.04-.57.06-.84.05-.27,0-.52-.04-.76-.1-.07-.02-.16-.14-.26-.35-.05-.11-.05-.17,0-.17.02,0,.05,0,.07.02.09-.01.21-.07.37-.17.16-.1.41-.14.74-.11.43-.01.89-.07,1.39-.19s.92-.18,1.28-.2c.44-.04.81-.08,1.11-.13.29-.05.52-.1.68-.14.16-.04.5-.14,1.01-.29.2-.05.49-.14.87-.28.38-.14.71-.26.99-.36.28-.11.43-.16.45-.18.23-.15.38-.11.44.11.06.21.01.36-.15.45-.05.03-.1.04-.17.04-.09,0-.23.07-.44.2Z"/><path class="cls-1" d="M87.64,2.45c-.14.03-.64.28-1.51.76-.15.09-.25.14-.31.17-.29.15-.77.43-1.44.85-.66.42-1.21.72-1.64.91-.11.05-.24.12-.38.2-.14.09-.27.15-.39.18-.12.03-.3.06-.54.08-.12.01-.21.01-.25,0-.04-.01-.1-.06-.16-.13-.1-.09-.15-.18-.15-.27s.04-.27.11-.53c.15-.49.28-.95.41-1.35.07-.3.18-.51.31-.65.09-.09.15-.14.2-.16.05-.02.13-.03.24-.03.23,0,.37.07.42.2.05.14-.02.3-.2.48-.1.09-.18.19-.23.31-.06.12-.1.26-.15.44-.04.17-.08.31-.12.41-.09.22-.11.36-.08.41.03.05.14.03.32-.06.36-.16.66-.3.91-.43.25-.12.43-.21.53-.27.1-.06.32-.18.64-.37.32-.19.57-.34.76-.46,1.16-.67,1.79-1.04,1.9-1.13.12-.1.26-.19.42-.26.15-.07.33-.13.54-.18.21-.04.39-.01.55.08.18.11.26.3.24.56-.01.12-.07.26-.18.4-.1.14-.33.39-.67.73l-.48.48c-.25.24-.39.27-.44.09-.05-.05-.03-.13.06-.23.09-.1.19-.21.3-.32s.19-.19.21-.22c.04-.09.11-.2.22-.33.2-.28.2-.41.02-.37ZM86.33,9.9c.02.14.04.26.06.34.05.19.08.38.08.58,0,.2,0,.38-.03.54-.02.16-.06.34-.11.54-.05.2-.1.37-.15.5-.05.14-.11.3-.18.49-.07.19-.13.34-.17.45,0,.09-.09.24-.26.45-.17.21-.26.34-.28.39-.05.07-.16.15-.32.22s-.27.13-.32.17c-.46.28-.88.25-1.27-.09-.09-.1-.18-.13-.27-.08-.09.04-.17.1-.22.18-.06.07-.12.17-.19.28s-.14.19-.2.24c-.02.01-.07.05-.15.11-.07.06-.14.12-.21.17-.07.05-.14.1-.22.14-.08.04-.16.06-.24.05-.08-.01-.15-.06-.19-.13-.12-.09-.12-.3.02-.65.04-.06.07-.1.1-.11.03-.01.09-.02.19-.02.1.01.17,0,.21-.03.04-.03.13-.12.27-.27,1.04-1.29,1.7-2.37,1.96-3.25.15-.46.38-.88.7-1.26.15-.19.21-.3.18-.35-.04-.06-.12-.11-.26-.15-.13-.04-.25-.05-.34-.03-.09.02-.19.08-.29.19-.11.11-.18.22-.21.34-.05.16-.23.52-.53,1.08-.1.17-.24.36-.42.55-.18.19-.32.29-.42.31-.18.03-.28-.03-.29-.17-.01-.14.06-.27.2-.39.47-.64.74-1.17.83-1.6,0-.09-.01-.14-.04-.15-.02-.01-.14,0-.33.04-.16.04-.29,0-.4-.09-.1-.1-.16-.22-.18-.35,0-.06.06-.15.17-.27.11-.12.21-.2.31-.25.16-.09.41-.32.76-.71.34-.38.61-.71.79-.98.12-.14.17-.22.14-.25s-.14-.01-.32.05c-.27.1-.48.11-.63.04-.07-.01-.12-.06-.13-.14-.01-.08,0-.16.02-.23.02-.07.05-.14.07-.19.06-.04.18-.09.34-.15.17-.06.35-.13.55-.2.2-.07.33-.11.4-.12.28-.14.54-.17.77-.09.23.07.33.24.32.5-.04.15-.42.62-1.14,1.41-.17.19-.27.31-.29.38-.02.07.02.14.12.21.06.05.13.14.19.28.07.14.16.22.29.26.18.06.36.16.53.28.17.12.27.23.3.32.05.12.11.24.18.35.07.09.12.2.14.34ZM83.86,13.22c-.04.09-.07.17-.11.23-.18.21-.25.37-.2.49.05.12.16.17.33.16.17-.01.33-.06.48-.13.09-.04.21-.13.36-.29.15-.15.27-.28.34-.38.01-.02.05-.11.11-.26s.11-.27.15-.36c.04-.09.09-.22.15-.39.06-.17.11-.32.14-.46.03-.14.06-.29.09-.45.03-.16.04-.32.04-.47,0-.15-.03-.3-.06-.44-.07-.22-.18-.19-.31.11-.06.12-.15.29-.28.48-.12.2-.22.38-.29.54-.05.12-.14.31-.27.55-.13.24-.21.41-.25.51-.02.1-.1.2-.22.32-.09.07-.15.16-.18.25ZM84.33.29c.02-.1.06-.17.1-.21.04-.04.12-.04.23,0,.09.04.14.09.16.15.02.06.03.2.03.43,0,.14,0,.28,0,.43,0,.15,0,.26,0,.33s-.02.16-.05.26c-.03.1-.09.2-.17.32-.16.24-.28.39-.36.46-.08.07-.18.1-.3.08-.25-.02-.28-.15-.09-.37.21-.25.29-.61.26-1.09-.02-.21-.03-.34-.02-.39.01-.05.05-.11.11-.19.04-.04.07-.1.09-.2ZM89.4,6.99c.38.15.26.54-.37,1.17-.1.1-.19.23-.29.39-.09.16-.19.3-.29.41-.14.16-.23.32-.28.48-.05.19-.03.29.06.33.09.03.39.04.89.03,2.43-.15,3.99-.18,4.67-.09.18.04.32.03.41-.04.12-.15.28-.15.47,0s.26.31.21.48c-.04.24-.11.38-.22.43-.11.05-.29.03-.55-.07-.17-.05-.59-.1-1.26-.14-.67-.04-1.08-.05-1.23,0-.16.01-.48.04-.97.08-.49.04-.88.07-1.2.09-.31.02-.66.02-1.04,0-.38-.02-.68-.08-.88-.17-.18-.1-.31-.24-.37-.42-.06-.18-.04-.35.07-.51.15-.25.26-.43.34-.54.08-.11.16-.2.23-.28.07-.07.15-.16.22-.26.04-.07.17-.27.41-.58.23-.31.36-.49.39-.54.12-.26.31-.34.57-.24Z"/><path class="cls-1" d="M103.79,6.66c-.04.09-.07.14-.08.17-.01.03-.03.06-.05.1-.02.04-.02.07,0,.09.01.02.02.04.03.06,0,.03.03.05.08.07.05.03.09.05.13.08.04.03.1.07.18.13.09.06.17.11.24.16.53.37,1.52.9,2.97,1.58.1.05.31.16.65.32.33.16.59.28.77.36.18.08.41.18.7.3.29.12.56.21.82.29s.52.13.77.17c.54.07.96.19,1.25.33.12.05.18.14.18.26s-.05.23-.16.31c-.11.08-.23.11-.38.08-.29.03-.92-.1-1.86-.39-.52-.16-1.01-.34-1.49-.54-.48-.2-1.07-.47-1.78-.81-.71-.34-1.2-.57-1.47-.7-.12-.05-.45-.22-.97-.51-.52-.29-.91-.48-1.15-.57-.05-.01-.12.03-.21.12-.09.09-.2.21-.31.36-.12.15-.22.29-.32.43-.1.14-.2.28-.31.44-.11.15-.18.26-.22.31-.22.31-.73.95-1.53,1.93-.01.03-.04.06-.08.11-.04.05-.07.09-.08.11-.01.03-.04.06-.07.09s-.06.06-.08.07c-.02.01-.04.03-.07.06-.03.03-.06.04-.08.04h-.09s-.07-.01-.1-.04c-.03-.02-.06-.05-.1-.07-.15-.12-.19-.28-.13-.45.06-.18.15-.34.26-.49.11-.15.2-.25.28-.3.29-.19.57-.43.84-.73.26-.3.59-.74.99-1.3.39-.56.62-.88.66-.94.33-.43.65-1,.95-1.71.3-.71.45-1.31.45-1.82-.01-.45.09-.69.29-.72.16-.02.28.1.37.37,0,.04,0,.07.02.11.09.67-.1,1.49-.57,2.47-.03.05-.06.12-.1.2Z"/><path class="cls-1" d="M121.86,7.11s-.06-.05-.08-.05-.06.02-.14.05c-.07.03-.13.05-.17.07-.14.1-.28.1-.44,0-.16-.1-.25-.23-.29-.4-.03-.17.02-.33.16-.49.11-.15.2-.24.28-.28.39-.15.75-.08,1.07.2.32.29.45.6.39.95-.07.42-.26.88-.57,1.36-.31.49-.61.84-.9,1.05-.12.05-.22.06-.3.03-.08-.03-.12-.1-.11-.2,0-.11.06-.21.17-.33.2-.21.4-.51.6-.89.2-.38.32-.67.34-.85.04-.11.04-.18,0-.21Z"/><path class="cls-1" d="M3.55,30.27v1.17c.04.27.04.51.02.71-.02.2-.02.35,0,.43.02.08.11.08.26,0,.18-.06.35-.08.51-.05.15.03.23.11.23.23-.07.19-.24.37-.5.55-.26.18-.43.33-.52.46-.04.05-.08.26-.14.62-.06.37-.08.6-.08.71,0,.16.26.07.77-.28.41-.27.69-.49.86-.64.17-.16.28-.31.34-.47.07-.17.15-.27.22-.3.14-.04.23,0,.29.09.06.1.06.25.03.46-.05.27-.36.65-.92,1.13s-.96.75-1.18.8c-.05.01-.14.06-.27.14-.13.08-.27.16-.42.24-.15.08-.3.15-.46.21-.16.06-.31.09-.44.09s-.23-.04-.3-.13c-.11-.12-.15-.23-.13-.31.02-.08.12-.16.28-.25l.26-.13v-.28c0-.3.08-.48.24-.56.07-.02.12-.05.13-.08.01-.03.02-.1.02-.21,0-.15-.02-.23-.06-.24-.04-.01-.15.03-.32.11-.15.07-.29.11-.44.12-.15,0-.25-.02-.31-.08-.06-.06-.08-.11-.06-.15.02-.04.07-.08.15-.14.07-.06.11-.1.11-.14.06-.09.25-.23.55-.45.31-.21.49-.35.55-.41v-.63c0-.83-.04-1.29-.13-1.39-.02-.04-.09-.04-.18,0-.48.2-.74,0-.77-.58-.04-.58.05-1.05.26-1.41.02-.19.1-.49.23-.93.13-.43.2-.69.21-.76-.17-.04-.47,0-.89.13-.42.12-.7.2-.85.22-.17.12-.34.06-.5-.19-.16-.25-.18-.45-.07-.59.01-.07.08-.08.21,0,.13.07.21.07.25,0,.09-.01.28-.06.59-.15.31-.09.52-.15.64-.19.12-.04.29-.09.52-.17s.43-.16.61-.25c.18-.09.36-.2.54-.31.43-.25.73-.27.9-.07.09.1.11.2.07.29-.04.09-.15.22-.35.38-.17.16-.3.3-.39.43-.09.12-.26.45-.53.96-.32.59-.48,1.04-.48,1.34,0,.03-.02.14-.07.33-.12.43-.14.65-.06.65.77-.67,1.41-1.32,1.92-1.95.12-.16.23-.28.33-.34.1-.07.18-.08.26-.05s.14.08.18.13c.05.05.09.15.14.3.04.15.07.27.09.36.02.09.05.23.08.4,0,.03,0,.04,0,.06,0,.01,0,.03,0,.05v.07c.14.52.1,1.01-.1,1.47-.2.46-.5.69-.89.71-.18,0-.28-.06-.29-.18,0-.12.07-.22.23-.31.23-.11.37-.28.41-.49.04-.22.02-.5-.08-.84-.07-.31-.12-.49-.15-.56-.02-.06-.06-.09-.09-.09s-.23.19-.57.58l-.52.58ZM9.35,29.3c.18.13.25.32.21.57.05.24.05.58,0,1.05-.05.46-.07.78-.07.94.06.26.03.43-.1.51-.13.08-.28.07-.45-.03-.05-.04-.08-.08-.09-.14-.01-.06-.02-.2-.02-.42.01-.14.02-.25.03-.35,0-.1,0-.16,0-.19s0-.09,0-.18c0-.09-.02-.23-.05-.43-.06-.47-.09-.78-.08-.92,0-.14.04-.25.1-.33.17-.19.35-.21.53-.08ZM10.57,34.36c.09-.02.17,0,.26.07.09.06.31.19.68.39.37.19.58.26.64.23.06-.03.08-.23.08-.58-.01-1.81-.01-3.58,0-5.33.01-.98,0-1.64-.02-1.99-.02-.35-.08-.62-.17-.81-.12-.17-.14-.33-.05-.45.09-.13.22-.2.39-.2s.31.06.43.17c.07.06.12.13.13.21.01.08.03.31.06.68.02.75.03,2.19.02,4.3s.02,3.54.09,4.29c.05.33-.06.58-.31.72s-.53.09-.81-.19c-.96-.66-1.48-1.11-1.55-1.37,0-.07.04-.12.13-.14Z"/><path class="cls-1" d="M24.12,27.54c.02.09.04.16.06.2.02.04.13,0,.32-.09.22-.14.57-.18,1.04-.12.47.05.77.16.89.32.18.15.3.26.34.32.04.07.13.3.25.7.05.16.06.45.04.85-.01.37,0,.58.03.64.03.06.16.08.4.08.12,0,.25-.06.4-.17.14-.11.27-.15.4-.13.25.04.43.09.56.15.13.06.22.16.27.28.05.12,0,.27-.13.45-.14.07-.47.13-1.01.17s-.85.06-.94.07c-.04,0-.07.11-.09.34-.02.23-.05.47-.07.71-.02.25-.04.38-.06.41-.02.05-.06.21-.1.48-.04.27-.07.43-.08.48-.01.06,0,.1.02.12.02.02.09.05.2.08.04.01.21.05.52.12.31.07.49.15.55.23l.18.15-.13.22c-.07.15-.15.23-.22.24-.1.01-.23-.02-.39-.09-.16-.07-.29-.13-.4-.16-.1-.03-.24,0-.41.08-.07.07-.13.17-.17.3-.04.12-.1.43-.2.91-.16.84-.29,1.37-.41,1.6-.06.11-.17.19-.34.24-.17.05-.32.05-.47,0-.2-.14-.37-.34-.52-.62-.15-.28-.22-.55-.22-.83.09-.14.22-.04.41.3.02.05.05.11.07.17.2.45.38.41.53-.11.06-.17.12-.41.18-.72.01-.09.04-.2.07-.35.04-.15.07-.28.09-.38.02-.1.03-.21.03-.31,0-.11-.05-.18-.13-.22-.08-.04-.19-.05-.34-.03-.16.01-.63.02-1.42.02s-1.29-.04-1.59-.11c-.46-.12-.72-.32-.78-.6-.07-.28,0-.65.23-1.12.07-.17.1-.28.06-.32s-.13-.04-.29,0c-.43.11-1.16.22-2.19.33-.09.04-.18.02-.29-.05-.1-.07-.17-.15-.2-.24-.03-.09-.02-.17.05-.23.14-.11.84-.27,2.1-.46.02-.01.22-.07.6-.19s.57-.18.6-.2c.22-.41.46-1.12.7-2.13.09-.66.34-1.16.76-1.52.26-.26.41-.39.46-.39.1,0,.16.05.18.14ZM25.98,25.44c-.3.12-.61.27-.91.45-.31.18-.52.29-.63.32-.09.04-.46.24-1.13.59-.67.36-1.24.56-1.71.61-.32.07-.54.06-.65-.06-.21-.17-.12-.69.28-1.54.07-.15.15-.33.22-.54.07-.21.14-.4.21-.56.07-.16.16-.33.29-.52.04-.05.08-.12.12-.2s.08-.16.11-.22c.03-.06.07-.12.12-.19.05-.06.1-.11.15-.14.05-.03.11-.04.19-.04.08,0,.16.04.25.1.1.07.13.18.1.31-.03.13-.14.34-.32.62-.1.17-.19.35-.29.54s-.16.33-.2.44c-.04.11-.11.29-.21.54-.1.25-.17.42-.22.51-.01.1.1.11.35.04.09-.02.22-.07.41-.15.14-.06.22-.09.24-.09,1.29-.67,2.1-1.07,2.42-1.21.75-.42,1.3-.66,1.66-.71.27-.04.47.02.59.18.12.16.1.34-.07.55-.07.1-.13.16-.18.18-.04.02-.14.03-.3.03-.28-.01-.58.04-.88.16ZM23.47,31.86c-.41.1-.67.21-.77.31-.15.12-.31.48-.48,1.08-.04.15-.03.27.02.35.12.19.56.28,1.33.28.41,0,.64-.02.71-.05.07-.03.06-.13,0-.29-.17-.4-.21-.75-.11-1.08.06-.19.12-.31.17-.37.06-.06.13-.09.23-.09.14.01.23.07.3.18.06.11.1.27.11.49,0,.15.02.32.05.5.03.19.05.33.06.43,0,.1.02.16.06.18.04.02.17.04.39.07.15.03.25.01.3-.04l.07-.3c.21-1.2.28-1.89.2-2.06-.09-.05-.26-.06-.53-.02s-.46.1-.57.19c-.11.06-.28.09-.5.09-.27,0-.61.05-1.02.16ZM24.14,28.77c-.07-.06-.15-.1-.23-.1-.08,0-.13,0-.16.05l-.15.41c-.01.06-.04.16-.07.28-.14.53-.23.86-.29.98-.15.45-.18.68-.09.71.06.01.38-.04.94-.15.18-.04.3-.1.34-.18.04-.08.06-.26.05-.53.01-.15-.03-.37-.14-.67s-.16-.49-.16-.59c.05-.07.04-.14-.04-.2ZM25.99,28.51s-.13-.1-.25-.14c-.12-.04-.24-.05-.38-.03-.26,0-.45.02-.57.06-.14.04-.2.09-.19.17s.08.12.23.13c.1-.01.17.05.2.2.04.14.06.33.07.56.01.23.02.38.04.45.04.24.03.41,0,.52s-.04.19,0,.22c.01.06.19.07.54,0,.34-.05.52-.09.52-.12.07-.06.11-.3.11-.72s-.04-.79-.13-1.09c-.07-.09-.14-.15-.18-.2Z"/><path class="cls-1" d="M38.69,35.95c-.02.1-.04.18-.06.24-.01.06-.04.14-.07.24-.04.1-.07.17-.11.21-.04.04-.08.09-.14.13-.06.04-.12.06-.19.05-.07-.01-.15-.05-.24-.11-.09-.02-.13-.33-.14-.91,0-.58,0-.95.05-1.11.05-.53.09-1,.11-1.39.02-.4.03-.7.03-.91,0-.21-.02-.53-.03-.96-.01-.43-.02-.82-.02-1.18v-.2c-.01-.61-.03-.9-.06-.89-.02,0-.08.08-.17.24-.1.19-.18.33-.24.45-.18.36-.37.68-.54.97-.18.29-.33.55-.44.79-.12.24-.25.59-.41,1.06-.01.11-.08.26-.21.44-.13.18-.22.28-.29.31-.28,0-.44-.09-.47-.28-.03-.19.05-.41.23-.67.11-.25.23-.53.35-.83.12-.31.25-.58.38-.83.13-.24.31-.53.54-.88.11-.15.28-.54.51-1.16.23-.62.43-1.04.62-1.25.06-.11.18-.28.34-.51.17-.23.3-.44.4-.62.04-.2.13-.32.28-.35s.29,0,.42.11c.1.06.09.23-.03.49-.12.27-.26.54-.44.83-.18.29-.27.46-.29.51.14.11.27.23.41.35l-.04.32c-.01.2-.02.76-.04,1.68-.01.92-.03,1.79-.05,2.59-.02.8-.05,1.24-.08,1.3-.04.27-.05.45-.05.52s.05.15.12.22c.09.07.14.21.16.41.02.2,0,.38-.08.54,0,.01,0,.03-.02.06ZM41.44,27.16c.2-.17.38-.31.54-.41.17-.1.3-.16.4-.19.1-.03.28-.09.55-.18,1.38-.53,2.45-.83,3.23-.91.15,0,.27,0,.37,0,.1,0,.19.03.28.06s.15.06.19.07c.04.01.1.06.17.16.07.09.11.16.14.19.02.04.08.13.18.28s.16.26.21.33l.15.28.06,1.08c0,.24.02.98.06,2.24.04,1.26.05,2.37.05,3.33s-.04,1.65-.1,2.04c.01.19-.05.34-.19.47-.14.13-.29.15-.45.05-.11-.1-.22-.29-.31-.58-.1-.28-.22-.51-.36-.69-.14-.17-.35-.25-.64-.22-.5.04-1.2.27-2.08.7-.89.43-1.42.67-1.6.73-.26.09-.43.08-.53,0-.09-.09-.14-.23-.14-.42.16-.27.54-.5,1.14-.69s.98-.33,1.14-.43c.22-.17.67-.36,1.36-.57.68-.21,1.2-.26,1.56-.18.17.07.23.26.18.56-.01.15.01.25.07.32.05.04.08.06.09.06s.02-.02.04-.07c.02-.1.02-1.02,0-2.77-.03-1.75-.06-3.02-.1-3.81-.02-.47-.05-.75-.08-.83-.03-.09-.14-.28-.34-.59-.14-.17-.23-.28-.29-.31-.06-.03-.21-.04-.47-.03-.32.03-.76.15-1.32.36-.56.22-.96.35-1.19.4-.66.16-1.19.42-1.57.78-.18.17-.3.39-.34.66-.04.27-.05.55-.02.86.03.31.03.68,0,1.11-.12,1.11-.19,2.31-.2,3.6.01.63,0,1.05-.05,1.25-.04.21-.13.33-.25.38-.11.05-.22.05-.31,0-.1-.05-.17-.14-.2-.25-.05-.51,0-1.59.13-3.25.13-1.66.16-2.85.07-3.58-.06-.49-.06-.83,0-.99.06-.17.2-.25.43-.25.14,0,.26-.05.39-.15ZM42.21,29.18c-.12-.23-.1-.4.07-.5.01-.01.03-.02.06-.04.07-.09.24-.15.51-.2.26-.05.49-.11.68-.2.19-.08.27-.21.23-.4.01-.12.02-.23.04-.32.01-.09.04-.18.07-.29.04-.1.08-.18.13-.21.05-.04.11-.07.19-.09.08-.02.18,0,.29.09.05.04.07.1.06.18-.01.08-.02.16-.04.24-.01.08-.02.15-.03.21,0,.06.02.09.08.09s.16-.04.3-.13c.18-.07.63-.3,1.33-.69.17-.11.31-.1.41.04.1.14.09.28-.04.43-.12.1-.43.29-.91.57-.49.28-.87.49-1.15.62-.07.07-.14.27-.21.58-.07.32-.12.5-.16.57-.05.06-.11.09-.18.09s-.14-.02-.18-.07c-.07-.06-.08-.27-.02-.63,0-.05,0-.08-.02-.09-.01-.01-.04-.01-.07,0-.32.03-.62.11-.9.26-.21.17-.38.14-.52-.11ZM45.76,30.8c.02.17-.02.33-.1.48-.09.16-.2.31-.35.46-.26.24-.32.35-.18.35.04,0,.09,0,.17-.02.23-.02.38.02.42.14.05.12-.01.27-.18.46-.16.17-.4.32-.73.46-.33.13-.54.24-.65.34-.09.16-.22.22-.41.17-.14-.04-.22-.11-.24-.21-.02-.11-.05-.44-.07-.99-.02-.89-.03-1.39-.03-1.5,0-.11.05-.2.12-.28.07-.09.19-.12.35-.11.09.04.34,0,.77-.14.42-.13.72-.14.88-.05.15.14.23.29.25.45ZM44.22,31.93s.03.03.06.02c.15-.11.29-.28.44-.5.11-.19.07-.26-.11-.22-.04.01-.08.03-.13.06-.18.1-.28.25-.28.46,0,.1,0,.16.02.19Z"/><path class="cls-1" d="M58.41,29.46c-.04.09-.07.14-.08.17-.01.03-.03.06-.05.1-.02.04-.02.07,0,.09.01.02.02.04.03.06,0,.03.03.05.08.07.05.03.09.05.13.08.04.03.1.07.18.13.09.06.17.11.24.16.53.37,1.52.9,2.97,1.58.1.05.31.16.65.32.33.16.59.28.77.36.18.08.41.18.7.3.29.12.56.21.82.29s.52.13.77.17c.54.07.96.19,1.25.33.12.05.18.14.18.26s-.05.23-.16.31c-.1.08-.23.11-.38.08-.29.03-.92-.1-1.86-.39-.52-.16-1.01-.34-1.49-.54-.48-.2-1.07-.47-1.78-.81-.71-.34-1.2-.57-1.47-.7-.12-.05-.45-.22-.97-.51-.52-.29-.91-.48-1.15-.57-.05-.01-.12.03-.21.12-.09.09-.2.21-.31.36-.12.15-.22.29-.32.43-.1.14-.2.28-.31.44-.11.15-.18.26-.22.31-.22.31-.73.95-1.53,1.93-.01.03-.04.06-.08.11-.04.05-.07.09-.08.11-.01.03-.04.06-.07.09-.04.04-.06.06-.08.07-.02.01-.04.03-.07.06-.03.03-.06.04-.08.04h-.09s-.07-.01-.1-.04c-.03-.02-.06-.05-.1-.07-.15-.12-.19-.28-.13-.45.06-.18.15-.34.26-.49s.2-.25.28-.3c.3-.19.57-.43.84-.73.26-.3.59-.74.99-1.3.39-.56.61-.88.66-.94.33-.43.65-1,.95-1.71s.45-1.31.45-1.82c-.01-.45.09-.69.29-.72.16-.02.28.1.37.37,0,.04,0,.07.02.11.09.67-.1,1.49-.57,2.47-.02.05-.06.12-.1.2Z"/><path class="cls-1" d="M75.11,29.35c.06-.01.12-.01.18,0,.06.01.11.05.15.11.1.07.17.18.2.31.04.13.07.39.11.77.06.64.13.96.2.96.05,0,.14-.23.28-.69.25-.45.53-.66.85-.63.12-.02.31.08.56.31.25.23.39.41.42.53.02.07.07.18.14.32.07.14.12.26.16.38.04.12.07.24.09.38.05.25.1.38.15.4.05.02.14-.06.28-.23.25-.36.42-.46.52-.32.06.07.06.2,0,.37-.02.04-.12.19-.28.45-.16.27-.26.42-.29.46-.17.21-.26.52-.26.93,0,.21-.03.49-.1.83-.07.35-.13.59-.19.72-.07.14-.18.23-.31.27-.14.04-.25.02-.35-.07-.06-.11-.09-.19-.07-.25.01-.05.05-.13.12-.23.07-.1.11-.17.12-.22.02-.1.04-.22.06-.37.01-.15,0-.23-.02-.24-.01-.01-.17.13-.48.43-.43.42-.71.63-.83.63-.01,0-.06-.04-.16-.12-.09-.08-.15-.11-.18-.1-.04.01-.06.12-.07.32.01.31-.12.51-.41.59-.11,0-.18-.06-.21-.19-.03-.12-.05-.47-.05-1.04-.01-1.12-.03-1.86-.05-2.21-.02-.35-.08-.82-.18-1.43-.07-.48-.14-.8-.18-.96-.05-.16-.12-.24-.2-.24-.06,0-.19.1-.4.3-.2.2-.37.38-.49.56-.22.36-.37.58-.45.68-.08.09-.16.14-.25.14-.16,0-.24-.1-.24-.32,0-.09.06-.25.18-.48.12-.23.25-.43.39-.58.07-.06.22-.33.43-.81.21-.48.42-.94.63-1.39.2-.45.34-.68.42-.68.02-.01.07-.05.13-.1.06-.06.11-.1.14-.12.03-.02.09-.05.17-.06.08-.02.15,0,.21.06.06.04.08.14.06.32,0,.12-.07.31-.21.55-.14.24-.28.46-.41.67-.14.2-.2.32-.18.34.06.01.12.01.18,0ZM77.86,33.14c0-.14-.03-.22-.12-.25-.11.03-.28.13-.52.32-.23.19-.36.29-.39.3-.52.43-.77.77-.76,1.02,0,.36.04.54.11.54s.35-.23.83-.69c.48-.46.74-.74.77-.85.04-.11.06-.24.06-.38ZM76.73,31.24c-.06.07-.11.14-.15.2-.04.06-.07.13-.11.2-.04.07-.06.13-.08.18-.02.04-.04.11-.06.19-.02.09-.04.15-.06.19s-.03.11-.05.21c-.02.1-.03.17-.04.2,0,.03-.02.11-.04.24-.02.13-.03.21-.05.25.1.01.28-.09.54-.3.26-.21.45-.33.56-.37.27-.15.43-.25.48-.31.05-.05.05-.15,0-.29-.11-.36-.23-.6-.35-.72-.27-.17-.47-.14-.61.11ZM86.43,31.18c.15.11.25.17.29.17.01-.02.16.03.43.16.28.13.58.28.9.44.32.16.53.25.6.28.16.04.25.12.29.26.03.14-.02.27-.14.41-.2.24-.42.23-.68-.02-.15-.15-.45-.33-.91-.55-.46-.22-.73-.31-.82-.27-.01,0-.02,0-.03.02,0,.01-.01.03-.02.06,0,.03-.02.07-.03.1-.01.04-.02.1-.04.18-.01.08-.03.16-.05.24-.02.08-.05.19-.08.33-.04.14-.07.29-.09.44-.31,1.25-.63,1.98-.98,2.19-.12.1-.25.14-.39.11-.33-.02-.62-.26-.87-.71-.21-.31-.26-.53-.17-.67.07-.09.18-.03.31.17.19.35.38.51.59.49.21-.02.37-.21.48-.57.25-.62.43-1.34.55-2.15.05-.27.06-.43.02-.48.01-.02-.11-.08-.37-.16-.26-.08-.59-.18-.99-.3-.4-.12-.63-.18-.69-.19-.06-.02-.11-.09-.14-.19-.03-.1-.03-.19,0-.26.12-.12.29-.18.51-.17.21.01.41.05.57.11.17.06.36.14.58.22.22.09.39.14.52.15.07,0,.12,0,.14-.02.02-.01.03-.06.04-.13.06-.27.11-.75.14-1.42.03-.67.02-1.12-.03-1.34-.04-.09-.1-.12-.18-.11-.08.01-.24.09-.49.22-.04.01-.12.05-.26.11-.14.06-.22.1-.25.12-.03.02-.1.05-.21.09-.11.04-.18.07-.21.07-.03,0-.09.02-.18.04-.09.02-.16.02-.19,0-.04-.01-.09-.02-.17-.03-.07,0-.13-.03-.18-.06s-.1-.08-.16-.13c-.06-.05-.12-.11-.18-.19-.15-.16-.24-.45-.28-.86-.04-.42,0-.73.13-.94.07-.1.18-.15.31-.15s.25.06.35.18c.1.12.1.24,0,.36-.05.1-.07.24-.06.41.01.17.06.34.13.5.07.16.14.22.2.19.22-.01.54-.14.97-.37.42-.23.76-.35,1-.35.16.01.27.06.33.14.06.08.12.26.19.55.05.15.08.34.09.58.01.24.01.45,0,.63-.01.18-.03.43-.06.75-.03.32-.05.53-.05.61l-.09.69Z"/><path class="cls-1" d="M97.38,29.76c.16.49.26.97.29,1.44.07.47.02,1.17-.15,2.09-.17.92-.38,1.56-.61,1.9-.07.11-.21.4-.41.85-.2.46-.33.72-.41.78-.12.11-.27.18-.44.2-.17.03-.29,0-.37-.09-.05-.06-.13-.23-.23-.5-.1-.27-.14-.45-.1-.52.02-.11.06-.19.12-.24.06-.05.11-.05.16,0,.05.04.07.12.07.23.05.54.21.54.48,0,.05-.1.1-.2.15-.3.02-.1.13-.35.31-.74.18-.4.29-.66.33-.8.12-.36.22-.79.29-1.31.07-.51.1-.96.09-1.35-.03-.4-.07-.59-.13-.59-.05,0-.12.13-.2.39-.12.35-.32.79-.59,1.32-.31.58-.57.99-.78,1.21-.21.23-.41.33-.59.29-.06-.01-.12-.07-.17-.17-.06-.1-.08-.22-.08-.35,0-.1.11-.26.34-.48s.36-.36.4-.43c.29-.43.66-1.22,1.09-2.38.12-.19.16-.36.12-.54-.04-.17-.15-.29-.32-.35-.11,0-.23.19-.37.58-.06.16-.16.34-.29.53-.13.19-.24.31-.32.36-.06.04-.12.12-.18.26-.12.24-.25.39-.37.45-.12.07-.22.05-.29-.06-.06-.09-.08-.16-.06-.23.02-.07.1-.2.25-.4.07-.11.17-.24.29-.4.12-.16.21-.3.29-.45.08-.14.16-.34.23-.58.06-.21.08-.34.05-.4-.03-.05-.16-.13-.4-.21-.21-.04-.32-.11-.32-.23,0-.12.03-.24.1-.38.05-.06.09-.1.12-.1.03,0,.11,0,.25,0,.29.04.47.05.53.04.06-.01.1-.08.14-.2.09-.27.18-.72.29-1.34.04-.11.11-.21.22-.29.11-.08.23-.06.37.05.09.07.12.17.11.28,0,.06-.03.19-.07.39-.05.2-.11.42-.17.67-.07.25-.11.42-.12.52-.04.14-.05.22-.05.25,0,.03.04.07.1.12.02.03.12.11.28.25.16.14.26.22.31.23.12,0,.26.24.42.73ZM100.1,25.09c.09-.05.19-.09.29-.09.1,0,.17,0,.22.05.07.06.13.13.17.21.04.08.09.18.13.3.04.12.09.22.14.31.22.5.36.96.42,1.39.06.62.02,1-.13,1.15-.09.09-.2.11-.34.06-.14-.04-.22-.14-.25-.29-.01-.16-.02-.34-.04-.55-.01-.21-.02-.35-.04-.45-.01-.09-.03-.22-.06-.37-.03-.16-.08-.32-.16-.48-.07-.17-.17-.37-.29-.62-.12-.26-.18-.41-.18-.45-.01-.06.03-.12.12-.18ZM103.63,32.82l.24-.09c.38-.21.64-.09.78.37,0,.07-.08.23-.25.46-.17.24-.35.49-.55.76-.2.27-.33.46-.4.58-.06.15-.07.25-.02.3.04.04.1.03.19-.04.09-.06.19-.14.29-.23.1-.09.17-.14.2-.14.04-.02.09-.06.16-.11.07-.05.13-.09.19-.13s.13-.07.2-.1c.07-.03.15-.04.23-.03.08.01.16.04.23.09.09.06.14.13.17.19.02.07.06.25.11.55.04.22.09.45.17.7.08.24.14.37.19.38.06.03.18-.15.36-.51.18-.36.33-.76.45-1.2.1-.36.16-.65.19-.88.03-.23.06-.66.08-1.29.05-.41.06-.72.04-.93-.02-.21-.06-.34-.1-.4-.04-.06-.14-.13-.3-.23-.04-.01-.07-.02-.09-.04-.03-.01-.05-.02-.08-.04-.03-.01-.05-.02-.06-.02-.01,0-.04,0-.08,0-.04,0-.07,0-.09,0h-.29c-.28,0-.63.14-1.04.42-.41.28-.67.44-.78.49-.15.05-.34.16-.59.33-.25.17-.47.31-.66.43-.2.12-.33.18-.41.18-.05.01-.17.05-.36.12-.19.07-.37.11-.54.12-.18.03-.31,0-.39-.08-.07-.08-.12-.21-.15-.38.01-.21.18-.58.49-1.11.31-.53.49-.87.54-1,.01-.04.09-.18.22-.42.14-.24.22-.42.24-.55.02-.16.06-.27.11-.33.05-.06.15-.09.29-.09.3,0,.4.17.31.52-.06.25-.24.65-.53,1.21s-.48.93-.55,1.13c0,.12.23.07.7-.15.17-.09.33-.18.46-.28.11-.07.41-.26.88-.55.48-.29.79-.49.94-.6.07-.04.26-.08.55-.12.29-.04.52-.07.68-.07.18,0,.42.09.69.26.28.17.47.35.58.54.12.21.2.48.23.81.03.33.01.65-.05.97-.04.21-.05.4-.04.56.01.46-.1,1.07-.33,1.85-.23.77-.47,1.3-.7,1.57-.1.11-.15.18-.15.2-.04.05-.09.11-.16.18-.07.07-.17.15-.29.26-.13.1-.26.19-.38.24-.12.06-.26.1-.41.13-.15.03-.28,0-.38-.08-.09-.09-.11-.17-.07-.25.04-.08.11-.12.22-.12.08,0,.12-.03.09-.09-.02-.11-.09-.35-.19-.71-.1-.36-.17-.66-.19-.89-.01-.17-.1-.2-.28-.09-.12.09-.33.25-.61.5-.46.4-.68.61-.68.63-.05.07-.14.15-.28.23-.14.08-.27.12-.42.13-.14,0-.25-.06-.32-.2-.04-.07-.03-.17.04-.3.27-.53.42-.83.45-.91.03-.07.03-.13,0-.17-.01,0-.04-.01-.08-.04-.04-.02-.07-.04-.07-.05,0,0-.02-.02-.06-.04-.03-.02-.05-.03-.06-.05-.01-.01-.03-.03-.05-.07-.02-.03-.03-.06-.04-.08,0-.02-.01-.06-.02-.09,0-.04,0-.08,0-.12,0-.04.01-.09.02-.15,0-.05.02-.11.03-.18.04-.33.05-.6.05-.8s.03-.32.08-.37c.06-.05.17-.05.34,0,.15.05.23.07.26.06.02-.01.04-.07.04-.19,0-.12.02-.23.07-.33.05-.1.1-.15.17-.15.09,0,.21.07.37.22ZM101.33,26.06c-.04-.14.02-.29.17-.46.05-.05.13-.15.23-.3s.21-.27.31-.37c.1-.1.22-.18.36-.24.09-.05.37-.2.84-.46.47-.26.83-.43,1.08-.5.52-.16.89-.1,1.12.2.23.29.24.67.03,1.14-.03.06-.09.22-.2.46-.11.25-.19.42-.23.53-.04.11-.12.26-.24.46-.12.2-.22.36-.31.46-.09.11-.21.22-.35.33-.14.12-.29.21-.45.29-.14.05-.35.16-.66.33-.3.17-.52.28-.65.32-.23.12-.44.03-.61-.28-.03-.09-.03-.16-.02-.21.01-.05.07-.16.17-.31.1-.11.17-.41.21-.91.04-.49,0-.79-.12-.89-.05-.02-.12,0-.21.06-.09.07-.17.15-.23.25-.11.17-.18.2-.22.09ZM102.95,33.98c-.01-.2-.07-.23-.17-.09-.01.01-.02.03-.04.06-.03.09-.03.17,0,.26.02.09.05.13.1.13.07,0,.11-.12.11-.35ZM103.02,25.19c-.14.12-.21.22-.22.28-.05.09-.07.21-.05.36.01.16.04.27.09.34.01,0,.11-.2.29-.58.18-.39.28-.6.28-.64,0-.09-.13,0-.39.24ZM104.67,24.35c-.13-.01-.21.04-.23.15-.02.1-.16.31-.4.64-.24.33-.38.58-.42.77-.01.07-.07.19-.17.35-.11.16-.19.3-.26.42-.07.12-.08.2-.03.23.02-.01.17-.13.45-.35.28-.22.43-.33.47-.33.11-.04.27-.3.47-.79.2-.49.31-.79.32-.92-.01-.1-.08-.15-.21-.17ZM103.84,33.43c-.07-.07-.15-.07-.25,0-.09.19-.08.34.02.46.07.07.15.02.22-.17.07-.12.08-.22,0-.3Z"/><path class="cls-1" d="M119.71,30c.05-.11.15-.2.3-.28.15-.07.32-.1.49-.09.06,0,.1.04.1.12,0,.08-.03.18-.1.31-.07.15-.25.35-.54.61-.28.26-.51.43-.68.5-.18.09-.33.12-.43.11-.1-.01-.2-.07-.29-.19-.07-.07-.12-.13-.13-.18-.01-.04-.02-.17-.02-.38-.02-.23-.05-.36-.08-.38-.03-.02-.15,0-.36.08-.21.09-.34.13-.4.13s-.12-.04-.19-.11c-.14-.11-.19-.25-.16-.42.03-.17.12-.26.27-.27.04-.01.14-.04.3-.09.17-.05.3-.09.4-.13.1-.04.19-.1.29-.19.09-.09.13-.19.12-.3-.01-.05,0-.15.06-.29.06-.14.1-.26.13-.34.03-.09.02-.15-.05-.19-.07,0-.29.07-.66.22l-.59.24-.13.3c-.17.36-.29.82-.37,1.37-.07.56-.16.99-.26,1.3-.23.82-.41,1.35-.52,1.61-.1.22-.16.38-.18.47-.02.09-.03.15-.03.19,0,.03.05.07.15.11.09.04.17.09.25.14.09.05.27.12.54.22.28.1.45.15.53.15.05.03.13-.04.25-.2.12-.15.22-.33.32-.52.1-.19.15-.34.17-.44-.06-.1-.18-.07-.35.07-.14.1-.22.17-.27.2s-.1.08-.18.13c-.08.05-.15.09-.22.12-.07.03-.13.05-.2.07-.07.02-.13.02-.18,0-.05-.02-.09-.05-.13-.1-.1-.1-.13-.23-.1-.38.03-.16.16-.47.4-.96.04-.06.09-.19.16-.4.07-.2.14-.34.21-.42.11-.11.24-.15.39-.1.15.04.25.15.3.31.01.09-.03.24-.13.45-.11.2-.13.3-.07.32.06.01.16-.02.29-.11.05-.02.09-.04.11-.06.5-.32.82-.29.94.09,0,.15-.1.46-.29.93-.2.47-.37.81-.52,1.02-.11.16-.17.26-.17.3.2.16.62.37,1.26.62.65.25,1.24.44,1.78.55.28.06.83.2,1.64.43s1.41.37,1.79.45c.16,0,.29.04.4.11s.16.17.16.28c0,.14-.08.24-.25.33-.17.08-.32.09-.47.05-.1-.05-.82-.25-2.18-.59-1.35-.35-2.08-.55-2.2-.61-.55-.16-1.23-.43-2.03-.8-.2-.1-.33-.15-.39-.15-.07.03-.34.25-.81.69-.47.43-.72.66-.76.69-.18.17-.41.33-.68.45-.27.13-.49.15-.65.07-.15-.1-.2-.25-.15-.46.04-.2.15-.24.35-.13.06.1.24.04.54-.19.18-.15.46-.41.84-.77.38-.36.56-.57.56-.6,0-.09-.24-.2-.72-.33-.34-.09-.52-.19-.52-.3,0-.1-.06-.08-.18.06-.02.03-.05.06-.07.09-.26.38-.57.81-.92,1.27-.36.46-.56.71-.61.73-.2.06-.34.04-.42-.07s-.1-.25-.05-.42c.05-.17.15-.28.29-.34.11-.07.22-.18.33-.31.11-.13.23-.29.35-.48.12-.19.22-.33.29-.42.34-.42.69-1.12,1.05-2.1.36-.98.53-1.71.53-2.21.01-.15.04-.38.07-.71.04-.32.06-.58.06-.78,0-.35.03-.57.1-.66.07-.09.24-.18.51-.25.05-.01.09-.02.11-.04.33-.09.82-.26,1.47-.51.65-.25,1.13-.42,1.45-.51.15-.04.4-.14.75-.3.35-.16.57-.25.65-.28.22-.09.38-.13.47-.13s.19.05.3.15c.36.33.26.86-.28,1.58-.18.24-.31.38-.39.45-.07.06-.21.12-.42.19-.55.19-1.21.58-1.96,1.19-.04.05-.08.17-.13.36-.05.19-.06.32-.04.38.12.16.34.03.66-.41ZM119.4,24.99c.01.06.04.09.07.09.07,0,.33-.09.78-.27.45-.18.75-.28.91-.31.25-.07.38,0,.41.24.02.22-.05.38-.24.46-.05.01-.1.02-.17.02-.15.03-.36.1-.65.21-.28.12-.5.2-.65.25-.32.11-.53.21-.62.29-.09.08-.13.2-.1.36.02.12,0,.24-.06.35s-.14.19-.22.24c-.25,0-.37-.12-.38-.36,0-.24.03-.57.12-.98.09-.42.1-.73.04-.96-.06-.26-.09-.45-.07-.56s.06-.21.15-.3c.21-.21.39-.2.55.02.06.07.09.31.09.71,0,.26,0,.42.02.48ZM121.18,27.12c-.28.14-.63.28-1.05.43l-.65.22v.35c-.01.26,0,.39.06.4.05,0,.18-.06.39-.2.17-.07.38-.12.64-.15.25-.02.48-.14.67-.35.1-.09.21-.24.35-.47.14-.23.19-.36.17-.4-.04-.06-.23,0-.57.17ZM120.32,31.64c.2-.07.34,0,.42.19.02.06.05.1.06.1.02,0,.06-.02.14-.07.49-.3.88-.34,1.16-.12.28.22.44.62.46,1.21l.02.45c.2.03.37,0,.52-.09.1-.06.27-.19.52-.4.25-.2.39-.34.44-.4.13-.16.27-.22.41-.19.14.04.21.17.22.39-.22.41-.54.74-.96,1-.53.36-.94.52-1.24.48-.21-.04-.35-.12-.43-.26-.08-.14-.14-.4-.18-.8-.01-.2-.04-.36-.07-.47-.04-.12-.07-.2-.11-.24-.04-.04-.1-.05-.19-.03-.09.03-.16.05-.21.07-.05.03-.14.07-.28.15-.11.06-.18.13-.19.2-.02.07-.06.37-.12.9-.05.42-.15.64-.31.67-.48.03-.6-.25-.35-.82.07-.21.1-.36.09-.45-.01-.09-.04-.24-.07-.44-.04-.2-.04-.4,0-.59-.02-.23.06-.39.26-.45Z"/><path class="cls-1" d="M136.83,37.65c-.14,0-.31-.08-.51-.27-.37-.33-.67-.75-.9-1.24-.11-.23-.17-.4-.18-.48-.01-.09.02-.14.09-.17.04-.02.1,0,.18.06.09.07.13.13.13.18,0,.09.13.28.39.58.26.3.42.45.5.45.11,0,.16-.3.15-.91-.02-.95,0-1.82.07-2.62.02-.45,0-.69-.08-.72-.08-.04-.26.05-.53.26-.48.31-.94.54-1.37.71-.44.16-1.08.34-1.93.54-.34.07-.57.09-.68.04-.06-.01-.11-.06-.16-.13s-.08-.11-.12-.11c-.07.01-.12.35-.15,1.02-.04.71-.17,1.14-.39,1.3-.17.14-.3.11-.39-.09-.05-.69,0-1.61.14-2.76.14-1.15.22-1.95.25-2.41.04-.9.1-1.5.18-1.79.09-.29.23-.44.44-.44.17.01.29.09.34.24s.03.32-.06.5c-.07.15-.13.32-.17.51-.04.19-.06.36-.06.5,0,.14-.02.34-.03.6-.01.26-.02.46-.04.61-.04.22-.04.51-.02.87.02.36.02.61,0,.76-.04.14-.04.22,0,.25s.11.02.25-.05c.09-.05.57-.16,1.44-.33l.65-.17h-.02s.04-.23.05-.57c0-.34,0-.53-.03-.57s-.09-.05-.18-.03c-.1.02-.38.09-.85.21-.36.09-.58.11-.66.07-.17-.09-.2-.27-.09-.54.05-.14.12-.22.22-.26s.21-.04.33-.02c.12.03.27,0,.44-.06.11-.04.23-.06.35-.08.12-.02.2-.03.24-.05.04-.01.07-.07.1-.17.03-.1.04-.26.03-.48,0-.33.01-.55.04-.64.03-.09.08-.15.17-.18.15-.04.26,0,.35.14.09.13.14.32.15.57l.02.37c.1,0,.27-.03.51-.09.24-.06.44-.09.61-.08.17,0,.27.09.32.25.02.07.01.16-.04.26-.05.1-.11.16-.18.19-.15.04-.33.07-.55.11s-.38.08-.46.13c-.09.05-.14.14-.15.28-.04.1-.06.27-.06.52,0,.25,0,.38.03.41.02.03.16-.03.4-.17.24-.14.48-.29.73-.46.33-.22.53-.43.6-.63.07-.2.08-.59.03-1.19-.04-.46-.08-.71-.13-.76-.07-.09-.26-.19-.54-.33-.29-.13-.51-.2-.66-.21-.74-.06-1.41.32-2.01,1.15-.29.41-.49.58-.59.5-.07-.07-.1-.24-.07-.49.02-.25.08-.41.17-.47.04-.04.08-.1.12-.19.04-.09.09-.16.13-.22.04-.06.1-.11.17-.15.25-.22.58-.43.99-.61.41-.19.81-.27,1.21-.26.29.03.65.13,1.05.32.41.19.65.41.72.66.11.37.18,1.05.21,2.04.03.99.02,1.77-.03,2.34-.01.06-.02.42-.03,1.08,0,.66-.02,1.26-.04,1.83-.02.56-.05.86-.1.88-.13.23-.27.36-.41.36ZM132.84,24.32c.1-.21.15-.33.15-.37.01-.16.1-.28.28-.36.17-.08.32-.05.44.08.07.11.08.28.03.5s-.16.45-.32.67c-.09.11-.2.32-.35.61s-.23.5-.26.61c-.04.12-.03.2.02.24s.17.04.35.02c.37-.04.78-.13,1.24-.28.43-.14.73-.15.9-.05.17.1.18.31.04.62-.29.54-.71,1.02-1.25,1.43-.32.29-.66.48-1.01.59-.27.07-.45.09-.54.05-.09-.04-.1-.12-.02-.24.08-.12.21-.21.4-.29.18-.1.49-.33.91-.69.42-.36.64-.57.64-.63,0-.01,0-.02-.03-.03-.02,0-.05,0-.09,0s-.1,0-.18.03c-.08.02-.19.04-.32.07-.93.2-1.51.17-1.73-.07-.07-.09-.1-.22-.09-.41-.01-.1.03-.26.12-.47.09-.22.2-.45.32-.71.12-.25.2-.44.24-.55,0-.04.05-.16.15-.37Z"/><path class="cls-1" d="M143.75,33.12c.09-.04.2-.09.34-.13.14-.04.23-.07.27-.08.06-.05.16-.1.29-.15.14-.05.28-.09.43-.11.15-.02.25,0,.3.07.16.1.22.2.18.32s-.18.2-.4.28c-.37.12-.72.29-1.05.5-.13.09-.27.14-.41.15-.14.01-.24-.01-.3-.07-.06-.06-.08-.15-.06-.27.02-.12.07-.22.16-.31.09-.09.17-.15.26-.19ZM146.08,35.1c0,.17-.05.27-.14.28-.1.05-.16.12-.18.2.02.07-.06.24-.26.48-.2.25-.43.51-.69.8-.26.28-.42.45-.45.5-.12.19-.28.27-.47.26-.19-.01-.28-.14-.27-.39,0-.16.05-.28.15-.35.29-.25.63-.58,1-.98s.64-.75.8-1.02c.12-.16.25-.19.39-.07.09.03.13.12.12.3ZM143.88,30.7c-.02-.16.05-.34.22-.54.12-.06.22-.08.3-.06.08.03.19.07.34.15.15.07.26.11.33.11.23.07.4.19.5.34.1.15.09.29-.02.42-.13.06-.25.08-.33.07-.09-.02-.22-.05-.39-.1-.17-.05-.31-.08-.41-.09-.34-.04-.53-.14-.55-.3ZM146.32,24.26c.04.1.08.22.1.37,0,.07,0,.13.03.16.02.03.06.05.13.05s.15-.02.26-.06.26-.1.47-.19c.09-.02.18-.02.27,0,.09.03.15.09.18.18.09.21-.1.4-.57.58-.32.1-.5.21-.54.33-.04.12-.02.31.06.56.07.19.09.33.05.45s-.13.17-.27.17c-.09.04-.21-.05-.37-.25-.16-.2-.21-.34-.15-.42.02-.3-.06-.41-.26-.35-.33.06-.69.17-1.07.32-.21.07-.37.09-.49.05-.12-.04-.15-.18-.1-.42.02-.21.06-.34.1-.38.04-.04.18-.07.42-.08.22-.02.46-.06.71-.11.25-.05.4-.09.43-.11.02-.04.04-.19.05-.46.01-.27.05-.4.11-.42.04-.05.12-.07.24-.07.1-.02.17.01.21.11ZM149.8,30.16c.1-.16.18-.31.26-.45.07-.14.1-.23.09-.28-.06-.05-.14-.06-.22-.03-.09.03-.2.07-.35.13-.15.06-.25.08-.31.07-.25.03-.44-.02-.57-.14-.14-.12-.17-.3-.09-.55.01-.09.07-.26.18-.51.11-.25.17-.42.18-.49,0-.16.06-.28.17-.34.12-.07.24-.07.37,0,.13.06.21.17.23.32.02.05-.06.32-.26.8-.03.1-.03.15,0,.15.04.05.28-.06.72-.32.25-.15.39-.23.44-.24.05-.01.12,0,.22.06.12.06.19.16.2.28.01.14-.06.42-.21.84-.15.43-.32.8-.51,1.12-.09.14-.07.22.04.24.11.04.53.06,1.25.07.42.01.81.03,1.19.06.38.03.58.04.62.04.12-.02.37-.01.74.04.37.05.58.1.65.15.14.15.12.33-.05.53-.17.21-.37.31-.62.31-.01,0-.08-.05-.2-.15l-.17-.13-1.18-.06c-.74-.04-1.41-.06-2.01-.07-.49-.01-.78,0-.88.05-.09.04-.2.19-.32.44-.09.16-.22.35-.42.58s-.32.39-.38.5c-.17.25-.39.52-.65.81-.26.29-.46.48-.6.57-.14.14-.31.18-.53.12-.22-.06-.32-.16-.32-.33,0-.09.03-.15.1-.19.07-.04.14-.05.23-.03.09.05.27-.09.56-.41.29-.32.46-.54.53-.67.05-.09.15-.23.31-.43.16-.2.3-.39.43-.57.13-.18.19-.31.19-.38.02-.04-.04-.07-.2-.09-.09-.01-.23-.02-.42-.04-.37-.02-.55-.06-.54-.09-.06-.04-.11-.11-.14-.22-.03-.11-.03-.2,0-.28.09-.1.19-.15.31-.17.12-.01.29,0,.5.02.21.03.38.04.52.04.1.03.18.03.26,0,.07-.02.13-.03.17-.02.04,0,.07,0,.1-.05.03-.04.05-.06.06-.07.01,0,.03-.03.05-.08l.06-.11c.02-.06.09-.17.18-.33ZM150.46,24.21c-.09.19-.1.3-.05.33.06.04.24.04.54.02.45-.04.75-.04.88,0,.13.04.19.14.19.3.01.19-.08.31-.29.36-.2.05-.48.09-.84.09-.36,0-.62.04-.77.08-.06.12-.14.39-.25.81-.1.42-.19.68-.25.79-.05.14-.13.24-.23.32s-.2.09-.29.06c-.15-.09-.14-.33.04-.72.01-.05.04-.15.07-.29.04-.14.07-.27.09-.37.02-.1.04-.22.05-.33.01-.12,0-.21-.04-.28-.04-.07-.1-.1-.18-.1-.28-.05-.42-.19-.42-.41,0-.05,0-.1.03-.14.02-.04.06-.08.11-.1.06-.02.1-.04.15-.05.04,0,.1-.02.18-.04.08-.02.13-.03.16-.03.17-.01.28-.06.31-.15.02-.07.11-.21.26-.41.15-.2.25-.32.29-.35.07-.05.15-.05.24,0,.09.05.13.13.13.24,0,.07-.04.2-.13.37ZM150.17,34.41c.01-.28.04-.52.08-.71.04-.19.14-.32.29-.4.16-.1.28-.13.36-.1.08.03.15.15.21.34l.05.2h.35c.38,0,.69.13.92.39s.34.59.32.98c-.02.4-.18.78-.49,1.15-.13.2-.19.31-.17.33.02.03.22.02.6,0,.38-.03.62-.06.75-.1.31-.09.52-.07.65.04.1.11.11.25.05.42-.07.17-.18.24-.34.21-.18.04-.41.07-.68.11s-.58.07-.93.09c-.35.02-.59.05-.73.07-.12.01-.27.03-.44.05-.17.02-.29.03-.35.04-.06,0-.13,0-.22,0s-.17,0-.24-.02c-.15-.03-.26-.06-.33-.11-.07-.05-.12-.12-.13-.22s-.02-.19,0-.27c0-.08.03-.2.06-.35.04-.15.07-.27.09-.36.04-.33.1-.71.18-1.11.05-.16.08-.38.09-.67ZM150.56,36.71s.06.02.12.02c.18,0,.4-.11.64-.33.24-.22.43-.49.58-.8.12-.25.17-.49.13-.71-.04-.23-.17-.35-.39-.36-.12-.01-.24.04-.35.15-.29.33-.55.98-.76,1.93,0,.06,0,.1.03.11Z"/><path class="cls-1" d="M164.33,29.91s-.06-.05-.08-.05-.06.02-.14.05c-.07.03-.13.05-.17.07-.14.1-.28.1-.44,0-.16-.1-.25-.23-.29-.4-.03-.17.02-.33.16-.49.11-.15.2-.24.28-.28.39-.15.75-.08,1.07.2.32.29.45.6.39.95-.07.42-.26.88-.57,1.36-.31.49-.61.84-.9,1.05-.12.05-.22.06-.3.03-.08-.03-.12-.1-.11-.2,0-.11.06-.21.17-.33.2-.21.4-.51.6-.89.2-.38.32-.67.34-.85.04-.11.04-.18,0-.21Z"/><path class="cls-1" d="M19.02,46.77s-.05.08-.06.09c0,.01,0,.03,0,.06s0,.06.02.09c.01.03.04.07.09.12.06.1.09.17.08.22,0,.05-.05.15-.14.3-.02.09-.2.21-.52.37-.32.16-.5.27-.53.32-.17.14-.42.32-.75.56-.33.24-.53.38-.6.45-.41.36-.73.58-.98.67-.09.03-.15.05-.19.08-.04.03-.08.07-.11.12-.03.05-.05.1-.06.14-.01.04-.03.11-.06.21-.02.1-.05.19-.07.28-.11.42-.27,1.05-.47,1.88-.2.83-.38,1.51-.52,2.02-.14.51-.32,1.1-.54,1.75-.22.66-.48,1.23-.77,1.73-.29.5-.63.94-1.01,1.33-.22.22-.38.35-.46.37-.09.02-.19-.03-.31-.15-.11-.11-.16-.23-.15-.35.02-.17.09-.42.19-.75.1-.33.19-.52.25-.58.06-.09.09-.15.09-.2s.07-.2.21-.46.25-.43.32-.5c.11-.12.17-.14.17-.06,0,.1-.07.39-.22.87-.16.5-.21.72-.15.69.06-.04.2-.26.42-.67.02-.06.14-.28.35-.65.36-.64.79-2.02,1.29-4.12.12-.48.3-1.19.54-2.12.24-.93.42-1.61.53-2.03.05-.26.15-.56.31-.91.16-.35.28-.54.37-.58.15-.06.33-.02.53.11.18.14.18.26,0,.37-.05.03-.13.16-.24.39-.11.24-.18.42-.19.56-.02.14,0,.2.03.2.05,0,.2-.11.46-.33.47-.35.95-.74,1.44-1.19s.7-.72.63-.83c-.14-.02-.41-.03-.83-.02-.42.01-.66.06-.74.13-.21.09-.37.13-.48.13-.18,0-.29-.07-.33-.22-.04-.15.03-.25.2-.32.06-.04.11-.09.16-.16.04-.07.1-.12.17-.16.07-.04.18-.06.34-.07.15-.02.45-.05.9-.07.45-.02.74-.03.85-.05.29-.09.53-.05.69.12.17.17.15.39-.05.66-.04.05-.07.1-.1.15ZM15.84,52.78c.13.11.28.29.44.54.16.26.28.41.35.46.07.04.17.03.28-.05.16-.09.25-.07.28.06.01.1.02.33.02.69-.01.48-.05.75-.11.8-.06.07-.14.11-.24.09-.1-.01-.17-.07-.22-.17-.06-.12-.23-.39-.52-.81-.28-.41-.47-.68-.57-.79-.37-.42-.44-.71-.22-.87.21-.07.38-.06.52.06ZM17.46,51.07c.1.12.18.21.24.27.06.06.14.12.24.18.1.06.2.09.31.07.11-.01.23-.06.37-.15.18-.11.35-.19.51-.25.15-.05.33-.1.54-.14.2-.04.37-.07.51-.11.6-.21,1.08-.28,1.42-.22.38.07.64.18.77.32.13.14.22.37.26.71.04.26.02.5-.06.72-.15.43-.31.75-.48.96-.17.21-.42.37-.74.49-.2.05-.42.23-.68.53-.26.3-.42.45-.48.45-.1.04-.2.12-.3.25-.1.13-.19.21-.27.25-.07.05-.12.1-.15.16-.02.05-.04.19-.06.4l-.04.26.22-.02c.25-.01.42,0,.52.02.1.03.2.09.31.2.32.29.52.83.59,1.63.04.71.05,1.14.03,1.31-.02.17-.08.43-.19.79-.02.05-.05.12-.07.22-.02.1-.05.17-.06.22-.02.05-.06.09-.12.12-.06.03-.14.03-.24,0-.1.01-.21-.02-.32-.1-.12-.08-.21-.13-.27-.15-.06-.02-.16.02-.29.12-.06.07-.14.13-.23.18-.09.04-.18.07-.25.09-.07.02-.18.04-.32.06-.14.02-.24.04-.3.06-.15.05-.26-.02-.35-.2s-.1-.38-.06-.58c.09-.42.07-.76-.04-1.02-.04-.09-.05-.15-.05-.19,0-.04.04-.12.1-.24.09-.09.18-.49.29-1.2.11-.71.18-1.1.22-1.16.09-.11.09-.18,0-.21-.09-.03-.2-.05-.35-.07-.15-.01-.23-.05-.26-.11-.2-.19-.1-.54.29-1.06.11-.15.29-.43.54-.83.04-.06.01-.12-.07-.19-.27-.22-.46-.4-.56-.52-.1-.12-.21-.28-.32-.46-.02,0-.12.06-.3.17-.16.11-.27.16-.32.16-.06,0-.09-.08-.1-.21-.02-.33.06-.58.26-.72.11-.09.17-.15.17-.18s-.04-.08-.11-.16c-.02-.04-.05-.06-.07-.07-.04-.05-.17-.19-.4-.43-.23-.23-.39-.4-.49-.48-.21-.16-.25-.36-.13-.61.1-.09.24-.09.43-.02.19.07.38.22.56.43.04.05.1.14.2.26ZM18.56,53.04c.16.19.26.27.3.24.04-.02.07-.18.08-.46.01-.33.03-.54.06-.63.02-.07.02-.11,0-.12-.03,0-.1,0-.21.05-.09.04-.24.13-.45.28s-.32.24-.32.26c.3.17.48.3.55.39ZM19.92,49.45c0,.17-.06.28-.17.34-.11.09-.26.28-.46.58-.16.25-.27.4-.34.46-.07.06-.15.09-.23.07-.28-.02-.28-.25,0-.67.06-.07.12-.18.18-.32.06-.14.11-.28.15-.4.04-.12.1-.24.18-.36.08-.12.16-.18.25-.19.09,0,.21.04.37.12.06.07.09.2.08.36ZM18.92,60.05c.09.01.17-.07.24-.26.05-.1.09-.16.12-.18.03-.02.1-.02.19,0,.17.05.44-.1.79-.46.05-.07.08-.17.09-.3.01-.12,0-.21-.06-.26-.07-.05-.15-.06-.23-.02-.08.04-.2.1-.35.19-.15.09-.27.15-.34.16-.39.15-.59.43-.59.83,0,.19.04.28.13.3ZM19.38,57.36c-.22.29-.32.54-.29.76,0,.06.01.1.04.1.02,0,.08,0,.17,0,.14-.02.32-.1.56-.24.24-.14.37-.23.4-.3.04-.12-.02-.28-.17-.46-.17-.27-.41-.22-.7.15ZM19.52,54.22s-.02.06-.02.07c-.02.06-.03.1-.03.11,0,.01.03.01.08,0,.07-.04.2-.12.38-.24.18-.12.29-.2.32-.24.04-.06.02-.12-.06-.19-.17-.21-.4-.05-.68.48ZM20.94,51.4c-.5.06-.83.14-.98.24-.04.03-.04.1,0,.23.04.13.04.21.02.23.02.11.05.17.07.17s.09-.05.18-.15c.04-.02.06-.05.07-.06.01-.02.03-.04.06-.07.03-.02.06-.05.08-.07.23-.22.4-.36.51-.41.1-.05.21-.04.3.04.32.24.28.46-.13.67-.09.05-.17.11-.24.19s-.15.17-.22.28-.14.19-.18.24c-.11.12-.16.24-.15.35.02.07.1.11.23.09.13-.01.25-.03.35-.06.1-.02.19-.06.27-.09.18-.04.34-.17.48-.41.14-.23.22-.51.24-.82.01-.19.01-.31,0-.36-.01-.05-.04-.1-.09-.14-.09-.12-.38-.15-.88-.09Z"/><path class="cls-1" d="M36.38,46.77s-.05.08-.06.09c0,.01,0,.03,0,.06s0,.06.02.09c.01.03.04.07.09.12.06.1.09.17.08.22,0,.05-.05.15-.14.3-.02.09-.2.21-.52.37-.32.16-.5.27-.53.32-.17.14-.42.32-.75.56-.33.24-.53.38-.6.45-.41.36-.73.58-.98.67-.09.03-.15.05-.19.08-.04.03-.08.07-.11.12-.03.05-.05.1-.06.14-.01.04-.03.11-.06.21-.02.1-.05.19-.07.28-.11.42-.27,1.05-.47,1.88-.2.83-.38,1.51-.52,2.02-.14.51-.32,1.1-.54,1.75-.22.66-.48,1.23-.77,1.73-.29.5-.63.94-1.01,1.33-.22.22-.38.35-.46.37-.09.02-.19-.03-.31-.15-.11-.11-.16-.23-.15-.35.02-.17.09-.42.19-.75.1-.33.19-.52.25-.58.06-.09.09-.15.09-.2s.07-.2.21-.46.25-.43.32-.5c.11-.12.17-.14.17-.06,0,.1-.07.39-.22.87-.16.5-.21.72-.15.69.06-.04.2-.26.42-.67.02-.06.14-.28.35-.65.36-.64.79-2.02,1.29-4.12.12-.48.3-1.19.54-2.12.24-.93.42-1.61.53-2.03.05-.26.15-.56.31-.91.16-.35.28-.54.37-.58.15-.06.33-.02.53.11.18.14.18.26,0,.37-.05.03-.13.16-.24.39-.11.24-.18.42-.19.56-.02.14,0,.2.03.2.05,0,.2-.11.46-.33.47-.35.95-.74,1.44-1.19s.7-.72.63-.83c-.14-.02-.41-.03-.83-.02-.42.01-.66.06-.74.13-.21.09-.37.13-.48.13-.18,0-.29-.07-.33-.22-.04-.15.03-.25.2-.32.06-.04.11-.09.16-.16.04-.07.1-.12.17-.16.07-.04.18-.06.34-.07.15-.02.45-.05.9-.07.45-.02.74-.03.85-.05.29-.09.53-.05.69.12.17.17.15.39-.05.66-.04.05-.07.1-.1.15ZM33.2,52.78c.13.11.28.29.44.54.16.26.28.41.35.46.07.04.17.03.28-.05.16-.09.25-.07.28.06.01.1.02.33.02.69-.01.48-.05.75-.11.8-.06.07-.14.11-.24.09-.1-.01-.17-.07-.22-.17-.06-.12-.23-.39-.52-.81-.28-.41-.47-.68-.57-.79-.37-.42-.44-.71-.22-.87.21-.07.38-.06.52.06ZM34.83,51.07c.1.12.18.21.24.27.06.06.14.12.24.18.1.06.2.09.31.07.11-.01.23-.06.37-.15.18-.11.35-.19.51-.25.15-.05.33-.1.54-.14.2-.04.37-.07.51-.11.6-.21,1.08-.28,1.42-.22.38.07.64.18.77.32.13.14.22.37.26.71.04.26.02.5-.06.72-.15.43-.31.75-.48.96-.17.21-.42.37-.74.49-.2.05-.42.23-.68.53-.26.3-.42.45-.48.45-.1.04-.2.12-.3.25-.1.13-.19.21-.27.25-.07.05-.12.1-.15.16-.02.05-.04.19-.06.4l-.04.26.22-.02c.25-.01.42,0,.52.02.1.03.2.09.31.2.32.29.52.83.59,1.63.04.71.05,1.14.03,1.31-.02.17-.08.43-.19.79-.02.05-.05.12-.07.22-.02.1-.05.17-.06.22-.02.05-.06.09-.12.12-.06.03-.14.03-.24,0-.1.01-.21-.02-.32-.1-.12-.08-.21-.13-.27-.15-.06-.02-.16.02-.29.12-.06.07-.14.13-.23.18-.09.04-.18.07-.25.09-.07.02-.18.04-.32.06-.14.02-.24.04-.3.06-.15.05-.26-.02-.35-.2s-.1-.38-.06-.58c.09-.42.07-.76-.04-1.02-.04-.09-.05-.15-.05-.19,0-.04.04-.12.1-.24.09-.09.18-.49.29-1.2.11-.71.18-1.1.22-1.16.09-.11.09-.18,0-.21-.09-.03-.2-.05-.35-.07-.15-.01-.23-.05-.26-.11-.2-.19-.1-.54.29-1.06.11-.15.29-.43.54-.83.04-.06.01-.12-.07-.19-.27-.22-.46-.4-.56-.52-.1-.12-.21-.28-.32-.46-.02,0-.12.06-.3.17-.16.11-.27.16-.32.16-.06,0-.09-.08-.1-.21-.02-.33.06-.58.26-.72.11-.09.17-.15.17-.18s-.04-.08-.11-.16c-.02-.04-.05-.06-.07-.07-.04-.05-.17-.19-.4-.43-.23-.23-.39-.4-.49-.48-.21-.16-.25-.36-.13-.61.1-.09.24-.09.43-.02.19.07.38.22.56.43.04.05.1.14.2.26ZM35.93,53.04c.16.19.26.27.3.24.04-.02.07-.18.08-.46.01-.33.03-.54.06-.63.02-.07.02-.11,0-.12-.03,0-.1,0-.21.05-.09.04-.24.13-.45.28s-.32.24-.32.26c.3.17.48.3.55.39ZM37.29,49.45c0,.17-.06.28-.17.34-.11.09-.26.28-.46.58-.16.25-.27.4-.34.46-.07.06-.15.09-.23.07-.28-.02-.28-.25,0-.67.06-.07.12-.18.18-.32.06-.14.11-.28.15-.4.04-.12.1-.24.18-.36.08-.12.16-.18.25-.19.09,0,.21.04.37.12.06.07.09.2.08.36ZM36.28,60.05c.09.01.17-.07.24-.26.05-.1.09-.16.12-.18.03-.02.1-.02.19,0,.17.05.44-.1.79-.46.05-.07.08-.17.09-.3.01-.12,0-.21-.06-.26-.07-.05-.15-.06-.23-.02-.08.04-.2.1-.35.19-.15.09-.27.15-.34.16-.39.15-.59.43-.59.83,0,.19.04.28.13.3ZM36.74,57.36c-.22.29-.32.54-.29.76,0,.06.01.1.04.1.02,0,.08,0,.17,0,.14-.02.32-.1.56-.24.24-.14.37-.23.4-.3.04-.12-.02-.28-.17-.46-.17-.27-.41-.22-.7.15ZM36.89,54.22s-.02.06-.02.07c-.02.06-.03.1-.03.11,0,.01.03.01.08,0,.07-.04.2-.12.38-.24.18-.12.29-.2.32-.24.04-.06.02-.12-.06-.19-.17-.21-.4-.05-.68.48ZM38.31,51.4c-.5.06-.83.14-.98.24-.04.03-.04.1,0,.23.04.13.04.21.02.23.02.11.05.17.07.17s.09-.05.18-.15c.04-.02.06-.05.07-.06.01-.02.03-.04.06-.07.03-.02.06-.05.08-.07.23-.22.4-.36.51-.41.1-.05.21-.04.3.04.32.24.28.46-.13.67-.09.05-.17.11-.24.19s-.15.17-.22.28-.14.19-.18.24c-.11.12-.16.24-.15.35.02.07.1.11.23.09.13-.01.25-.03.35-.06.1-.02.19-.06.27-.09.18-.04.34-.17.48-.41.14-.23.22-.51.24-.82.01-.19.01-.31,0-.36-.01-.05-.04-.1-.09-.14-.09-.12-.38-.15-.88-.09Z"/><path class="cls-1" d="M48.26,56.54c.2-.2.38-.4.54-.61.12-.17.38-.44.77-.81.39-.36.62-.55.68-.55.11.04.19.07.23.11.04.04.05.09.03.15-.02.06-.06.12-.09.17-.04.05-.1.12-.18.22-.04.04-.06.06-.07.07-.23.25-.4.45-.5.59-.27.41-.61.83-1.01,1.26-.41.43-.76.75-1.07.96-.12.07-.23.09-.33.06-.1-.02-.18-.07-.23-.13-.06-.06-.08-.15-.07-.26s.01-.2.02-.28c0-.07.03-.19.06-.35.04-.16.06-.27.07-.32.06-.31.12-.87.18-1.67.06-.8.09-1.34.07-1.61-.04-.02-.3.02-.79.12-.49.11-.79.11-.89,0-.2-.2-.12-.41.24-.63.12-.09.22-.14.3-.16.08-.02.23-.03.45-.05.31-.02.5-.07.59-.14.09-.07.15-.23.18-.49,0-.12.03-.29.09-.51.06-.22.09-.37.09-.47,0-.12.05-.22.15-.28.1-.06.21-.05.35.04.05.04.08.08.08.14,0,.05,0,.19,0,.42-.02.3-.02.46.02.48.05.03.26-.12.65-.45.26-.22.44-.25.55-.09.05.06.06.15.04.27-.02.12-.07.21-.13.27-.01,0-.13.09-.34.26-.22.17-.41.34-.58.5-.17.16-.26.27-.28.32-.07.4-.14,1.09-.19,2.08-.06.99-.09,1.54-.1,1.65.06,0,.19-.1.4-.3ZM54.78,57.55c.05.12.07.51.06,1.16,0,.65-.03,1.07-.08,1.25-.07.32-.23.48-.46.48-.11,0-.19-.03-.23-.09-.04-.06-.06-.17-.06-.32.06-3.54.13-5.39.2-5.57l.07-2.32c.01-.89,0-1.39-.06-1.5-.05-.05-.1-.05-.15,0-.02.05-.11.2-.26.45-.15.25-.28.45-.39.61-.11.16-.2.25-.26.28-.07.05-.16.07-.27.06-.1,0-.15-.07-.14-.19-.01-.11.09-.34.29-.68.21-.34.3-.53.28-.57.01-.09.07-.23.18-.42.1-.19.23-.4.37-.63.14-.23.23-.39.27-.49.01-.01.03-.04.06-.09.18-.36.33-.63.44-.82.11-.19.26-.38.45-.59.19-.21.38-.33.56-.35.11,0,.19.06.24.19.05.12.04.25-.02.37-.05.07-.16.22-.33.44-.17.22-.32.41-.43.58-.12.17-.19.32-.21.43-.06.09-.06.22,0,.39.06.17.08.33.08.46.09,1.04.07,2.42-.06,4.13-.12,1.71-.18,2.73-.18,3.05-.02.05-.01.15.04.3ZM58.8,49.88c.11,0,.19.03.25.09.06.06.08.14.06.24.06.04-.04.14-.31.3-.27.16-.56.32-.87.47-.31.15-.46.24-.46.27-.12.07-.43.17-.92.3-.33.09-.53.13-.59.13s-.13-.04-.2-.11c-.09-.09-.12-.19-.09-.32.02-.16.08-.27.18-.33.09-.05.32-.11.67-.18.28-.02.5-.07.65-.13.15-.06.3-.15.45-.25.15-.1.32-.19.51-.27.34-.15.57-.22.68-.22ZM58.69,51.96c.26.03.38.11.37.27-.01.16-.13.28-.35.38-.18.1-.3.32-.33.67-.05.25-.03.37.06.37.1,0,.19-.09.28-.28.01-.04.02-.07.04-.11.05-.21.16-.29.33-.24.18.05.25.19.18.43-.01.04-.03.07-.06.11v.06c-.05.15-.08.24-.1.29-.02.04-.08.12-.18.23-.06.06-.11.11-.15.15-.22.22-.36.38-.41.46-.05.09-.1.24-.15.46-.14.58-.23.95-.3,1.11-.07.17-.08.28,0,.31.07.03.25,0,.54-.07.47-.05,1.15-.16,2.05-.34.9-.18,1.6-.29,2.1-.34.37-.05.59.03.66.25.07.22-.06.41-.39.57-.05.06-.28.1-.69.1-.41,0-.65.03-.71.07-.23.05-.73.14-1.48.26-.75.12-1.3.23-1.64.32-.14.05-.38.11-.72.17-.34.06-.59.11-.74.15-.41.12-.66.06-.77-.2-.11-.23-.04-.43.22-.58.06-.04.14-.06.22-.07.17-.05.36-.25.55-.59.06-.12.13-.29.19-.51.07-.22.09-.34.06-.36-.02-.01-.15,0-.38.06-.23.05-.36.07-.4.06-.07-.02-.14-.11-.2-.26s-.08-.27-.06-.37c.01-.12.08-.19.19-.2.12-.01.25-.02.41-.02s.27-.04.34-.11c.17-.1.28-.19.31-.26.02-.05.04-.21.05-.48,0-.27,0-.42-.03-.45-.01,0-.21.08-.59.23-.38.15-.58.22-.59.19-.05-.01-.11-.07-.19-.18-.08-.1-.12-.19-.12-.25,0-.09.04-.17.13-.24s.19-.14.31-.19c.54-.17.86-.33.96-.48.05-.09.07-.29.06-.61,0-.22,0-.36,0-.42,0-.05.04-.1.1-.14.23-.2.43-.1.59.3l.13.32.26.04ZM57.89,46.37c.07.04.2.2.39.47.11.16.2.35.27.57.07.22.09.37.08.46-.02.05-.05.11-.07.19-.02.07-.05.14-.06.2-.02.06-.04.13-.06.19-.02.07-.05.12-.08.17-.03.04-.06.08-.1.1-.04.03-.08.03-.13.03-.05,0-.1-.03-.17-.08-.06-.06-.06-.2.02-.43s.1-.36.09-.41c-.02-.06-.14-.23-.35-.5-.17-.21-.28-.36-.32-.46-.04-.1-.05-.2-.03-.32.01-.09.07-.14.17-.17.17-.05.3-.05.37,0Z"/><path class="cls-1" d="M78.91,53.52c-.04.07-.08.12-.12.13-.04.01-.1.05-.17.1-.07.06-.14.13-.21.23-.06.09-.14.17-.23.26-.09.09-.2.18-.33.28-.13.1-.21.16-.23.19-.11.09-.26.18-.44.29-.18.1-.31.13-.37.06,0-.02.06-.09.17-.2.11-.1.18-.16.22-.16s.18-.13.43-.4c.25-.27.43-.48.54-.64.11-.17.15-.3.13-.39-.06-.15-.2-.18-.41-.09-.21.09-.48.16-.82.2-.34.05-.61.12-.82.2-.18.07-.67.26-1.45.55-.78.29-1.4.57-1.87.83-.07.05-.22.12-.43.22-.22.1-.41.2-.59.3-.18.1-.29.18-.34.24-.07.06-.2.14-.39.24-.18.1-.31.17-.37.22-.04.04-.14.06-.31.07-.17.01-.26.07-.28.17-.02.05-.15.2-.37.46s-.34.43-.37.5c-.16.32-.34.42-.53.3-.15-.11-.13-.28.06-.5.11-.14.25-.37.42-.71s.3-.56.4-.69c.07-.1.13-.19.16-.26.03-.07.06-.14.1-.2.06-.02.09-.12.09-.28s.03-.24.09-.24c.09-.01.17.05.25.19.08.14.12.29.12.45,0,.15.02.23.05.24.03.01.08-.02.14-.09.02-.02.05-.04.07-.06.57-.53.95-.8,1.14-.8.14-.06.37-.18.71-.35.34-.17.64-.32.9-.45.26-.12.47-.2.62-.22.21-.09.52-.21.92-.36.41-.16.78-.29,1.12-.41.34-.12.68-.22,1.02-.31.42-.11.72-.17.91-.19.19-.01.36.03.51.11.2.11.28.32.26.61-.02.15-.06.26-.09.33ZM77.06,60.62c-1.14.25-1.88.41-2.24.46-.23.04-.54.11-.93.23-.39.12-.72.19-.99.21-.25.05-.73.16-1.47.34-.73.18-1.17.29-1.32.32-.26.07-.45.11-.56.1-.12,0-.24-.06-.36-.16-.16-.14-.23-.24-.21-.33.02-.08.11-.13.29-.14.27-.06.7-.18,1.29-.35.59-.17,1-.29,1.22-.35.26-.07.41-.13.44-.18.04-.04.07-.19.09-.44.54-2.26.89-3.53,1.03-3.79.05-.06.1-.19.15-.37.05-.19.11-.33.18-.44.07-.1.18-.14.31-.1.1.03.33-.05.7-.22.52-.11.89,0,1.12.32l.17.2-.04.78c0,.17,0,.58,0,1.22,0,.64-.03,1.13-.08,1.45-.05.37-.06.58-.02.61.29,0,.92-.09,1.86-.28.95-.19,1.59-.28,1.94-.28.11,0,.25-.02.41-.05.16-.03.27-.05.32-.05s.14.03.25.09c.14.15.18.31.13.48-.04.1-.11.16-.22.19-.11.03-.31.05-.59.05-.77.04-1.73.18-2.87.44ZM70.45,53.69c-.04-.15,0-.39.11-.72.07-.25.1-.4.09-.46-.01-.06-.09-.1-.22-.13-.17-.02-.27-.02-.3.02-.03.04-.05.18-.05.43,0,.21,0,.34-.02.4-.01.05-.04.1-.09.14-.16.1-.3.09-.41-.03-.11-.12-.17-.32-.17-.6,0-.06-.02-.31-.07-.73-.05-.43-.07-.77-.07-1.03s.04-.49.11-.69c.05-.19.1-.31.16-.37.06-.06.13-.09.23-.07.05-.02.09,0,.12.08.03.08.05.17.05.26s0,.16-.02.21c-.02.05-.02.13,0,.25.02.12.06.2.09.23.04.04.06.04.07,0,.05-.11.12-.2.21-.28s.22-.15.38-.22.27-.14.33-.19c.12-.07.21-.12.27-.15.06-.02.13-.06.24-.1.1-.04.22-.09.34-.14.69-.31,1.09-.23,1.2.24.07.31.06.62-.04.95-.1.32-.29.71-.59,1.15-.16.27-.33.52-.53.73-.19.22-.34.41-.45.57-.15.22-.26.36-.33.41-.07.05-.17.07-.3.07-.2,0-.31-.07-.35-.22ZM70.1,52.15c.12-.17.21-.26.28-.26.04.01.13-.04.28-.16.15-.12.23-.18.24-.2.02,0,.06-.05.1-.16.04-.1.06-.18.05-.21-.02-.05-.06-.08-.11-.08-.05,0-.11,0-.18.04-.07.03-.14.07-.21.1s-.15.07-.21.11-.12.06-.16.06c-.11.01-.17.08-.18.21,0,.13,0,.25.05.36l.06.19ZM74.63,47.65s-.15.13-.35.27c-.31.27-.5.43-.56.47-.07.04-.16.06-.29.05-.14,0-.28-.04-.43-.11-.15-.07-.25-.15-.29-.22-.04-.09.03-.29.2-.61.01-.02-.07-.08-.26-.17-.14-.06-.22-.1-.24-.13-.02-.02-.03-.07-.02-.15s.03-.12.06-.15c.02-.02.09-.05.18-.07.28-.07.47-.17.57-.28.04-.05.08-.17.12-.35.04-.19.05-.29.03-.32-.09-.05-.24-.02-.47.07-.23.1-.38.14-.47.13-.16.01-.26.05-.31.11-.07.27-.06.61.06,1.02.11.41.17.73.17.96,0,.25-.02.41-.06.48-.04.07-.12.11-.26.11-.23,0-.34-.16-.33-.48.01-.22-.03-.52-.14-.88-.1-.36-.2-.57-.29-.62-.04-.02-.09-.1-.15-.24-.06-.14-.08-.22-.06-.24.02-.02,0-.08-.03-.17-.06-.15-.04-.24.06-.29.1-.04.25-.02.43.07.04.07.13.1.28.07.15-.03.24-.04.28-.03.04.01.07,0,.11-.05.04-.04.06-.11.07-.2.04-.16.35-.37.95-.62.6-.25,1.12-.43,1.56-.53.33-.1.6-.09.8.04.2.12.3.35.29.67-.01.16-.09.41-.24.75-.15.34-.28.57-.39.68-.1.11-.18.24-.26.39-.18.33-.29.52-.33.57ZM71.64,52.25c.23-.32.35-.5.38-.57.02-.09.01-.12-.04-.11-.14,0-.27.1-.41.3l-.04.07c-.27.52-.36.78-.28.78.02,0,.15-.16.38-.47ZM71.88,51.04c.13-.03.22-.03.29,0,.14.1.23,0,.3-.28.06-.23.04-.38-.06-.45-.11-.04-.18-.06-.19-.06s-.06.03-.14.09c-.07.06-.15.11-.24.13-.21.1-.33.17-.35.2-.02.04,0,.11.05.22.06.11.1.17.14.17.01,0,.08-.02.21-.05ZM74.52,60.28c.26-.05.43-.1.49-.14.01,0,.04-.08.08-.24.04-.16.09-.36.13-.59.04-.23.06-.43.05-.58-.01-.06-.03-.1-.06-.11-.02-.01-.06,0-.11.02-.05.03-.12.07-.2.13-.73.58-1.22.85-1.49.8-.09-.02-.15-.01-.18.04-.03.05-.05.13-.06.23-.01.11-.04.18-.07.23-.04.14-.06.25-.06.33s.02.15.05.19c.03.04.07.06.11.07.04.01.1,0,.18,0,.07-.02.14-.04.2-.06.06-.03.14-.06.23-.1.09-.04.17-.07.23-.08.06-.03.22-.06.49-.12ZM75.26,57.84s-.02-.05-.06-.07c-.14.03-.34.11-.62.25-.28.14-.5.23-.65.27-.16.05-.26.09-.29.11-.04.03-.07.09-.09.2-.06.17-.07.28-.02.33.05.04.15,0,.29-.1.32-.23.63-.44.94-.61.32-.2.49-.32.5-.37ZM75.16,45.2s-.07-.03-.16-.03c-.12.03-.24.05-.34.07-.1.02-.22.04-.33.07-.12.03-.21.07-.29.11-.07.04-.14.09-.18.15-.05.05-.06.12-.05.2.02.08.07.17.16.25.05.04.13,0,.26-.11.11-.1.2-.15.28-.14.07,0,.12.06.13.16.01.06,0,.12-.04.17-.04.05-.17.16-.39.32-.09.06-.15.12-.2.19-.05.06-.11.15-.18.26s-.12.17-.13.19c-.04.04-.06.12-.07.26-.01.14,0,.22.04.26.07-.02.14-.05.18-.06.05-.02.1-.06.15-.11.05-.06.09-.1.12-.13.03-.03.09-.1.17-.21.08-.11.14-.2.19-.28.48-.74.72-1.21.72-1.41,0-.09,0-.14-.03-.16ZM73.9,57.69c.06,0,.35-.14.87-.41.25-.12.4-.21.47-.27.07-.05.11-.12.14-.19.04-.12.06-.27.06-.43s-.02-.28-.07-.35c-.05-.06-.11-.1-.19-.1-.08,0-.15,0-.21.02-.06.02-.15.05-.26.09-.11.04-.18.07-.2.08-.11.03-.19.1-.24.23-.05.13-.1.22-.17.27-.17.2-.26.48-.26.85,0,.14.02.2.07.2ZM74.76,51.18c.02-.2.06-.37.09-.53.04-.16.06-.32.08-.48.02-.17.03-.42.03-.75.01-.62.03-.95.06-.98.04-.06.11-.08.21-.05.1.03.16.09.16.18,0,.05.06.16.17.34.11.18.18.27.2.27.04-.02.12-.09.26-.19.14-.11.23-.18.29-.21.06-.04.15-.09.3-.17.14-.07.29-.14.45-.2.47-.19.84-.1,1.12.27.28.37.3.78.08,1.23-.02.07-.07.21-.15.41-.07.2-.14.38-.2.55-.06.17-.12.29-.18.36-.07.09-.11.15-.11.19s-.07.12-.2.26c-.14.14-.25.23-.35.28-.09.05-.15.1-.19.15-.04.05-.11.1-.21.15-.16.06-.28.09-.37.07-.09-.01-.21-.04-.36-.09-.15-.05-.27-.08-.36-.09-.63-.1-.89-.41-.79-.95ZM76.07,49.68s-.09.05-.15.07c-.11.06-.18.17-.22.32-.04.22-.02.33.06.33.04-.01.07-.04.11-.07.18-.16.31-.35.37-.56.04-.11-.02-.14-.17-.09ZM77.58,48.92c-.1-.04-.24-.03-.41.02-.11.03-.21.09-.29.2-.08.1-.11.21-.1.31.01.1.05.16.11.17.06.01.14-.02.22-.11.09-.09.17-.13.25-.12.08,0,.13.06.14.16.04.06-.06.21-.29.44-.23.23-.4.38-.5.44-.1.05-.27.26-.52.63-.25.37-.36.59-.35.65.02.05.06.07.11.07s.11-.02.18-.06c.07-.04.13-.08.19-.13.06-.05.12-.1.18-.14.06-.04.09-.07.1-.07.31-.19.5-.32.57-.41.07-.09.17-.28.29-.59.23-.58.33-.97.29-1.17-.01-.15-.07-.24-.18-.28Z"/><path class="cls-1" d="M87.61,50.77s.06.03.09.02c.15,0,.24.16.28.46.01.16.05.41.11.74.05.27.1.42.16.43.06.01.18-.09.38-.32.27-.32.47-.41.59-.26.2.24,0,.64-.59,1.22-.16.16-.23.29-.2.39.17,1.26.15,2.34-.06,3.23-.07.32-.09.49-.04.49.05,0,.15-.1.31-.33.04-.05.07-.09.1-.12s.07-.07.11-.13c.04-.05.08-.11.12-.16.04-.04.15-.17.34-.4.19-.23.36-.44.5-.63.14-.19.21-.32.19-.4.02-.06.07-.1.14-.13.07-.02.14-.01.23.04.13.09.19.21.16.38-.03.17-.15.41-.36.73-.11.15-.17.24-.17.26-.03.12-.35.54-.98,1.26-.63.72-1.09,1.14-1.4,1.28-.25.19-.49.2-.74.06-.22-.16-.2-.36.07-.61.15-.15.25-.28.3-.39.05-.11.13-.32.23-.63.15-.47.24-.8.27-1,.03-.2.05-.56.05-1.08.01-.94-.06-1.41-.2-1.41-.05,0-.11.03-.18.07-.17.14-.37.18-.58.12-.21-.05-.33-.17-.36-.34-.01-.11,0-.19.06-.24.06-.05.17-.1.36-.17.07-.04.16-.07.27-.11s.17-.07.2-.08c.03-.02.06-.06.09-.12.03-.06.04-.15.02-.25-.02-.11-.06-.25-.12-.44-.04-.21-.06-.5-.07-.87l-.02-.58h-.39c-.26,0-.44-.03-.55-.08-.11-.06-.14-.17-.09-.34.04-.05.04-.1,0-.17-.09-.1-.03-.16.17-.19.12-.02.34-.04.65-.06.27.01.49,0,.66-.02.17-.02.35-.08.55-.17.2-.09.33-.14.4-.15.28-.05.42.04.41.26,0,.24-.12.4-.35.48-.04.01-.07.03-.11.04-.06,0-.22.05-.48.16-.26.1-.42.16-.48.16-.09.01-.1.04-.04.07ZM94.53,48.27c.31-.15.6-.27.87-.35.27-.09.54-.13.81-.13.15-.01.28,0,.4.06.12.06.2.11.25.17.05.05.12.14.2.25.09.16.13.34.15.54.01.2-.01.41-.07.63s-.12.4-.17.54c-.06.14-.13.3-.21.5,0,.04-.07.13-.2.29-.14.15-.2.24-.18.27,0,.05-.1.17-.29.35l-.28.26-.06.65c-.09.9-.1,1.47-.04,1.71.05.16.15.16.31-.02.16-.17.34-.2.54-.09.21.1.28.23.22.4-.06.17-.25.33-.55.49-.17.07-.29.16-.35.25-.06.09-.09.22-.09.38,0,.15.01.34.04.58.02.24.05.36.07.37.22-.01.52-.04.88-.08.37-.04.63-.07.79-.08.16-.01.39-.01.7,0,.14,0,.38-.03.73-.08.35-.06.55-.1.6-.12.12-.06.36-.01.72.15.39.17.5.37.33.59-.13.16-.71.24-1.73.24-.66-.02-1.29,0-1.88.1-.59.09-1.22.22-1.89.38-.67.16-1.22.27-1.65.33-.27.06-.48.06-.63-.02s-.19-.21-.13-.41c.01-.14.13-.26.37-.38.23-.12.44-.17.61-.16.04,0,.1,0,.18,0,.08,0,.14-.01.17-.02.03,0,.08-.01.15-.02.07,0,.11-.01.14-.02.02,0,.06-.02.11-.04.05-.02.08-.04.1-.05.02-.02.04-.04.07-.07.03-.02.05-.06.06-.09.01-.04.03-.08.04-.13.01-.06.07-.16.17-.29.1-.13.14-.26.11-.4,0-.16-.02-.26-.07-.29-.05-.03-.14,0-.28.06-.18.09-.39.13-.62.12-.23,0-.36-.08-.4-.23,0-.06.08-.16.25-.3.17-.14.27-.2.32-.2.07,0,.2-.05.37-.14.17-.09.27-.16.29-.21.07-.53.08-1.25.02-2.17-.04-.04-.12-.04-.24-.02-.04,0-.09,0-.16,0-.07,0-.12,0-.17,0h-.17c-.07,0-.12,0-.15-.02-.03-.01-.07-.03-.11-.06-.04-.02-.06-.06-.06-.09s.02-.08.03-.13c.05-.09,0-.22-.14-.4-.14-.18-.21-.3-.21-.36-.18-.57-.33-1.24-.44-2.02-.16-.57-.23-.91-.2-1.02.02-.14.06-.23.11-.28.05-.05.13-.08.26-.09.21,0,.33.11.37.32.06.27.14.41.22.41.15-.06.38-.17.68-.32ZM94.92,49.37c-.01-.23-.06-.35-.15-.38-.12.01-.25.04-.37.09-.12.05-.24.13-.35.25-.11.12-.14.26-.09.42.04.29.09.45.17.48.05.01.18-.04.39-.16.21-.12.33-.21.37-.27.04-.06.05-.21.04-.44ZM94.35,50.87c0,.1.03.24.09.43s.14.25.24.2c.08-.05.17-.14.24-.27.07-.13.1-.23.09-.31,0-.21-.22-.23-.66-.06ZM96.38,48.54c-.05-.04-.18-.06-.38-.05-.29,0-.46.04-.51.11s-.02.22.06.43c.04.15.08.23.14.23.05,0,.16-.04.3-.14.14-.1.25-.14.35-.13.07,0,.12,0,.14-.02.02-.01.02-.06,0-.13-.02-.16-.06-.26-.12-.31ZM96.28,49.75c-.01-.16-.1-.18-.26-.06-.06.05-.12.12-.17.2-.04.07-.06.16-.08.26-.02.1-.02.19-.02.27,0,.08.02.12.05.12.27-.27.43-.54.48-.8Z"/><path class="cls-1" d="M106.55,51.59c-.1,0-.18-.03-.23-.1-.06-.07-.08-.15-.08-.25s.08-.2.25-.31c.17-.1.38-.19.66-.27.44-.11.82-.27,1.13-.48.31-.21.47-.4.47-.58,0-.07.01-.16.04-.26.02-.1.05-.2.09-.32s.06-.19.07-.24c0-.16.09-.26.28-.29.18-.03.31,0,.37.12.06.07.07.2.02.38-.05.18-.09.29-.13.33-.09.09-.07.13.04.13.06,0,.35-.21.87-.63.2-.17.34-.21.43-.11.09.1.05.25-.12.46-.09.11-.28.3-.59.57-.31.27-.5.44-.59.53-.12.09-.16.28-.11.58.05.3.15.49.31.57.11.12.28.26.52.42.23.15.39.28.48.36.03.03.07.06.15.1.07.04.15.08.22.11.07.03.14.07.21.12.07.05.1.1.11.14,0,.04-.03.1-.1.16-.09.09-.2.12-.35.11-.15-.01-.28-.04-.41-.09-.12-.05-.23-.1-.31-.17-.01-.01-.12-.09-.33-.22-.21-.14-.34-.2-.39-.2-.04.01-.06.09-.08.24s-.05.61-.1,1.39c-.01.24-.04.5-.09.78-.05.29-.07.46-.07.52,0,.09-.04.18-.11.29-.07.1-.15.15-.22.12-.18,0-.3-.09-.34-.27-.04-.18-.03-.48.03-.9.02-.17.04-.36.04-.57s.01-.35.04-.44c.07-.17.07-.42,0-.74l-.06-.07c-.23.4-.49.75-.76,1.08-.33.45-.62.62-.85.52-.11-.04-.17-.1-.19-.19-.02-.09.02-.16.1-.22.41-.31.72-.77.96-1.37.05-.19.17-.44.37-.75.2-.31.3-.56.3-.73-.04-.06-.14-.02-.31.11-.66.33-1.2.51-1.6.54ZM106.48,60.49c-.06-.07-.09-.15-.09-.23.07-.27.27-.64.58-1.11.31-.47.62-.88.91-1.24.1-.1.17-.16.21-.19.04-.02.11-.04.19-.04.11,0,.2.04.26.12.06.08.04.16-.06.23-.09.06-.14.17-.17.33.04.05,0,.16-.1.33-.1.17-.23.37-.38.58-.15.22-.23.35-.26.4-.1.16-.26.35-.48.58-.22.22-.36.33-.41.33-.09,0-.16-.03-.22-.1ZM118.92,55.93c-.31.1-.5.16-.54.17-.06.01-.23.08-.52.2-.28.12-.51.2-.68.24-.2.05-.55.19-1.05.43-.54.27-.81.43-.81.48,0,.01.03.04.09.09.21.14.39.29.54.46.15.17.23.31.23.41,0,.06-.06.17-.18.32s-.21.22-.25.22-.11.04-.19.13c-.28.24-.66.42-1.14.56-.48.14-.95.17-1.4.11-.38-.02-.98-.39-1.81-1.09-.06-.01-.1-.07-.13-.19s-.05-.23-.07-.37c-.03-.14-.05-.23-.07-.28-.1-.16-.08-.26.06-.3.11-.02.21.03.29.17.07.11.23.28.47.49.24.22.43.37.56.45.1.06.18.11.26.16.07.04.14.08.21.11.07.03.12.06.16.08.04.03.09.04.16.06.07.01.11.03.13.04.02.01.06.02.13.02h.49c.25,0,.57-.1.96-.32.39-.21.58-.37.57-.48-.16-.12-.3-.2-.42-.24s-.37-.06-.74-.06c-.17,0-.38.03-.62.07-.24.05-.43.07-.57.07-.14,0-.27-.08-.38-.21-.11-.14-.13-.27-.06-.4.07-.13.2-.21.4-.23.12-.04.33-.09.64-.15.3-.06.56-.13.78-.19.22-.07.41-.15.57-.23,1.82-.75,2.99-1.22,3.5-1.41.1,0,.28-.06.54-.17s.48-.19.65-.24c.17-.05.33-.04.49.02.14.1.15.28.04.54-.09.22-.31.33-.68.33-.07-.01-.27.03-.58.13ZM113.23,52.73c.01-.37.02-.59.04-.68.01-.15.04-.31.07-.49.04-.18.06-.31.07-.38.01-.07,0-.15-.04-.22s-.1-.13-.2-.17c-.15-.07-.22-.16-.21-.26,0-.1.08-.19.21-.26l.2-.15-.02-.52c-.02-.35,0-.61.07-.78.06-.15.12-.25.18-.3.06-.05.26-.14.59-.28.84-.35,1.44-.19,1.83.48.09.14.14.27.16.41.02.14.04.53.06,1.17.01.27.01.48,0,.62-.01.14-.04.3-.07.46-.04.17-.06.36-.07.58-.06.58-.15,1.04-.28,1.37-.06.14-.24.14-.53.02l-.26-.11-.28.19c-.44.37-.88.58-1.31.63-.13-.04-.24-.11-.3-.23-.07-.12-.06-.26,0-.42.04-.1.06-.33.07-.7ZM114,53c.15-.01.34-.1.58-.26.24-.16.44-.32.6-.48.07-.06.13-.12.18-.17.04-.05.07-.11.09-.19s.03-.13.04-.18c0-.04.01-.12.02-.23,0-.11.02-.2.03-.28,0-.1,0-.16-.02-.19-.01-.02-.04-.04-.09-.04-.09-.01-.26.09-.54.32s-.44.35-.52.37c-.17.1-.28.2-.33.32-.05.11-.07.29-.07.54,0,.29.01.44.04.46ZM114.33,49.07c-.06.06-.11.15-.15.25-.04.1-.05.2-.05.28,0,.08.03.12.08.12s.26-.1.63-.3c.37-.2.56-.32.57-.35.01-.02-.04-.08-.17-.17-.21-.2-.52-.14-.92.17ZM115.31,49.92c-.1.05-.3.16-.61.33-.2.11-.34.21-.42.29-.09.08-.12.15-.11.21.01.12.1.15.26.07.11-.06.39-.23.83-.52.22-.15.33-.26.31-.33-.01-.11-.1-.13-.26-.06Z"/><path class="cls-1" d="M126.17,57.85c.14-.03.3-.05.51-.07.2-.01.35-.03.45-.06.2-.05.5-.09.9-.11.37.01.6-.02.71-.09.1-.07.14-.19.11-.33-.03-.15,0-.33.06-.54.06-.17.1-.43.13-.76l.04-.48s-.12.02-.24.05c-.12.03-.24.06-.36.08-.12.03-.24.05-.37.06-.13.02-.24.02-.34,0-.1-.01-.16-.04-.18-.07-.05-.02-.05-.06,0-.12.04-.05.1-.11.17-.17.07-.06.09-.09.08-.1-.01-.04.01-.07.08-.11.07-.04.16-.08.28-.12.12-.04.23-.09.35-.13.12-.04.23-.08.35-.12.12-.04.19-.06.23-.07.04-.05.08-.43.13-1.14.05-.71.06-1.08.02-1.1-.04-.02-.24.06-.61.26l-.55.28-.55-.02c-.42.01-.67-.05-.77-.18-.09-.13-.09-.41,0-.84.07-.33.1-.59.07-.76-.07-.19-.03-.33.15-.44.17-.11.32-.13.44-.07.15.12.18.47.11,1.04-.05.35-.06.53-.04.56.33.01.9-.25,1.71-.8l.17-.13.06-1.09c.05-.78.12-1.35.2-1.71.02-.14.1-.25.23-.35.13-.1.25-.08.38.06.09.06.13.12.14.19,0,.06-.03.23-.1.5-.05.16-.08.47-.1.93-.02.46,0,.71.03.74.05.05.18-.03.41-.23.22-.21.34-.36.35-.47.05-.2.17-.29.35-.29.18,0,.35.09.5.25.1.14.13.24.08.32-.04.07-.23.25-.56.52-.04.04-.07.07-.11.09-.1.09-.24.2-.43.34-.19.14-.32.25-.38.31-.06.06-.14.17-.23.32-.09.15-.15.33-.17.53-.02.21-.04.47-.04.81-.01.53-.02.86-.04.98-.02.14,0,.22.06.24.04.01.18-.03.42-.13.25-.1.44-.19.57-.28.11-.07.23-.11.35-.12.12,0,.22.03.29.1.11.11.12.24.03.39-.09.15-.23.24-.42.28-.17.05-.42.17-.76.35s-.56.33-.68.43c-.01.06-.03.3-.06.72-.03.42-.05.77-.05,1.04v.32c.2.03.38.01.54-.04.16-.09.6-.17,1.32-.25.72-.08,1.18-.14,1.37-.18.15-.05.72-.11,1.71-.19,1-.08,1.55-.16,1.66-.23.21-.09.41-.1.61-.03.2.07.25.23.17.47-.05.19-.13.31-.25.36-.12.06-.4.11-.84.16-.07.03-.49.06-1.26.1-.77.04-1.27.08-1.5.12-.25.04-.62.09-1.12.15-.5.06-.93.13-1.28.2-.35.07-.7.16-1.04.27-.12.04-.25.19-.39.45-.05.06-.12.08-.21.07-.09-.02-.19-.08-.29-.18-.05-.1-.13-.15-.23-.17-.1-.01-.23,0-.39.03-.15.03-.27.04-.34.03-.48.05-.92.12-1.33.2-.36.07-.58.09-.66.04-.05-.04-.08-.15-.1-.32-.02-.18,0-.3.03-.36.05-.07.14-.13.28-.16Z"/><path class="cls-1" d="M143.68,51.5c-.25-.09-.42-.13-.52-.13-.11,0-.22-.05-.31-.15-.26-.25-.2-.43.18-.56.12-.1.45-.07.99.1.53.17.8.3.78.4.09.16.09.3,0,.41-.08.11-.19.14-.34.09-.11-.04-.21-.06-.31-.06-.07.01-.23-.02-.48-.11ZM144.97,54.4c-.19.13-.43.26-.72.4-.29.14-.48.23-.56.28-.32.19-.53.23-.65.13-.07-.05-.12-.17-.13-.37,0-.21.02-.34.07-.4.05-.06.18-.08.39-.08.16,0,.29-.02.38-.05.09-.03.29-.13.58-.29.41-.22.65-.33.72-.33.06,0,.13.03.2.09.07.06.11.12.11.19-.07.16-.21.31-.4.44ZM145.9,55.04c.17-.26.3-.32.37-.19.04.03,0,.17-.1.45-.1.27-.23.57-.38.89-.15.32-.23.53-.26.61-.04.22-.36.66-.96,1.3-.6.64-1,1.01-1.18,1.11-.06.04-.14.02-.24-.05-.1-.07-.16-.14-.18-.23-.05-.2.05-.4.31-.59,1.18-.96,2.05-2.07,2.62-3.3ZM152.02,52.15s-.05-.07-.1-.05c-.06.02-.11.05-.17.08-.05.04-.11.08-.17.12-.06.04-.1.06-.13.05-.06.03-.15.08-.27.18-.12.09-.22.15-.32.18-.05.03-.21.1-.47.23-.26.13-.49.23-.68.3-.19.07-.33.1-.43.08-.06-.02-.12-.11-.17-.26s-.06-.25-.03-.3c-.01-.04.12-.12.39-.24.27-.12.57-.26.89-.41.32-.15.52-.25.59-.32.25-.16.49-.3.72-.41.25-.11.39-.23.43-.34.04-.12.04-.4,0-.84-.04-.51-.06-.8-.06-.87-.01-.12-.03-.21-.06-.25-.03-.04-.08-.05-.14-.04-.06.02-.13.05-.19.08s-.14.07-.22.11-.14.06-.19.06c-.11.03-.19.04-.23.06-.04.01-.08.02-.1.03-.02,0-.06.03-.11.06-.05.03-.11.06-.18.1-.22.09-.4.06-.53-.09s-.18-.29-.16-.43c.11-.09.55-.26,1.32-.51.77-.25,1.23-.43,1.39-.53.12-.05.25-.05.39,0,.34.11.36.33.04.67-.09.1-.14.17-.17.22-.03.05-.04.11-.04.18s-.01.15-.04.23c-.05.11-.03.42.06.93.05.29.1.43.15.43.12-.04.25-.1.39-.19.14-.09.28-.19.44-.33.16-.13.29-.22.39-.29.18-.12.29-.21.33-.25.04-.04.06-.11.06-.2-.03-.19.08-.32.32-.4.24-.08.42-.05.54.1.11.11.15.21.11.3-.01.09-.14.26-.4.53-.25.27-.43.43-.54.49-.1.06-.28.2-.55.43s-.5.38-.7.48c-.28.17-.45.29-.51.36-.06.07-.11.21-.16.44-.03.06-.06.18-.11.35-.05.17-.09.3-.13.39-.04.09-.09.18-.16.28-.07.1-.15.17-.25.22-.07-.04-.12-.1-.13-.19-.01-.09,0-.21.03-.38.03-.17.05-.28.05-.34.01-.15.01-.25,0-.3ZM154.58,56.9c-.15.22-.21.36-.2.44-.05.05.07.07.35.07l.96-.07c.64-.11.99-.05,1.05.19.09.21.06.38-.07.51-.14.13-.33.16-.57.1-.13-.04-.47-.03-1,.02-.42.05-.73.1-.92.16-.2.06-.51.2-.94.42-.21.11-.38.17-.5.19-.12.01-.25-.02-.37-.09-.07-.05-.12-.08-.15-.08-.03,0-.05.02-.07.06-.11.19-.19.3-.23.33s-.12.06-.23.06c-.07.01-.14,0-.18-.02-.05-.02-.09-.07-.11-.13-.02-.06-.04-.12-.06-.19-.01-.06-.02-.14,0-.24,0-.1.01-.18.02-.24,0-.06.01-.14.03-.23.01-.09.02-.16.02-.2.02-.09.04-.27.06-.54.01-.27.04-.48.09-.61.07-.25.1-.59.09-1.02l-.04-.67.15-.15c.11-.11.19-.16.25-.14.05.02.11.12.16.29.07.22.14.34.18.36.05.02.15-.05.29-.21.26-.32.6-.52,1.02-.6.42-.08.79.02,1.1.29.17.17.27.38.3.61.03.24-.01.47-.14.71-.06.12-.09.21-.09.26-.01.04-.09.16-.24.38ZM153.6,55.32c-.15.07-.37.26-.66.56-.21.22-.35.37-.42.45-.05.06-.07.16-.07.29s-.02.26-.07.4c-.04.15-.06.29-.07.43-.01.14-.02.26,0,.38,0,.12,0,.27,0,.45.79-.32,1.37-.9,1.75-1.73.18-.37.28-.64.29-.82,0-.17-.07-.3-.23-.39-.17-.09-.33-.09-.49-.02Z"/></g></svg>