<?xml version="1.0" encoding="UTF-8"?><svg id="_圖層_2" xmlns="http://www.w3.org/2000/svg" viewBox="0 0 585.7 106.38"><defs><style>.cls-1{fill:#fff;stroke:#fff;stroke-miterlimit:10;stroke-width:.25px;}</style></defs><g id="_文字"><path class="cls-1" d="M2.57,35.43c0-.43.13-1.21.39-2.34.4-1.39.68-2.72.82-3.99l.22-1.65.3-3.86c.12-1.01.19-1.58.22-1.69,0-.32-.04-.48-.13-.48-.46.23-.98.54-1.56.91-.9.52-1.59.82-2.08.91-.41,0-.61-.25-.61-.74-.09-.23.11-.59.59-1.08.48-.49.83-.69,1.06-.61.29,0,.77-.22,1.43-.65.66-.43,1.21-.9,1.65-1.39.46-.52.81-.85,1.04-1,.32-.23.59-.35.82-.35.2,0,.38.07.52.22.12.17.17.3.17.39,0,.17-.09.35-.26.52-.29.43-.55,1.21-.78,2.34-.26,1.45-.49,3.37-.69,5.77-.09.87-.26,2-.52,3.38-.26,1.45-.43,2.54-.52,3.3-.12,1.16-.29,2.04-.52,2.65-.17.23-.42.35-.74.35-.15,0-.26-.03-.35-.09-.32-.15-.48-.42-.48-.82ZM2.05,13.35c-.06-.12-.09-.26-.09-.43,0-.2.07-.36.22-.48.26-.17.91-.43,1.95-.78.92-.26,1.53-.48,1.82-.65.38-.14.67-.22.87-.22.46,0,.69.19.69.56-.03.15-.06.29-.09.43-.49.38-1.3.8-2.43,1.26-1.13.46-1.95.71-2.47.74-.2,0-.36-.14-.48-.43ZM36.55,34.84c-1.2-.25-2.13-.51-2.8-.8-.35-.14-.71-.26-1.08-.35-.49-.12-.85-.25-1.08-.39-1.3-.43-2.9-.94-4.79-1.52-1.89-.58-3.33-1.01-4.31-1.3l-1.91-.74c-1.13-.4-1.85-.65-2.17-.74-.2-.03-.48-.12-.82-.28-.35-.16-.59-.24-.74-.24-.26,0-.51.19-.74.56l-.65,1.08c-.58.78-1.06,1.53-1.43,2.26-.67,1.45-1.24,2.17-1.73,2.17-.17,0-.33-.07-.48-.22-.17-.17-.26-.36-.26-.56,0-.26.09-.56.26-.89.17-.33.37-.66.59-.98.22-.32.37-.55.46-.69.32-.61.79-1.36,1.43-2.26.69-.98,1.23-1.88,1.6-2.69.55-1.13.95-1.86,1.21-2.21.26-.38.51-.64.74-.78.23-.09.46-.13.69-.13.2,0,.45.07.74.22.32.17.43.35.35.52-.15.23-.54.62-1.17,1.17-.32.29-.61.71-.87,1.26-.32.72-.39,1.08-.22,1.08.09-.03.16-.04.22-.04.72-.14,2.14.22,4.25,1.08.61.26,1.85.62,3.73,1.08,1.76.43,2.78.74,3.04.91,1.39.41,3.28,1.03,5.68,1.86,1.59.55,2.78.78,3.56.69,1.19,0,1.78.29,1.78.87,0,.12-.06.32-.17.61-.12.43-.26.65-.43.65-.43.06-1.25-.04-2.45-.28ZM16.19,15.56c-.32,0-.69-.13-1.13-.39-.23-.35-.35-.66-.35-.95,0-.17.06-.48.17-.91.12-.43.2-.85.26-1.26.14-.61.26-1.01.35-1.21.09-.2.26-.51.52-.91.17-.17.32-.26.43-.26s.27.15.48.43c.17.17.26.35.26.52,0,.09-.05.26-.15.52-.1.26-.18.54-.24.85-.06.3-.09.69-.09,1.15-.03.26-.03.41,0,.43,0,.06.06.09.17.09.32,0,1.21-.74,2.69-2.21,1.04-1.04,1.56-1.34,1.56-.91,0,.46-.54,1.29-1.6,2.49-1.07,1.2-1.95,1.97-2.65,2.32-.2.15-.43.22-.69.22ZM22.13,25.93c0-1.01.19-2.37.56-4.08.38-1.85.58-3.04.61-3.56.09-.98.27-1.82.56-2.52.14-.17.33-.26.56-.26.29,0,.53.09.72.28.19.19.22.41.11.67-.09.9-.23,1.94-.43,3.12-.2,1.19-.38,1.98-.52,2.39-.15.38-.22.91-.22,1.6,0,.26.01.39.04.39.12.09.52-.27,1.21-1.08.69-.81,1.38-1.7,2.06-2.67.68-.97,1.05-1.58,1.11-1.84.14-.78.48-1.08,1-.91.26.15.39.3.39.48l-.26,1.04c-.09.64-.27,1.06-.56,1.26l-1.91,2.78c-.58.84-1.08,1.5-1.52,2-.43.49-.98,1-1.65,1.52-.43.17-.78.26-1.04.26-.23,0-.42-.09-.56-.26-.17-.14-.26-.35-.26-.61ZM22.96,9.02c0-.69.23-1.79.69-3.3.17-.61.3-1,.39-1.17.06-.14.23-.3.52-.48.23-.14.43-.22.61-.22.14,0,.29.07.43.22.06.06.09.2.09.43,0,.43-.17,1.17-.52,2.21-.26.78-.39,1.29-.39,1.52v.13c0,.17.07.3.22.39.29.2.98-.04,2.08-.74.78-.46,1.21-.69,1.3-.69.2,0,.38.07.52.22.14.15.22.32.22.52-.03.23-.09.4-.17.5-.09.1-.26.24-.52.41-.46.23-.9.55-1.3.95-.81.52-1.55.78-2.21.78-.52,0-.98-.17-1.39-.52-.38-.32-.56-.71-.56-1.17Z"/><path class="cls-1" d="M54.46,21.25c-.38-.14-.62-.26-.74-.35-.2-.23-.3-.52-.3-.87,0-.14.03-.27.09-.39.06-.12.14-.17.26-.17l1.52.04c1.91,0,3.58-.16,5.03-.48l2.65-.56c.9-.14,1.79-.33,2.69-.56,1.27-.35,2.05-.53,2.34-.56.46-.06,1.16-.2,2.08-.43l2.65-.48.87-.09c.61,0,.91.2.91.61,0,.23-.09.52-.26.87-.23.35-.54.52-.91.52h-.61c-.29,0-.49.01-.61.04-.78.17-1.56.35-2.34.52l-.91.22c-2.4.64-4.03,1.01-4.9,1.13-.84.12-1.63.26-2.39.43-1.53.41-3.17.61-4.9.61l-2.21-.04Z"/><path class="cls-1" d="M90.73,13.27c-.12,0-.22-.03-.3-.09-.09-.06-.17-.14-.26-.26-.23-.17-.35-.38-.35-.61s.09-.65.26-1.26l.95-3.17c.14-.64.39-1.14.74-1.52.2-.2.36-.33.48-.37.12-.04.3-.07.56-.07.32,0,.57.06.76.17.19.12.28.27.28.48,0,.29-.17.61-.52.95-.23.2-.41.43-.52.69-.12.26-.23.59-.35,1l-.3,1c-.15.43-.22.71-.22.82,0,.15.06.22.17.22.06,0,.26-.07.61-.22,1.13-.49,2.27-1.03,3.43-1.6l3.25-1.95c2.75-1.56,4.23-2.44,4.47-2.65.35-.26.77-.5,1.26-.72.49-.22.95-.33,1.39-.33.4,0,.71.07.91.22.38.2.56.58.56,1.13,0,.32-.13.69-.39,1.13-.52.61-1.06,1.17-1.6,1.69l-1.13,1.13c-.32.32-.56.48-.74.48-.15,0-.25-.09-.3-.26-.15-.14,0-.43.46-.87.45-.43.74-.75.89-.95.17-.26.35-.52.52-.78.23-.32.35-.56.35-.74,0-.12-.1-.16-.3-.13-.46.15-1.65.74-3.56,1.78-.32.2-.56.33-.74.39-.43.2-1.56.87-3.38,1.99-1.45.93-2.73,1.63-3.86,2.13-.35.17-.67.35-.98.54-.3.19-.57.31-.8.37-.23.06-.67.12-1.3.17-.12,0-.25.02-.39.04ZM91.04,35.69c0-.26.09-.61.26-1.04.09-.15.17-.23.24-.26.07-.03.22-.04.46-.04.17.03.35.01.52-.04l.61-.65c2.46-2.98,3.99-5.51,4.6-7.59.35-1.04.9-2.02,1.65-2.95.35-.4.49-.68.43-.82-.17-.29-.46-.43-.87-.43-.38,0-.73.12-1.06.35-.33.23-.56.54-.67.91-.17.49-.59,1.33-1.26,2.52-.26.43-.59.87-1,1.3-.41.43-.72.67-.95.69-.23.03-.41,0-.52-.06-.12-.07-.17-.19-.17-.37,0-.32.16-.61.48-.87,1.07-1.47,1.72-2.72,1.95-3.73,0-.17-.03-.29-.09-.35-.2,0-.46.03-.78.09-.35.09-.65.02-.91-.19s-.41-.5-.43-.85c0-.12.13-.31.39-.59.26-.27.51-.48.74-.63.35-.2.93-.74,1.76-1.63.82-.88,1.45-1.65,1.89-2.32.23-.29.35-.46.35-.52s-.06-.09-.17-.09c-.15,0-.35.04-.61.13-.38.15-.68.22-.91.22-.2,0-.39-.04-.56-.13-.2,0-.3-.14-.3-.43,0-.23.07-.52.22-.87.23-.12.74-.31,1.52-.59.78-.27,1.29-.44,1.52-.5.4-.2.81-.3,1.21-.3.43,0,.77.11,1.02.33.25.22.35.53.33.93-.09.38-.98,1.47-2.69,3.3-.38.43-.59.74-.65.91v.09c0,.12.09.25.26.39.17.17.33.39.48.65.12.32.33.52.65.61.43.15.85.36,1.24.65.39.29.63.54.72.74.14.32.29.59.43.82.2.23.32.51.35.82l.13.78c.11.46.17.98.17,1.56,0,.67-.1,1.43-.3,2.3-.09.43-.2.85-.35,1.24-.15.39-.29.76-.43,1.11l-.39,1.04c0,.2-.2.55-.61,1.04l-.65.91c-.15.2-.39.38-.74.52l-.78.39c-.49.32-.97.48-1.43.48-.49,0-1.01-.23-1.56-.69-.12-.14-.26-.22-.43-.22-.2,0-.39.09-.56.28-.17.19-.38.45-.61.78-.23.33-.39.53-.48.59l-.35.26c-.15.14-.3.27-.48.39-.43.29-.77.43-1,.43-.26,0-.45-.1-.56-.3-.15-.09-.22-.25-.22-.48ZM98.84,32.13c.38-.35.65-.65.82-.91.23-.4.55-1.19.95-2.34.43-1.24.65-2.28.65-3.12,0-.26-.06-.65-.17-1.17-.09-.23-.17-.35-.26-.35-.15,0-.3.2-.48.61-.15.35-.36.72-.65,1.13-.2.32-.43.74-.69,1.26-.23.58-.43,1.01-.61,1.3l-.61,1.17c-.03.23-.2.48-.52.74-.17.15-.32.35-.43.61l-.26.52c-.35.38-.52.71-.52,1,0,.35.26.52.78.52.38,0,.77-.1,1.17-.3.17-.09.45-.3.82-.65ZM96.63,5.72c0-.14.09-.32.26-.52.4-.49.61-1.19.61-2.08l-.04-1.39c.09-.14.17-.29.26-.43.12-.12.21-.3.28-.54.07-.25.15-.4.24-.48.09-.07.25-.05.48.07.2.09.33.2.39.35.03.12.04.45.04,1l.04,1.47c0,.64-.17,1.19-.52,1.65-.38.55-.65.91-.82,1.08-.23.12-.42.17-.56.17-.43,0-.65-.12-.65-.35ZM118.79,24.41c-1.13-.09-2.08-.13-2.86-.13-.46,0-.74.02-.82.04l-5.07.43-1.08.04c-1.59,0-2.75-.16-3.47-.48-.64-.32-.95-.78-.95-1.39,0-.26.09-.52.26-.78.46-.75.85-1.32,1.17-1.69l.69-.82c.09-.17.4-.62.95-1.34.55-.69.85-1.11.91-1.26.23-.43.52-.65.87-.65.09,0,.25.03.48.09.35.12.52.33.52.65,0,.46-.46,1.16-1.39,2.08-.2.29-.42.59-.65.91-.15.23-.38.55-.69.95-.29.38-.51.75-.65,1.13-.03.09-.04.2-.04.35,0,.23.07.38.22.43.35.06,1.04.07,2.08.04,3.35-.2,6.13-.3,8.33-.3.95,0,1.84.03,2.65.09.12.03.27.04.48.04s.36-.04.48-.13c.12-.14.27-.22.48-.22.32,0,.61.15.87.46.26.3.35.6.26.89-.06.38-.15.65-.28.82-.13.17-.31.26-.54.26s-.56-.09-1-.26c-.32-.09-1.04-.17-2.17-.26Z"/><path class="cls-1" d="M132.65,28.32c0-.4.15-.84.46-1.3.3-.46.59-.78.85-.95.69-.4,1.27-.87,1.73-1.41.46-.53,1.06-1.34,1.78-2.41.35-.46.71-.95,1.08-1.45.38-.51.79-1.06,1.26-1.67.84-1.1,1.6-2.46,2.28-4.08.68-1.62,1.02-2.99,1.02-4.12-.03-.52.03-.93.17-1.21.14-.29.33-.46.56-.52h.09c.35,0,.62.3.82.91,0,.12.01.2.04.26.03.17.04.43.04.78,0,1.33-.46,2.99-1.39,4.99-.41.81-.59,1.24-.56,1.3l.09.17c0,.06.04.1.13.13l1.34.87c1.3.9,3.61,2.12,6.94,3.69l3.34,1.6c2.05.93,3.85,1.5,5.38,1.73,1.27.17,2.26.43,2.95.78.32.15.48.38.48.69,0,.26-.12.49-.37.69-.25.2-.56.27-.93.22-.69.06-2.15-.25-4.38-.91-1.71-.52-3.43-1.18-5.16-1.97-1.73-.79-3.73-1.73-5.98-2.8-.75-.4-1.5-.79-2.26-1.17-1.19-.64-2.1-1.08-2.73-1.34h-.04c-.06,0-.12.03-.17.09-.06.06-.13.13-.22.22-.32.32-.56.59-.74.82-.38.46-1.06,1.37-2.04,2.73-.26.38-1.46,1.88-3.6,4.51l-.17.26-.22.26c-.03.09-.09.17-.17.24-.09.07-.16.12-.22.15-.09.06-.17.11-.24.15-.07.04-.19.06-.37.06-.12,0-.2-.03-.26-.09l-.26-.17c-.23-.2-.35-.45-.35-.74Z"/><path class="cls-1" d="M183.88,23.11c-.35,0-.52-.14-.52-.43,0-.26.14-.53.43-.82.43-.49.9-1.19,1.39-2.08.49-.9.77-1.56.82-2l.09-.35c0-.14-.07-.22-.22-.22-.12,0-.24.02-.37.06-.13.04-.27.09-.41.15-.12.12-.27.17-.48.17-.32,0-.61-.13-.87-.39s-.39-.56-.39-.91c0-.38.13-.69.39-.95.26-.35.48-.56.65-.65.4-.12.69-.17.87-.17.75,0,1.4.31,1.95.93.55.62.75,1.27.61,1.93-.17.95-.61,2-1.32,3.14-.71,1.14-1.42,1.97-2.15,2.49-.12.06-.27.09-.48.09Z"/><path class="cls-1" d="M209.14,30.66c0-.26.22-.49.65-.69l.61-.3v-.65c0-.69.19-1.13.56-1.3.17-.06.27-.12.3-.2.03-.07.04-.24.04-.5,0-.38-.07-.56-.22-.56-.12,0-.35.09-.69.26-.46.2-.84.3-1.13.3s-.51-.07-.65-.22c-.09-.09-.13-.17-.13-.26,0-.12.1-.25.3-.39.2-.14.3-.26.3-.35.14-.23.58-.58,1.3-1.04.67-.43,1.1-.75,1.3-.95v-1.47c0-1.97-.1-3.05-.3-3.25-.06-.09-.2-.09-.43,0-.2.09-.41.13-.61.13-.43,0-.75-.19-.95-.59-.2-.39-.3-.9-.3-1.54,0-1.07.22-1.95.65-2.65.03-.32.22-1.04.56-2.17.12-.4.27-1,.48-1.78-.41-.09-1.1.02-2.08.3-1.01.32-1.68.49-2,.52-.12.09-.23.13-.35.13-.29,0-.55-.16-.78-.48-.23-.32-.35-.65-.35-1,0-.2.04-.36.13-.48.06-.09.12-.13.17-.13.12,0,.23.04.35.13.29.12.48.12.56,0,.38-.03,1.34-.29,2.91-.78.95-.32,1.67-.57,2.15-.76.48-.19,1.06-.5,1.76-.93.58-.32,1.05-.48,1.43-.48.29,0,.52.1.69.3.2.2.26.43.17.69-.09.2-.36.49-.82.87-.46.46-.77.8-.91,1-.15.17-.56.93-1.26,2.26-.75,1.42-1.13,2.46-1.13,3.12-.06.26-.12.52-.17.78-.32,1.01-.36,1.52-.13,1.52,1.88-1.59,3.38-3.11,4.51-4.55.52-.64.92-.95,1.21-.95.17,0,.38.12.61.35.14.15.27.46.39.95.11.49.23,1,.35,1.52l.04.39c.12.43.17.91.17,1.43,0,.98-.23,1.83-.69,2.54-.46.71-1.07,1.08-1.82,1.11-.2,0-.36-.04-.48-.13-.12-.09-.17-.19-.17-.3,0-.29.17-.52.52-.69.69-.35,1.04-.91,1.04-1.69,0-.4-.09-.88-.26-1.43-.09-.43-.17-.79-.24-1.08-.07-.29-.17-.43-.28-.43-.09,0-.25.12-.5.37-.25.25-.54.57-.89.98l-1.21,1.34v2.73c.03.17.04.42.04.74l-.04,1.47c0,.41.09.61.26.61.09,0,.22-.04.39-.13.32-.09.59-.13.82-.13.61,0,.91.19.91.56-.17.43-.56.87-1.17,1.3-.58.38-.98.72-1.21,1.04-.09.09-.2.56-.33,1.41-.13.85-.2,1.42-.2,1.71,0,.38.61.16,1.82-.65,1.1-.75,1.78-1.24,2.04-1.47.4-.4.67-.78.78-1.13.2-.43.38-.67.52-.69.52-.14.78.12.78.78,0,.17-.01.35-.04.52-.06.41-.42.95-1.08,1.63-.67.68-1.39,1.32-2.17,1.91-.78.59-1.34.92-1.69.98-.15.06-.35.17-.61.35l-1,.56c-.84.46-1.53.69-2.08.69-.38,0-.62-.1-.74-.3-.2-.2-.3-.4-.3-.61ZM225.88,21.29c-.03-.09-.04-.42-.04-1l.09-1.3c0-.29-.04-.75-.13-1.39l-.17-1.91c0-.49.07-.82.22-1,.23-.23.48-.35.74-.35.32,0,.58.15.78.43.2.29.27.64.22,1.04.06.17.09.52.09,1.04,0,.58-.03,1.06-.09,1.43-.12.95-.17,1.68-.17,2.17.03.15.06.3.09.48,0,.55-.25.82-.74.82-.23,0-.45-.06-.65-.17-.09-.06-.16-.16-.22-.3ZM229.66,26.67c0-.12.04-.2.13-.26.09-.06.19-.09.3-.09.2,0,.36.06.48.17l1.6.91c.32.15.6.28.85.39.25.12.43.17.54.17.14,0,.23-.09.26-.28s.04-.56.04-1.11l-.04-6.29.04-6.16v-1.82c0-1.5-.01-2.44-.04-2.82-.06-.84-.19-1.47-.39-1.91-.15-.17-.22-.39-.22-.65s.1-.47.3-.63c.2-.16.46-.24.78-.24.35,0,.67.13.95.39.14.12.25.29.3.52.06.17.1.69.13,1.56.03.84.04,2.88.04,6.11v6.33c0,3.5.07,6.04.22,7.63.06.52-.04.95-.3,1.3-.26.35-.61.52-1.04.52-.46,0-.9-.19-1.3-.56-2.26-1.5-3.47-2.57-3.64-3.21Z"/><path class="cls-1" d="M263.41,33.15c-.35-.65-.52-1.28-.52-1.89.06-.09.13-.13.22-.13.2,0,.45.27.74.82l.17.39c.23.49.43.74.61.74.2,0,.42-.33.65-1,.2-.58.35-1.14.43-1.69l.17-.82.22-.91c.06-.29.09-.48.09-.56,0-.61-.38-.85-1.13-.74-.26.03-1.37.04-3.34.04-1.79,0-3.04-.09-3.73-.26-.67-.17-1.15-.41-1.45-.72-.3-.3-.46-.7-.46-1.19,0-.55.2-1.26.61-2.12.12-.26.17-.46.17-.61s-.07-.22-.22-.22l-.48.09c-.98.26-2.7.52-5.16.78-.2.12-.45.06-.74-.15-.29-.22-.43-.46-.43-.72,0-.14.04-.26.13-.35.29-.23,1.94-.59,4.94-1.08.03-.03.51-.17,1.43-.43.87-.26,1.33-.42,1.39-.48.55-1.01,1.1-2.67,1.65-4.99.23-1.59.82-2.78,1.78-3.56.61-.61.97-.91,1.08-.91.2,0,.31.03.33.09.01.06.04.19.09.39.04.2.12.3.24.3.14,0,.36-.07.65-.22.4-.23.95-.35,1.65-.35.61,0,1.2.08,1.78.24.58.16.95.35,1.13.59.26.17.46.34.61.5.14.16.27.38.39.67.12.29.25.69.39,1.21.09.26.13.62.13,1.08l-.04,1.82c0,.38.05.6.15.67.1.07.38.11.85.11.29,0,.61-.13.95-.39.29-.26.59-.36.91-.3.61.09,1.09.24,1.45.46.36.22.54.47.54.76,0,.23-.12.51-.35.82-.29.17-1.08.3-2.39.39l-2.21.17c-.15,0-.25.62-.3,1.86-.03.35-.06.66-.09.93-.03.27-.07.48-.13.63-.09.23-.16.61-.22,1.13l-.22,1.13c-.03.12-.01.2.04.26.06.06.22.13.48.22.09.06.49.15,1.21.26.75.17,1.19.36,1.3.56l.43.35-.3.52c-.17.38-.39.56-.65.56s-.56-.1-.91-.3c-.15-.06-.3-.12-.48-.19-.17-.07-.35-.11-.52-.11s-.43.07-.78.22c-.17.17-.3.41-.39.69-.15.49-.3,1.2-.48,2.12-.41,2.02-.72,3.27-.95,3.73-.12.2-.3.36-.56.48-.26.12-.54.17-.82.17-.12,0-.29-.03-.52-.09-.46-.35-.87-.85-1.21-1.5ZM255.95,10.62c-.35,0-.59-.07-.74-.22-.17-.14-.26-.38-.26-.69,0-.64.3-1.6.91-2.91.17-.35.38-.84.61-1.47.35-.98.71-1.75,1.08-2.3.09-.12.22-.35.39-.72.17-.36.32-.6.43-.72.26-.29.51-.43.74-.43.14,0,.36.09.65.26.17.12.26.3.26.56,0,.29-.26.82-.78,1.6-.55.95-.93,1.71-1.13,2.26l-.35.87c-.41.98-.64,1.52-.69,1.6v.04c0,.12.09.17.26.17s.36-.04.56-.13c.12-.03.43-.14.95-.35l.56-.22c3.12-1.59,5.02-2.53,5.68-2.82,2.05-1.13,3.46-1.69,4.21-1.69.38,0,.68.09.91.26s.35.39.35.65c0,.23-.12.51-.35.82-.17.26-.31.41-.41.43-.1.03-.4.04-.89.04-.61,0-1.22.12-1.84.37-.62.25-1.32.59-2.1,1.02-.55.35-1.07.61-1.56.78l-2.65,1.39c-1.59.81-2.93,1.29-4.03,1.43-.2.06-.46.09-.78.09ZM263.07,25.5c.06,0,.09-.06.09-.17s-.04-.27-.13-.48c-.26-.58-.39-1.14-.39-1.69,0-.29.04-.56.13-.82.14-.43.28-.72.41-.87.13-.14.31-.22.54-.22.32.03.55.17.69.41.14.25.23.63.26,1.15,0,.35.04.74.13,1.17l.13,1c0,.2.04.33.13.39.14.09.45.15.91.17l.35.04c.14,0,.26-.04.35-.13l.17-.69c.38-2.25.56-3.69.56-4.29,0-.23-.03-.4-.09-.52-.12-.06-.3-.09-.56-.09-.35,0-.73.04-1.15.13-.42.09-.72.2-.89.35-.29.15-.68.22-1.17.22-.64,0-1.44.12-2.41.37s-1.57.48-1.8.72c-.38.32-.75,1.16-1.13,2.52,0,.15-.01.29-.04.43,0,.17.03.3.09.39.32.43,1.36.65,3.12.65.95,0,1.52-.04,1.69-.13ZM262.59,18.77c.43-.09.7-.22.8-.41.1-.19.14-.6.11-1.24.03-.29-.07-.81-.3-1.56-.26-.69-.39-1.16-.39-1.39l.09-.17c0-.2-.16-.36-.48-.48-.32-.12-.52-.1-.61.04l-.35.95-.17.65c-.26,1.04-.49,1.81-.69,2.3-.35,1.07-.42,1.62-.22,1.65.12.03.85-.09,2.21-.35ZM265.45,18.17c.35,0,.78-.04,1.3-.13.52-.09.78-.16.78-.22.17-.14.26-.71.26-1.69s-.1-1.86-.3-2.56c-.32-.35-.62-.59-.91-.74-.29-.14-.62-.19-1-.13-.58,0-1.03.04-1.34.13-.32.09-.48.22-.48.39,0,.15.19.25.56.3.23-.03.38.06.46.28.07.22.12.6.15,1.15,0,.41.04.87.13,1.39.03.23.06.48.09.74,0,.15-.03.3-.09.48-.12.26-.12.43,0,.52,0,.06.13.09.39.09Z"/><path class="cls-1" d="M293.14,30.48c-.06-.58-.09-1.2-.09-1.87,0-1.01.04-1.66.13-1.95.23-2.63.35-4.42.35-5.38-.09-2-.13-3.66-.13-4.99v-.48c-.03-1.45-.07-2.14-.13-2.08-.06,0-.19.19-.39.56l-.56,1.04c-.41.75-.82,1.5-1.26,2.26-.49.78-.87,1.45-1.13,2-.26.55-.56,1.33-.91,2.34-.03.23-.19.56-.48,1-.29.43-.52.68-.69.74-.75,0-1.13-.27-1.13-.82,0-.43.19-.9.56-1.39l.82-1.95c.29-.72.59-1.37.89-1.93.3-.56.73-1.25,1.28-2.06.23-.32.64-1.23,1.21-2.73.55-1.47,1.03-2.44,1.43-2.91.03-.06.3-.46.82-1.21.4-.52.71-1,.91-1.43.14-.58.45-.87.91-.87.2,0,.45.1.74.3.14.09.22.22.22.39,0,.29-.3.91-.91,1.86-.61.95-.97,1.63-1.08,2.04l.95.82-.09.74-.09,3.9c-.03,2.57-.07,4.71-.11,6.4-.04,1.69-.11,2.6-.2,2.71-.09.67-.12,1.07-.09,1.21,0,.17.09.35.26.52.26.26.39.67.39,1.21,0,.32-.07.65-.22,1,0,.06-.01.1-.04.13-.2.87-.39,1.4-.56,1.6-.23.29-.46.43-.69.43-.17,0-.39-.09-.65-.26-.12-.03-.2-.33-.26-.91ZM314.69,28.53c-.26-.72-.54-1.26-.82-1.6-.29-.35-.71-.52-1.26-.52-1.27,0-2.99.54-5.16,1.6-2.25,1.07-3.51,1.65-3.77,1.73-.26.09-.49.13-.69.13-.58,0-.87-.38-.87-1.13.38-.64,1.27-1.17,2.69-1.6,1.3-.4,2.2-.74,2.69-1,.49-.38,1.4-.77,2.73-1.19,1.33-.42,2.46-.63,3.38-.63.2,0,.45.03.74.09.4.17.55.61.43,1.3v.17c0,.26.06.45.17.56.09.03.16.07.22.13.03,0,.06-.06.09-.17.03-.06.04-.59.04-1.6,0-2.08-.03-4.42-.09-7-.06-2.59-.13-4.85-.22-6.79-.03-.61-.06-1.09-.11-1.45-.04-.36-.14-.67-.28-.91-.15-.25-.35-.57-.61-.98-.35-.43-.58-.68-.69-.74-.12-.06-.48-.07-1.08-.04-.67.03-1.69.3-3.08.82-1.3.49-2.24.81-2.82.95-1.53.38-2.76.98-3.69,1.82-.43.38-.69.88-.78,1.52-.06.26-.09.67-.09,1.21l.04,2.12c0,.55-.02.98-.04,1.3-.32,2.66-.48,5.83-.48,9.5,0,.75-.03,1.36-.09,1.82-.15.49-.35.8-.61.91-.17.06-.29.09-.35.09-.2,0-.38-.06-.54-.2-.16-.13-.27-.3-.33-.5-.03-.2-.04-.61-.04-1.21,0-1.19.12-3.31.35-6.38.2-2.78.3-4.77.3-5.98,0-.95-.04-1.75-.13-2.39l-.09-1.47c0-.35.03-.64.09-.87.12-.38.45-.56,1-.56.29,0,.59-.12.91-.35.58-.49,1.01-.81,1.3-.95.38-.2.73-.37,1.06-.5.33-.13.72-.25,1.15-.37,3.21-1.24,5.74-1.95,7.59-2.12.61,0,1,.03,1.19.09.19.06.46.15.8.26.2.06.74.81,1.6,2.26l.35.65.13,2.52c0,2.4.04,5.13.11,8.2.07,3.06.11,4.99.11,5.77,0,1.71-.07,2.98-.22,3.82.03.35-.07.66-.3.93-.23.27-.49.41-.78.41-.15,0-.29-.04-.43-.13-.26-.23-.51-.68-.74-1.34ZM307.06,14.61l.09-.95c0-.09-.01-.15-.04-.19-.03-.04-.09-.05-.17-.02-.75.06-1.46.26-2.12.61-.2.17-.39.26-.56.26-.26,0-.48-.17-.65-.52-.12-.2-.17-.4-.17-.61,0-.23.12-.42.35-.56l.13-.09c.14-.2.64-.39,1.47-.56.66-.14,1.16-.3,1.5-.48.33-.17.46-.45.37-.82.06-.58.14-1.06.26-1.43.06-.2.17-.37.33-.5.16-.13.34-.19.54-.19s.39.07.56.22c.09.03.13.12.13.26,0,.17-.03.4-.09.69,0,.15-.02.29-.04.43,0,.2.07.3.22.3.12,0,.33-.1.65-.3.52-.2,1.56-.74,3.12-1.6.23-.12.39-.17.48-.17.17,0,.32.07.43.2.12.13.17.28.17.46s-.07.38-.22.61c-.26.23-.95.67-2.08,1.3-1.13.64-2.05,1.13-2.78,1.47-.2.2-.36.65-.48,1.34-.17.78-.3,1.23-.39,1.34-.15.15-.29.22-.43.22-.17,0-.32-.06-.43-.17-.09-.09-.13-.26-.13-.52ZM306.63,23.67c-.09-.38-.15-1.14-.17-2.3,0-.64-.01-1.08-.04-1.34,0-.55,0-1-.02-1.37-.01-.36,0-.63.02-.8,0-.26.09-.48.26-.65.17-.2.45-.29.82-.26.2.09.81-.03,1.82-.35.52-.17.97-.26,1.34-.26.23,0,.46.06.69.17.4.41.61.82.61,1.26,0,.61-.36,1.27-1.08,2-.58.55-.72.82-.43.82.14-.03.27-.04.39-.04.32-.03.57,0,.76.09.19.09.28.23.28.43s-.16.49-.48.87c-.38.38-.94.72-1.69,1.04-.72.29-1.24.56-1.56.82-.2.38-.52.51-.95.39-.35-.09-.54-.26-.56-.52ZM309.49,19.08c.09-.17.13-.3.13-.39,0-.14-.13-.19-.39-.13l-.3.13c-.43.2-.65.56-.65,1.08,0,.26.01.41.04.43.06.06.1.07.13.04.35-.26.69-.65,1.04-1.17Z"/><path class="cls-1" d="M331.8,28.32c0-.4.15-.84.46-1.3.3-.46.59-.78.85-.95.69-.4,1.27-.87,1.73-1.41.46-.53,1.06-1.34,1.78-2.41.35-.46.71-.95,1.08-1.45.38-.51.79-1.06,1.26-1.67.84-1.1,1.6-2.46,2.28-4.08.68-1.62,1.02-2.99,1.02-4.12-.03-.52.03-.93.17-1.21.14-.29.33-.46.56-.52h.09c.35,0,.62.3.82.91,0,.12.01.2.04.26.03.17.04.43.04.78,0,1.33-.46,2.99-1.39,4.99-.41.81-.59,1.24-.56,1.3l.09.17c0,.06.04.1.13.13l1.34.87c1.3.9,3.61,2.12,6.94,3.69l3.34,1.6c2.05.93,3.85,1.5,5.38,1.73,1.27.17,2.26.43,2.95.78.32.15.48.38.48.69,0,.26-.12.49-.37.69-.25.2-.56.27-.93.22-.69.06-2.15-.25-4.38-.91-1.71-.52-3.43-1.18-5.16-1.97-1.73-.79-3.73-1.73-5.98-2.8-.75-.4-1.5-.79-2.26-1.17-1.19-.64-2.1-1.08-2.73-1.34h-.04c-.06,0-.12.03-.17.09-.06.06-.13.13-.22.22-.32.32-.56.59-.74.82-.38.46-1.06,1.37-2.04,2.73-.26.38-1.46,1.88-3.6,4.51l-.17.26-.22.26c-.03.09-.09.17-.17.24-.09.07-.16.12-.22.15-.09.06-.17.11-.24.15-.07.04-.19.06-.37.06-.12,0-.2-.03-.26-.09l-.26-.17c-.23-.2-.35-.45-.35-.74Z"/><path class="cls-1" d="M383.19,30.48c-.1-.09-.17-.22-.2-.39-.09-.26-.13-1.07-.13-2.43-.03-2.69-.06-4.43-.11-5.23-.04-.79-.18-1.89-.41-3.27-.17-1.13-.32-1.86-.43-2.21-.12-.35-.25-.52-.39-.52-.12,0-.4.22-.87.67-.46.45-.84.87-1.13,1.28-.52.87-.88,1.4-1.08,1.6-.2.23-.42.35-.65.35-.43,0-.65-.27-.65-.82,0-.2.15-.59.46-1.17.3-.58.61-1.03.93-1.34.14-.14.38-.54.69-1.19.32-.65.65-1.35,1-2.1.98-2.31,1.59-3.47,1.82-3.47.17-.09.46-.22.85-.39.39-.17.63-.22.72-.13.06.06.11.16.15.3.04.15.05.32.02.52,0,.26-.13.62-.39,1.08-.26.46-.55.93-.87,1.41-.32.48-.54.83-.65,1.06h.56c.32,0,.52.1.61.3.26.2.43.45.52.74.09.29.17.9.26,1.82.06.67.13,1.19.22,1.58.09.39.14.59.17.59.09,0,.27-.52.56-1.56.29-.52.61-.91.98-1.17.36-.26.73-.38,1.11-.35.26-.03.71.22,1.34.76.64.54.98.95,1.04,1.24.06.17.2.54.43,1.08.26.58.42,1.07.48,1.47.06.26.11.48.15.65.04.17.09.26.15.26s.23-.19.52-.56c.43-.64.79-.95,1.08-.95.12,0,.22.07.3.22.06.06.09.19.09.39,0,.23-.03.42-.09.56l-.65,1.08-.69,1.04c-.41.55-.61,1.26-.61,2.13,0,.49-.08,1.16-.24,1.99-.16.84-.31,1.4-.46,1.69-.12.2-.27.37-.48.5-.2.13-.42.19-.65.19-.26,0-.46-.07-.61-.22-.12-.23-.17-.4-.17-.52s.08-.29.24-.52c.16-.23.27-.46.33-.69.06-.2.1-.42.13-.65.03-.23.03-.43,0-.61l-1.04.91c-.98,1.01-1.65,1.52-2,1.52-.06,0-.12-.03-.17-.09-.06-.06-.13-.13-.22-.22-.12-.12-.25-.19-.39-.22l-.09.65c.03.38-.05.69-.24.95-.19.26-.46.43-.8.52-.15,0-.27-.04-.37-.13ZM386.66,25.86c1.11-1.06,1.71-1.71,1.8-1.97.09-.26.13-.53.13-.82,0-.32-.06-.49-.17-.52-.26.09-.65.33-1.17.74l-.91.69c-1.16.98-1.73,1.73-1.73,2.25,0,.81.06,1.21.17,1.21.14,0,.77-.53,1.89-1.58ZM385.81,22.2c.64-.49,1.07-.78,1.3-.87.38-.23.75-.45,1.13-.65l.09-.17c-.03-.14-.07-.29-.13-.43-.26-.84-.52-1.39-.78-1.65-.26-.17-.49-.26-.69-.26-.23,0-.43.16-.61.48-.49.61-.81,1.2-.95,1.78l-.13.48-.09.48-.26,1.52c.23-.06.61-.29,1.13-.69ZM403.61,28.71c-.36-.29-.69-.69-.98-1.21-.32-.43-.48-.85-.48-1.26,0-.2.03-.33.09-.39s.13-.09.22-.09c.23,0,.46.16.69.48.4.75.82,1.13,1.26,1.13.46,0,.82-.43,1.08-1.3.58-1.45,1.01-3.11,1.3-4.99.06-.2.09-.45.09-.74,0-.2-.03-.33-.09-.39-1.85-.69-3.41-1.17-4.68-1.43-.14-.03-.26-.13-.35-.3-.09-.17-.13-.35-.13-.52,0-.12.03-.23.09-.35.29-.29.72-.43,1.3-.43.4,0,.87.09,1.39.26l.87.35c.75.32,1.3.49,1.65.52.12,0,.2,0,.24-.02.04-.01.08-.09.11-.24.12-.4.2-1.08.26-2.02.06-.94.09-1.84.09-2.71,0-.93-.03-1.49-.09-1.69-.06-.14-.16-.22-.3-.22-.17.03-.55.2-1.13.52l-1.17.56c-.26.15-.63.27-1.11.37-.48.1-.77.14-.89.11-.17-.06-.35-.11-.52-.15-.17-.04-.35-.12-.52-.24-.17-.12-.38-.32-.61-.61-.2-.2-.36-.55-.48-1.04-.12-.49-.17-1.01-.17-1.56,0-.75.1-1.32.3-1.69.23-.26.48-.39.74-.39.29,0,.56.1.8.3.25.2.37.42.37.65,0,.17-.06.32-.17.43-.09.17-.13.41-.13.69,0,.43.08.85.24,1.26.16.41.3.56.41.48.52,0,1.29-.29,2.3-.87,1.04-.55,1.84-.82,2.39-.82.38.06.65.19.82.39.17.2.33.62.48,1.26.2.67.27,1.63.22,2.91l-.26,3.17-.22,1.56c.29.23.51.35.65.35.2,0,.91.3,2.12.91,1.21.61,2.02.98,2.43,1.13.2.03.37.13.5.3.13.17.19.36.19.56,0,.32-.12.59-.35.82-.26.32-.52.48-.78.48-.29,0-.59-.17-.91-.52-.32-.32-1.02-.73-2.1-1.24-1.08-.51-1.73-.72-1.93-.63l-.09.39c-.17.49-.38,1.4-.61,2.73-.75,3.01-1.53,4.74-2.34,5.2-.32.26-.64.35-.95.26-.41-.03-.79-.19-1.15-.48Z"/><path class="cls-1" d="M427.51,31.09c-.23-.64-.3-1.03-.22-1.17.03-.2.09-.36.2-.48.1-.12.2-.17.28-.17s.17.06.24.17c.07.12.11.26.11.43.06.35.11.59.15.74.04.15.12.22.24.22.2,0,.45-.32.74-.95l.35-.69c.03-.14.27-.72.74-1.73.43-.92.69-1.55.78-1.86.26-.78.48-1.73.65-2.86.17-1.13.26-2.14.26-3.04,0-.52-.03-.93-.09-1.24-.06-.3-.13-.46-.22-.46s-.25.3-.48.91c-.38,1.04-.84,2.07-1.39,3.08-.72,1.39-1.33,2.34-1.82,2.86-.49.52-.95.74-1.39.65-.15-.03-.28-.16-.41-.39-.13-.23-.2-.51-.2-.82,0-.23.27-.61.82-1.13.55-.55.85-.88.91-1,.72-1.01,1.58-2.86,2.56-5.55.2-.32.3-.64.3-.95,0-.58-.26-.95-.78-1.13-.26,0-.55.45-.87,1.34-.15.41-.37.82-.67,1.26-.3.43-.56.71-.76.82-.17.12-.32.32-.43.61-.32.58-.61.94-.87,1.08-.09.03-.19.06-.3.09-.12,0-.25-.09-.39-.26-.12-.17-.16-.35-.13-.52.06-.17.25-.49.56-.95l.56-.78c.35-.46.61-.85.8-1.17.19-.32.37-.78.54-1.39.12-.4.17-.64.17-.69,0-.17-.06-.3-.17-.37-.12-.07-.39-.2-.82-.37-.52-.09-.78-.3-.78-.65,0-.17.09-.43.26-.78.12-.14.21-.22.28-.24.07-.01.27,0,.59.02.72.09,1.14.12,1.26.09.11,0,.22-.16.3-.48.2-.52.43-1.56.69-3.12.09-.23.2-.42.35-.56s.32-.22.52-.22c.14,0,.32.07.52.22.23.17.32.39.26.65,0,.23-.15.9-.43,2-.23.72-.38,1.29-.43,1.69-.09.26-.13.45-.13.56,0,.06.09.16.26.3.14.15.39.36.74.65.35.29.56.45.65.48.29,0,.62.57,1,1.71.38,1.14.61,2.26.69,3.36.06.4.09.75.09,1.04,0,1.3-.19,2.84-.59,4.62-.39,1.78-.82,3-1.28,3.66-.09.12-.41.78-.95,2-.49,1.1-.81,1.71-.95,1.82-.41.35-.82.52-1.26.52-.29,0-.51-.09-.65-.26-.15-.17-.33-.58-.56-1.21ZM441.77,12.57c-.2,0-.39-.06-.56-.2-.17-.13-.28-.31-.3-.54l-.09-1.26-.09-1.04c-.06-.55-.17-1.04-.33-1.47-.16-.43-.46-1.1-.89-2-.29-.58-.43-.93-.43-1.04-.03-.14.08-.28.33-.41.25-.13.5-.19.76-.19.2,0,.33.03.39.09.23.2.45.55.65,1.04.2.49.33.78.39.87.55,1.21.88,2.3,1,3.25.03.29.04.67.04,1.13,0,.81-.12,1.33-.35,1.56-.15.15-.32.22-.52.22ZM450.27,33.09c0-.12.05-.22.15-.3.1-.09.24-.13.41-.13.14,0,.22-.04.22-.13s-.07-.39-.22-.91l-.22-.82c-.29-.9-.45-1.59-.48-2.08-.03-.23-.12-.35-.26-.35-.12,0-.25.04-.39.13-.46.38-.94.77-1.43,1.17-1.07.95-1.6,1.45-1.6,1.47-.15.23-.37.43-.67.61-.3.17-.6.26-.89.26-.38,0-.65-.16-.82-.48-.03-.03-.04-.1-.04-.22s.04-.27.13-.48l1.08-2.12c.06-.17.04-.3-.04-.39-.06,0-.12-.02-.2-.07-.07-.04-.12-.08-.15-.11-.12-.09-.22-.17-.3-.26-.09-.09-.15-.19-.17-.3-.03-.09-.04-.23-.04-.43.03-.29.06-.56.09-.82.03-.29.05-.73.06-1.32.01-.59.06-.99.13-1.19.07-.2.24-.3.5-.3l.43.09.52.17c.09,0,.14-.04.15-.13.01-.09.02-.2.02-.35,0-.29.06-.55.17-.78.12-.23.25-.35.39-.35.2,0,.49.17.87.52l.56-.22c.29-.14.53-.22.74-.22.52,0,.88.36,1.08,1.08,0,.26-.4.9-1.19,1.93-.8,1.03-1.34,1.79-1.63,2.28-.2.49-.17.74.09.74.14,0,.4-.17.78-.5.38-.33.61-.5.69-.5l.39-.26.43-.3c.4-.2.71-.3.91-.3s.42.07.65.22c.23.17.36.33.39.48l.26,1.26c.09.52.22,1.06.41,1.63.19.56.34.86.46.89.14.09.43-.3.87-1.17.4-.93.75-1.86,1.04-2.82.23-.81.38-1.48.46-2.02.07-.53.14-1.55.19-3.06.12-.81.14-1.53.09-2.17-.06-.46-.14-.76-.24-.89-.1-.13-.34-.33-.72-.59l-.56-.22h-.17l-.22-.04h-.69c-.64,0-1.45.33-2.43,1-1.07.69-1.69,1.07-1.86,1.13-.43.15-1.13.54-2.08,1.19-.95.65-1.56.98-1.82.98l-.82.3c-.58.2-1.11.3-1.6.3-.29,0-.51-.09-.65-.26-.15-.17-.25-.46-.3-.87.06-.49.45-1.36,1.17-2.6.66-1.1,1.08-1.88,1.26-2.34l.52-.95c.35-.64.53-1.07.56-1.3.06-.4.15-.67.28-.8s.35-.2.67-.2c.55,0,.82.25.82.74-.03.15-.06.3-.09.48-.12.52-.54,1.46-1.26,2.82-.64,1.21-1.07,2.1-1.3,2.65,0,.29.55.17,1.65-.35.46-.2.82-.42,1.08-.65l2.08-1.26c1.13-.69,1.86-1.17,2.21-1.43.17-.09.61-.18,1.3-.28.69-.1,1.23-.15,1.6-.15.43,0,.98.2,1.63.61.65.41,1.11.82,1.37,1.26.38.64.56,1.53.56,2.69,0,.49-.04.98-.13,1.47-.06.38-.09.84-.09,1.39,0,1.1-.27,2.53-.8,4.29-.54,1.76-1.08,2.96-1.63,3.6-.12.15-.23.3-.35.48-.2.32-.55.67-1.04,1.04-.32.23-.67.43-1.04.61-.38.17-.72.26-1.04.26s-.55-.07-.69-.22c-.15-.14-.22-.29-.22-.43ZM444.2,12.14c-.38,0-.69-.26-.95-.78-.06-.17-.09-.29-.09-.35,0-.09.04-.2.11-.35.07-.14.18-.32.33-.52.14-.14.27-.5.37-1.06.1-.56.15-1.13.15-1.71,0-.78-.1-1.26-.3-1.43h-.09c-.12,0-.27.07-.48.22-.2.15-.36.32-.48.52-.26.43-.43.51-.52.22l-.04-.17c0-.23.14-.53.43-.91.06-.06.3-.35.74-.87.17-.23.38-.46.61-.69s.49-.42.78-.56c2.37-1.3,3.87-2.05,4.51-2.26.35-.12.71-.17,1.08-.17.61,0,1.08.17,1.43.52s.52.8.52,1.34c0,.41-.12.88-.35,1.43-.03.09-.19.45-.48,1.08-.52,1.19-.88,1.97-1.08,2.34-.72,1.21-1.6,2.05-2.65,2.52-.38.15-.88.41-1.52.78-.81.43-1.33.68-1.56.74-.17.09-.33.13-.48.13ZM446.07,25.41c-.06-.43-.19-.51-.39-.22l-.09.13c-.03.09-.04.2-.04.35,0,.38.09.56.26.56s.26-.27.26-.82ZM446.61,5.57c.36-.77.54-1.19.54-1.28,0-.03-.02-.04-.04-.04-.15,0-.43.2-.87.61-.29.29-.46.51-.52.65-.09.17-.13.41-.13.69,0,.41.07.72.22.95.17-.29.44-.82.8-1.58ZM447.67,8.06c.66-.52,1.03-.78,1.08-.78.23-.09.59-.69,1.08-1.8.49-1.11.75-1.84.78-2.19-.03-.12-.09-.21-.2-.28-.1-.07-.22-.11-.37-.11-.12,0-.22.03-.3.09-.09.06-.15.15-.17.26-.03.23-.33.74-.91,1.52-.58.81-.91,1.4-1,1.78-.03.23-.26.67-.69,1.3-.15.23-.27.44-.37.63-.1.19-.11.33-.02.41.03,0,.39-.27,1.08-.82ZM447.76,25.28c.12,0,.25-.16.39-.48.09-.14.13-.27.13-.39,0-.17-.07-.3-.22-.37-.15-.07-.3-.05-.48.06-.09.2-.13.39-.13.56,0,.23.06.41.17.52.06.03.1.06.13.09Z"/><path class="cls-1" d="M490.02,33.17c-3.18-.78-4.9-1.26-5.16-1.43-1.19-.32-2.78-.94-4.77-1.86-.52-.23-.82-.35-.91-.35-.23.12-.87.65-1.91,1.6-1.04.98-1.63,1.52-1.78,1.6-.38.35-.82.66-1.32.93-.51.27-.95.41-1.32.41-.17,0-.33-.04-.48-.13-.26-.17-.39-.42-.39-.74,0-.52.14-.78.43-.78.11,0,.26.04.43.13.06.09.13.13.22.13.17,0,.52-.19,1.04-.56.43-.35,1.09-.95,1.97-1.8.88-.85,1.32-1.32,1.32-1.41,0-.17-.56-.43-1.69-.78-.81-.17-1.21-.4-1.21-.69,0-.09-.03-.13-.09-.13s-.17.09-.35.26l-.17.22c-.58.87-1.29,1.85-2.15,2.95-.85,1.1-1.34,1.68-1.45,1.73-.15.03-.29.06-.43.09-.23,0-.41-.08-.54-.24-.13-.16-.2-.35-.2-.59s.06-.46.2-.69c.13-.23.31-.4.54-.52.29-.2.58-.48.87-.85.29-.36.55-.72.78-1.06.23-.32.45-.62.65-.91.81-.98,1.63-2.61,2.47-4.88.84-2.27,1.26-4,1.26-5.18l.17-1.65c.09-.75.13-1.36.13-1.82,0-.78.08-1.29.24-1.52.16-.23.56-.43,1.19-.61.12,0,.2-.03.26-.09.81-.17,1.97-.56,3.47-1.17,1.39-.55,2.52-.95,3.38-1.21.43-.12,1.03-.35,1.78-.69l1.52-.65c.61-.2.98-.3,1.13-.3.17,0,.4.12.69.35.32.29.48.67.48,1.13,0,.75-.38,1.6-1.13,2.56-.46.58-.77.94-.93,1.08-.16.15-.48.27-.98.39-1.21.41-2.75,1.33-4.6,2.78-.09.15-.19.44-.3.89-.12.45-.15.73-.09.85.32.4.84.09,1.56-.95.12-.26.35-.48.72-.65.36-.17.74-.25,1.15-.22.12,0,.2.1.26.3,0,.2-.09.43-.26.69-.17.35-.59.82-1.26,1.43-.67.61-1.2,1-1.6,1.17-.38.17-.68.26-.91.26-.32,0-.58-.14-.78-.43-.15-.14-.25-.27-.3-.39-.03-.06-.04-.36-.04-.91-.03-.29-.07-.51-.11-.67-.04-.16-.11-.24-.2-.24-.06,0-.3.07-.74.22-.43.2-.74.3-.91.3-.15,0-.3-.09-.48-.26-.26-.23-.39-.49-.39-.78,0-.2.06-.38.17-.54.12-.16.27-.25.48-.28.29-.09.65-.2,1.08-.33.43-.13.8-.3,1.11-.52s.44-.48.41-.8c-.03-.11.04-.4.22-.87.29-.58.33-.92.13-1.04-.17,0-.69.17-1.56.52l-1.39.56-.3.69c-.41.93-.69,2-.87,3.21-.17,1.27-.38,2.28-.61,3.04-.61,2.02-1.01,3.28-1.21,3.77-.35.78-.52,1.26-.52,1.43,0,.12.15.26.46.43.3.17.47.26.5.26.2.12.63.29,1.28.52.65.23,1.06.35,1.24.35.09.06.27-.07.54-.39.27-.32.53-.69.78-1.13.25-.43.38-.82.41-1.17-.03-.09-.1-.13-.22-.13-.2,0-.41.1-.61.3-.49.41-.84.67-1.04.78-.55.35-.95.52-1.21.52-.23,0-.41-.1-.52-.3-.23-.23-.3-.52-.22-.87.06-.38.36-1.13.91-2.26.09-.14.22-.45.39-.91.14-.49.3-.82.48-1s.39-.26.65-.26c.2,0,.4.07.59.2s.31.31.37.54v.09c0,.12-.1.43-.3.95-.17.29-.26.51-.26.65,0,.09.04.13.13.13.14,0,.36-.1.65-.3l.26-.13c.49-.32.94-.48,1.34-.48s.69.23.87.69c0,.35-.23,1.08-.69,2.19-.46,1.11-.87,1.9-1.21,2.36-.26.38-.39.61-.39.69.46.41,1.45.9,2.97,1.47,1.52.58,2.91,1,4.19,1.26l.87.22,2.99.78c1.94.52,3.34.87,4.21,1.04.38,0,.69.09.93.26s.37.39.37.65-.13.48-.39.67c-.26.19-.55.28-.87.28-.12,0-.26-.03-.43-.09-.26-.12-1.97-.58-5.12-1.39ZM481,8.76c0-.26.02-.53.06-.82.04-.29.09-.58.15-.87.17-.87.26-1.5.26-1.91,0-.17-.03-.4-.09-.69-.12-.43-.17-.81-.17-1.13,0-.29.12-.58.35-.87.23-.23.45-.35.65-.35.23,0,.45.13.65.39.14.2.22.75.22,1.65,0,.67.01,1.04.04,1.13.03.15.09.22.17.22.23,0,.85-.2,1.87-.61.9-.38,1.6-.62,2.12-.74.09-.03.2-.04.35-.04.35,0,.55.2.61.61v.13c0,.46-.19.78-.56.95-.09.03-.22.04-.39.04-.38.09-.88.26-1.52.52-.81.32-1.32.51-1.52.56-.67.23-1.14.46-1.43.69-.23.17-.32.45-.26.82.06.29.01.56-.13.82-.15.26-.32.45-.52.56-.61,0-.91-.36-.91-1.08ZM485.9,12.75c.58-.06,1.1-.33,1.56-.82.2-.17.46-.51.76-1,.3-.49.46-.82.46-1,0-.06-.04-.09-.13-.09-.23,0-.64.15-1.21.43-.49.26-1.32.59-2.47,1l-1.52.52v1.21c0,.38.06.56.17.56s.4-.16.87-.48c.29-.12.79-.23,1.52-.35ZM484.34,26.49c0-.2.1-.58.3-1.13.14-.43.22-.74.22-.91,0-.14-.04-.44-.11-.89-.07-.45-.11-.8-.11-1.06s.01-.46.04-.61c-.03-.32.05-.58.24-.78.19-.2.41-.3.67-.3.35,0,.58.16.69.48.06.17.11.26.15.26s.15-.06.33-.17c.64-.38,1.21-.56,1.73-.56.64,0,1.13.27,1.47.8.35.54.55,1.31.61,2.32l.04,1.04c.09.03.2.04.35.04.32,0,.61-.09.87-.26.23-.12.64-.42,1.21-.91.58-.49.92-.81,1.04-.95.26-.29.53-.43.82-.43.4,0,.62.3.65.91-.52.95-1.27,1.73-2.25,2.34-1.21.84-2.18,1.21-2.91,1.13-.49-.09-.83-.29-1.02-.61-.19-.32-.33-.94-.41-1.86-.06-.55-.12-.91-.17-1.08-.09-.32-.17-.51-.26-.56-.12-.14-.3-.17-.54-.06-.25.1-.6.27-1.06.5-.26.17-.41.33-.43.48-.09.38-.19,1.07-.3,2.08-.15,1.01-.39,1.53-.74,1.56-.75.06-1.13-.2-1.13-.78Z"/><path class="cls-1" d="M519.18,31.78c-.23-.49-.38-.87-.43-1.13v-.09c0-.14.07-.25.22-.3l.09-.04c.12,0,.25.07.41.22.16.15.24.27.24.39,0,.2.3.65.91,1.34.61.69,1,1.04,1.17,1.04.23,0,.35-.55.35-1.65,0-3.09.06-5.29.17-6.59.06-.61.06-1.05,0-1.32-.06-.27-.17-.41-.35-.41-.15,0-.51.22-1.08.65-1.1.69-2.15,1.23-3.17,1.6-1.01.38-2.54.81-4.6,1.3-.46.09-.84.13-1.13.13-.26,0-.42-.01-.48-.04-.15-.06-.26-.16-.35-.3-.12-.17-.22-.26-.3-.26-.17,0-.29.8-.35,2.39-.09,1.62-.39,2.63-.91,3.04-.15.12-.29.17-.43.17-.17,0-.33-.13-.48-.39-.03-.29-.04-.74-.04-1.34,0-1.42.13-3.12.39-5.12.35-3.06.53-4.94.56-5.64.09-2.17.23-3.57.43-4.21.2-.67.55-1,1.04-1,.29.03.51.13.65.3.14.17.22.39.22.65,0,.29-.07.55-.22.78-.17.32-.3.7-.39,1.15s-.13.85-.13,1.19l-.17,2.86c-.09.43-.1,1.11-.04,2.04.06.84.06,1.43,0,1.78l-.09.39c0,.15.06.22.17.22s.27-.04.48-.13c.23-.14,1.36-.4,3.38-.78l1.52-.39h-.04c.09-.09.13-.62.13-1.6,0-.58-.03-.92-.09-1.04-.06-.12-.2-.14-.43-.09l-1.99.52c-.87.17-1.39.23-1.56.17-.23-.12-.35-.33-.35-.65,0-.2.04-.4.13-.61.09-.29.21-.48.37-.56.16-.09.37-.13.63-.13h.61c.32,0,.56-.03.74-.09.4-.14.72-.23.95-.26.32-.09.52-.17.61-.26.09-.09.13-.32.13-.69,0-1.07.03-1.78.09-2.12.06-.23.19-.36.39-.39.35-.09.62.02.82.33.2.3.32.74.35,1.32l.04.87c.14,0,.58-.07,1.3-.22.49-.14.9-.22,1.21-.22.46,0,.75.2.87.61l.04.17c0,.17-.06.35-.17.52-.12.17-.25.29-.39.35l-1.17.22c-.55.09-.94.19-1.17.3-.23.12-.36.35-.39.69-.12.35-.17.84-.17,1.47,0,.41.03.64.09.69.06.03.33-.09.82-.35.49-.26,1.1-.64,1.82-1.13.64-.4,1.06-.78,1.26-1.13.2-.35.3-.87.3-1.56l-.09-1.56c-.09-1.1-.19-1.69-.3-1.78-.17-.2-.6-.46-1.28-.76-.68-.3-1.19-.47-1.54-.5-1.71-.17-3.28.72-4.73,2.69-.69.95-1.16,1.34-1.39,1.17-.12-.11-.17-.38-.17-.78,0-.32.04-.62.11-.91.07-.29.17-.48.28-.56.06-.06.18-.26.37-.61.19-.35.4-.58.63-.69.64-.55,1.41-1.03,2.32-1.43.91-.4,1.79-.61,2.62-.61.75,0,1.63.24,2.62.72,1,.48,1.58,1,1.76,1.58.17.58.3,1.54.39,2.88.09,1.34.13,2.74.13,4.19,0,1.56-.03,2.62-.09,3.17-.03.09-.04.93-.04,2.52-.03,4.11-.15,6.22-.35,6.33-.35.55-.69.82-1.04.82-.29,0-.67-.2-1.13-.61-.81-.72-1.52-1.69-2.13-2.91ZM512.76,14.39c-.38,0-.56-.1-.56-.3,0-.14.11-.31.33-.5.22-.19.47-.34.76-.46.43-.23,1.15-.77,2.15-1.63,1-.85,1.5-1.34,1.5-1.45,0-.06-.07-.09-.22-.09-.26,0-.68.07-1.26.22-1.16.2-1.97.3-2.43.3-.78,0-1.33-.16-1.65-.48-.17-.23-.25-.55-.22-.95-.03-.38.25-1.11.82-2.21.38-.75.64-1.36.78-1.82,0-.06.12-.35.35-.87.23-.55.35-.84.35-.87.03-.26.15-.48.37-.67s.44-.28.67-.28c.26,0,.48.1.65.3.09.12.13.3.13.56,0,.67-.28,1.39-.82,2.17-.2.26-.48.74-.82,1.43-.35.69-.55,1.17-.61,1.43,0,.09-.02.19-.04.3,0,.23.16.35.48.35.72,0,1.84-.23,3.34-.69.58-.17,1.06-.26,1.43-.26.67,0,1,.26,1,.78,0,.17-.07.45-.22.82-.69,1.27-1.68,2.39-2.95,3.34-.75.67-1.55,1.13-2.39,1.39-.38.09-.68.13-.91.13Z"/><path class="cls-1" d="M536.15,23.8c0-.32.13-.61.39-.87.4-.4,1.08-.72,2.04-.95.2-.17.49-.32.87-.43.38-.12.72-.17,1.04-.17.26,0,.43.06.52.17.29.17.43.36.43.56,0,.32-.32.59-.95.82-.87.26-1.69.65-2.47,1.17-.4.23-.78.35-1.13.35-.2,0-.39-.06-.56-.17-.12-.12-.17-.27-.17-.48ZM537.59,33c-.2,0-.38-.07-.52-.22-.15-.14-.22-.35-.22-.61,0-.43.12-.74.35-.91.72-.61,1.52-1.39,2.41-2.34.88-.95,1.5-1.73,1.84-2.34.17-.23.35-.35.52-.35.09,0,.22.06.39.17.17.03.26.23.26.61,0,.46-.1.71-.3.74-.23.09-.38.25-.43.48.03.15-.05.35-.24.61-.19.26-.51.64-.98,1.13-.78.84-1.47,1.65-2.08,2.43-.26.41-.59.61-1,.61ZM540.75,17.99c-.12,0-.41-.06-.87-.17-.41-.17-.78-.27-1.13-.3-.9-.09-1.34-.38-1.34-.87,0-.29.19-.65.56-1.08.23-.09.42-.13.56-.13s.3.04.46.11c.16.07.31.14.46.2.32.2.59.3.82.3.4.12.73.3.98.54.25.25.37.48.37.72,0,.15-.07.32-.22.52-.23.12-.45.17-.65.17ZM543.03,7.61c-.25-.22-.44-.46-.59-.74-.15-.27-.17-.47-.09-.59v-.17c0-.61-.2-.82-.61-.65-.69.12-1.53.36-2.52.74-.26.12-.54.17-.82.17-.49,0-.68-.35-.56-1.04.06-.52.14-.82.26-.91.12-.09.43-.14.95-.17.55-.09,1.08-.17,1.58-.26.51-.09.87-.17,1.11-.26.06-.09.1-.45.13-1.08.06-.64.14-.95.26-.95.09-.12.27-.17.56-.17h.13c.17,0,.3.09.37.26.07.17.15.46.24.87,0,.17.03.3.09.37.06.07.16.11.3.11.2,0,.77-.19,1.69-.56.06-.03.16-.04.3-.04.2,0,.38.06.54.17.16.12.24.29.24.52,0,.41-.46.78-1.39,1.13-.49.15-.84.3-1.04.48-.2.17-.3.39-.3.65,0,.2.07.52.22.95.12.23.17.48.17.74,0,.46-.23.69-.69.69-.12.06-.3-.02-.54-.24ZM544.78,26.06c-.29,0-.55-.07-.78-.22-.23-.14-.35-.33-.35-.56,0-.2.08-.35.24-.46.16-.1.34-.12.54-.07.17.09.59-.22,1.26-.93.66-.71,1.1-1.24,1.3-1.58.12-.23.48-.71,1.08-1.43.29-.35.55-.69.78-1.04s.35-.59.35-.74c.06-.12-.1-.19-.48-.22-.29-.06-.62-.09-1-.09-.87-.09-1.29-.16-1.26-.22-.15-.09-.25-.26-.33-.52-.07-.26-.06-.48.02-.65.29-.29.64-.43,1.04-.43l2.08.17c.06.03.17.04.35.04.2,0,.39-.01.56-.04.17-.03.29-.07.35-.13.09-.12.15-.2.2-.26.04-.06.11-.17.2-.35.09-.23.33-.68.74-1.34.38-.61.55-.98.52-1.13-.12-.09-.26-.11-.43-.09-.17.03-.4.1-.69.22-.41.2-.72.29-.95.26-.49.06-.89-.01-1.19-.22-.3-.2-.46-.49-.46-.87,0-.12.03-.29.09-.52.06-.26.2-.66.43-1.21.23-.49.38-.87.43-1.13,0-.29.09-.52.26-.69s.38-.26.61-.26.44.08.63.24c.19.16.3.37.33.63.06.15-.15.77-.61,1.86-.06.23-.06.35,0,.35.12.12.68-.13,1.69-.74.61-.38.95-.56,1.04-.56h.09c.12,0,.26.04.43.13.32.15.48.38.48.69,0,.38-.18,1.06-.54,2.04-.36.98-.74,1.82-1.15,2.52-.2.29-.17.48.09.56.2.06,1.19.12,2.95.17.98,0,1.92.04,2.82.13l1.43.09.39-.04c.46,0,1.03.05,1.69.15.67.1,1.05.21,1.17.33.14.15.22.32.22.52,0,.35-.19.67-.56.98-.38.3-.78.46-1.21.46l-.48-.35-.39-.3-2.78-.13c-2.4-.14-4.34-.22-5.81-.22-.58,0-.95.06-1.11.19-.16.13-.37.46-.63.98-.32.52-.64.97-.95,1.34-.46.52-.77.91-.91,1.17-.43.58-.95,1.21-1.56,1.89-.61.68-1.07,1.12-1.39,1.32-.2.2-.49.3-.87.3ZM549.56,8.5c0-.35.1-.74.3-1.17l.17-.69.22-.87c.09-.35.13-.65.13-.91,0-.49-.17-.74-.52-.74-.67-.14-1-.46-1-.95,0-.29.12-.48.35-.56.2-.09.58-.17,1.13-.26.4-.06.65-.17.74-.35.06-.17.26-.49.61-.95.35-.46.58-.74.69-.82.06-.06.16-.09.3-.09s.27.07.39.2c.12.13.17.28.17.46s-.1.46-.3.87c-.12.23-.17.42-.17.56s.09.23.26.26c.17.03.53.03,1.08,0l1.34-.09c.32,0,.56.03.74.09.29.09.43.33.43.74,0,.43-.2.7-.61.8-.41.1-1.05.17-1.93.2-.88.03-1.53.1-1.93.22-.17.35-.36.97-.56,1.86-.23.9-.43,1.52-.61,1.86-.09.26-.23.48-.43.65-.2.17-.4.26-.61.26-.26,0-.39-.19-.39-.56ZM551.25,31.96c-.06-.58.06-1.34.35-2.3.09-.9.23-1.76.43-2.6.09-.23.14-.51.15-.82.01-.32.04-.62.06-.91.06-.75.14-1.31.24-1.67.1-.36.31-.61.63-.76.35-.2.58-.3.69-.3.26,0,.48.29.65.87l.13.48h.82c.9,0,1.61.29,2.15.87.54.58.8,1.29.8,2.12,0,.98-.39,1.95-1.17,2.91-.29.43-.42.69-.39.78.06.06.54.05,1.43-.02.9-.07,1.47-.15,1.73-.24.32-.09.59-.13.82-.13.58,0,.87.26.87.78,0,.26-.08.48-.24.67-.16.19-.37.27-.63.24-.84.17-2.1.33-3.77.48-.81.06-1.39.12-1.73.17-.35.03-.69.06-1.04.09-.9.09-1.53.12-1.91.09-.69-.12-1.06-.38-1.08-.78ZM554.95,30.14c.56-.52,1.02-1.14,1.37-1.86.23-.46.35-.91.35-1.34,0-.35-.08-.62-.24-.82-.16-.2-.4-.32-.72-.35h-.13c-.23,0-.46.12-.69.35-.72.81-1.32,2.31-1.78,4.51,0,.15.02.23.07.26.04.03.14.04.28.04.43,0,.93-.26,1.5-.78Z"/><path class="cls-1" d="M581.58,23.11c-.35,0-.52-.14-.52-.43,0-.26.14-.53.43-.82.43-.49.9-1.19,1.39-2.08.49-.9.77-1.56.82-2l.09-.35c0-.14-.07-.22-.22-.22-.12,0-.24.02-.37.06-.13.04-.27.09-.41.15-.12.12-.28.17-.48.17-.32,0-.61-.13-.87-.39-.26-.26-.39-.56-.39-.91,0-.38.13-.69.39-.95.26-.35.48-.56.65-.65.4-.12.69-.17.87-.17.75,0,1.4.31,1.95.93.55.62.75,1.27.61,1.93-.17.95-.61,2-1.32,3.14-.71,1.14-1.42,1.97-2.15,2.49-.12.06-.28.09-.48.09Z"/><path class="cls-1" d="M.23,100.87c.06-.46.21-1.07.46-1.82.25-.75.44-1.19.59-1.3.14-.23.22-.39.22-.48,0-.14.17-.51.5-1.11.33-.59.59-.98.76-1.15.26-.32.39-.36.39-.13s-.17.91-.52,2.04c-.17.52-.29.93-.35,1.24-.06.3-.06.43,0,.37.14-.12.48-.64,1-1.56.06-.12.16-.3.3-.56.14-.26.32-.58.52-.95.87-1.62,1.88-4.83,3.04-9.63l2.52-9.71c.12-.61.36-1.32.74-2.13.38-.81.66-1.26.87-1.34.17-.06.3-.09.39-.09.26,0,.55.12.87.35.23.15.35.29.35.43s-.12.29-.35.43c-.35.17-.61.5-.78.98-.17.48-.26.92-.26,1.32,0,.26.03.39.09.39.12,0,.48-.26,1.08-.78,1.19-.9,2.31-1.82,3.38-2.78,1.16-1.04,1.65-1.69,1.47-1.95-.29-.06-.68-.09-1.17-.09-.55,0-1.08.03-1.58.09-.51.06-.82.15-.93.26-.55.2-.93.3-1.13.3-.23,0-.43-.07-.59-.2-.16-.13-.24-.28-.24-.46,0-.29.17-.49.52-.61.14-.09.27-.22.39-.39.12-.17.25-.3.39-.37.14-.07.4-.12.78-.15.29-.06,1-.12,2.12-.17l2-.09c.14-.06.36-.09.65-.09.35,0,.64.09.87.28.23.19.35.43.35.72,0,.23-.12.54-.35.91-.26.35-.39.58-.39.69,0,.15.09.32.26.52.14.2.22.35.22.43,0,.12-.12.38-.35.78-.03.17-.43.46-1.21.87-.75.35-1.17.59-1.26.74l-1.73,1.3c-.78.52-1.26.87-1.43,1.04-.95.81-1.72,1.33-2.3,1.56-.35.09-.58.25-.69.48-.12.15-.2.34-.26.59-.06.25-.13.54-.22.89l-1.08,4.38-1.21,4.73c-.69,2.49-1.44,4.64-2.23,6.46-.8,1.82-1.89,3.43-3.27,4.81-.58.58-.98.87-1.21.87-.17,0-.38-.12-.61-.35-.29-.29-.41-.56-.35-.82ZM14.33,91.33c-.26,0-.46-.13-.61-.39-.15-.32-.55-.95-1.21-1.91-.67-.95-1.11-1.56-1.34-1.82-.55-.64-.82-1.14-.82-1.52,0-.2.1-.38.3-.52.14-.06.32-.09.52-.09.32,0,.6.12.85.35.25.23.54.61.89,1.13.4.61.68.95.82,1.04.12.06.19.09.22.09.06,0,.2-.06.43-.17.17-.09.3-.13.39-.13.14,0,.23.09.26.26.03.15.04.68.04,1.6-.03,1.1-.12,1.72-.26,1.86s-.3.22-.48.22ZM17.1,104.17c-.2-.29-.3-.64-.3-1.04,0-.23.01-.39.04-.48.09-.43.13-.82.13-1.17,0-.43-.07-.84-.22-1.21-.09-.17-.13-.3-.13-.39,0-.12.09-.32.26-.61.2-.2.43-1.14.69-2.82.26-1.68.43-2.57.52-2.69.2-.26.22-.42.06-.48-.16-.06-.43-.12-.82-.17-.39-.06-.61-.14-.67-.26-.15-.12-.22-.3-.22-.56,0-.46.3-1.1.91-1.91.32-.43.74-1.08,1.26-1.95.03-.03.04-.09.04-.17s-.07-.17-.22-.26c-.61-.49-1.03-.88-1.28-1.17-.25-.29-.51-.66-.8-1.13-.06,0-.29.13-.69.39-.32.23-.56.35-.74.35-.12,0-.19-.05-.22-.15-.03-.1-.04-.28-.04-.54,0-.69.2-1.19.61-1.47.26-.23.39-.38.39-.43s-.09-.17-.26-.35c-.06-.12-.12-.17-.17-.17-.2-.26-.51-.61-.93-1.04-.42-.43-.8-.79-1.15-1.08-.32-.26-.48-.55-.48-.87,0-.17.06-.36.17-.56.12-.11.27-.17.48-.17.58,0,1.2.38,1.86,1.13.55.69.9,1.1,1.04,1.21.4.41.81.61,1.21.61.29,0,.61-.12.95-.35.46-.29.85-.48,1.15-.59.3-.1.73-.21,1.28-.33.32-.03.72-.12,1.21-.26,1.13-.4,2.02-.61,2.69-.61.14,0,.36.03.65.09.9.17,1.5.42,1.82.74.32.32.52.87.61,1.65.03.15.04.35.04.61,0,.41-.06.77-.17,1.08-.35,1.01-.72,1.76-1.13,2.23-.41.48-.98.86-1.73,1.15-.43.09-.97.49-1.6,1.21-.61.72-.98,1.08-1.13,1.08-.26.12-.49.3-.69.56-.29.32-.51.52-.65.61-.17.09-.29.2-.35.35-.06.15-.1.46-.13.95l-.09.61.52-.04.65-.04c.32,0,.56.04.74.13.17.09.36.23.56.43.75.67,1.21,1.94,1.39,3.82l.09,2.34c0,.49-.03.87-.09,1.15-.06.27-.19.74-.39,1.41-.23.49-.43.85-.59,1.08-.16.23-.35.32-.59.26-.26.03-.52-.07-.78-.28s-.46-.33-.61-.33c-.17,0-.41.1-.69.3-.15.17-.55.35-1.21.54-.67.19-1.13.31-1.39.37-.26.09-.49-.02-.69-.3ZM18.92,86.47c.09,0,.15-.1.2-.3.04-.2.06-.46.06-.78.06-.81.1-1.3.13-1.47.03-.17.03-.27,0-.3l-.52.13c-.2.09-.56.3-1.06.65-.51.35-.76.55-.76.61l.52.3c.32.17.58.38.78.61.29.38.51.56.65.56ZM18.14,80.45c0-.23.16-.59.48-1.08.26-.32.52-.88.78-1.69.26-.84.61-1.26,1.04-1.26.26,0,.53.09.82.26.14.15.22.38.22.69,0,.46-.15.78-.43.95-.2.15-.56.59-1.08,1.34l-.78,1.08c-.15.12-.33.17-.56.17-.32-.06-.48-.22-.48-.48ZM19.94,101.28c.07-.04.22-.05.46-.02.43.09,1.06-.27,1.87-1.08.14-.23.22-.51.22-.82,0-.23-.04-.39-.13-.48-.15-.12-.3-.14-.48-.09-.17.06-.39.17-.65.35-.41.29-.75.46-1.04.52-.93.35-1.39,1-1.39,1.95,0,.46.12.69.35.69.17,0,.35-.2.52-.61.12-.23.21-.37.28-.41ZM21.29,97.45c.56-.32.87-.55.93-.69l.04-.17c0-.23-.15-.53-.43-.91-.17-.26-.36-.39-.56-.39-.35,0-.71.25-1.08.74-.46.58-.69,1.13-.69,1.65,0,.2.02.32.06.35.04.03.18.03.41,0,.32-.06.76-.25,1.32-.56ZM21.5,88.56c.33-.23.59-.42.76-.56.09-.17.04-.32-.13-.43-.15-.14-.27-.22-.39-.22-.35,0-.75.45-1.21,1.34l-.04.17c-.06.12-.08.19-.06.24.01.04.08.05.19.02.26-.14.56-.33.89-.56ZM23,86.69c.43,0,.92-.12,1.47-.35.43-.09.81-.4,1.13-.95.32-.55.51-1.19.56-1.91.06-.43.06-.72,0-.87-.06-.14-.13-.25-.22-.3-.12-.2-.51-.3-1.17-.3-.55,0-1.16.07-1.84.22-.68.15-1.13.29-1.37.43-.03,0-.04.06-.04.17l.04.35c.09.29.1.48.04.56.06.26.12.39.17.39s.2-.12.43-.35l.52-.48c.61-.58,1.01-.9,1.21-.95.12-.06.2-.09.26-.09.11,0,.26.06.43.17.32.2.48.43.48.69s-.26.55-.78.87c-.26.17-.54.45-.82.82-.35.43-.58.71-.69.82-.29.29-.41.56-.35.82.06.15.23.22.52.22Z"/><path class="cls-1" d="M41.67,100.87c.06-.46.21-1.07.46-1.82.25-.75.44-1.19.59-1.3.14-.23.22-.39.22-.48,0-.14.17-.51.5-1.11.33-.59.59-.98.76-1.15.26-.32.39-.36.39-.13s-.17.91-.52,2.04c-.17.52-.29.93-.35,1.24-.06.3-.06.43,0,.37.14-.12.48-.64,1-1.56.06-.12.16-.3.3-.56.14-.26.32-.58.52-.95.87-1.62,1.88-4.83,3.04-9.63l2.52-9.71c.12-.61.36-1.32.74-2.13.38-.81.66-1.26.87-1.34.17-.06.3-.09.39-.09.26,0,.55.12.87.35.23.15.35.29.35.43s-.12.29-.35.43c-.35.17-.61.5-.78.98-.17.48-.26.92-.26,1.32,0,.26.03.39.09.39.12,0,.48-.26,1.08-.78,1.19-.9,2.31-1.82,3.38-2.78,1.16-1.04,1.65-1.69,1.47-1.95-.29-.06-.68-.09-1.17-.09-.55,0-1.08.03-1.58.09-.51.06-.82.15-.93.26-.55.2-.93.3-1.13.3-.23,0-.43-.07-.59-.2-.16-.13-.24-.28-.24-.46,0-.29.17-.49.52-.61.14-.09.27-.22.39-.39.12-.17.25-.3.39-.37.14-.07.4-.12.78-.15.29-.06,1-.12,2.12-.17l2-.09c.14-.06.36-.09.65-.09.35,0,.64.09.87.28.23.19.35.43.35.72,0,.23-.12.54-.35.91-.26.35-.39.58-.39.69,0,.15.09.32.26.52.14.2.22.35.22.43,0,.12-.12.38-.35.78-.03.17-.43.46-1.21.87-.75.35-1.17.59-1.26.74l-1.73,1.3c-.78.52-1.26.87-1.43,1.04-.95.81-1.72,1.33-2.3,1.56-.35.09-.58.25-.69.48-.12.15-.2.34-.26.59-.06.25-.13.54-.22.89l-1.08,4.38-1.21,4.73c-.69,2.49-1.44,4.64-2.23,6.46-.8,1.82-1.89,3.43-3.27,4.81-.58.58-.98.87-1.21.87-.17,0-.38-.12-.61-.35-.29-.29-.41-.56-.35-.82ZM55.76,91.33c-.26,0-.46-.13-.61-.39-.15-.32-.55-.95-1.21-1.91-.67-.95-1.11-1.56-1.34-1.82-.55-.64-.82-1.14-.82-1.52,0-.2.1-.38.3-.52.14-.06.32-.09.52-.09.32,0,.6.12.85.35.25.23.54.61.89,1.13.4.61.68.95.82,1.04.12.06.19.09.22.09.06,0,.2-.06.43-.17.17-.09.3-.13.39-.13.14,0,.23.09.26.26.03.15.04.68.04,1.6-.03,1.1-.12,1.72-.26,1.86s-.3.22-.48.22ZM58.54,104.17c-.2-.29-.3-.64-.3-1.04,0-.23.01-.39.04-.48.09-.43.13-.82.13-1.17,0-.43-.07-.84-.22-1.21-.09-.17-.13-.3-.13-.39,0-.12.09-.32.26-.61.2-.2.43-1.14.69-2.82.26-1.68.43-2.57.52-2.69.2-.26.22-.42.06-.48-.16-.06-.43-.12-.82-.17-.39-.06-.61-.14-.67-.26-.15-.12-.22-.3-.22-.56,0-.46.3-1.1.91-1.91.32-.43.74-1.08,1.26-1.95.03-.03.04-.09.04-.17s-.07-.17-.22-.26c-.61-.49-1.03-.88-1.28-1.17-.25-.29-.51-.66-.8-1.13-.06,0-.29.13-.69.39-.32.23-.56.35-.74.35-.12,0-.19-.05-.22-.15-.03-.1-.04-.28-.04-.54,0-.69.2-1.19.61-1.47.26-.23.39-.38.39-.43s-.09-.17-.26-.35c-.06-.12-.12-.17-.17-.17-.2-.26-.51-.61-.93-1.04-.42-.43-.8-.79-1.15-1.08-.32-.26-.48-.55-.48-.87,0-.17.06-.36.17-.56.12-.11.27-.17.48-.17.58,0,1.2.38,1.86,1.13.55.69.9,1.1,1.04,1.21.4.41.81.61,1.21.61.29,0,.61-.12.95-.35.46-.29.85-.48,1.15-.59.3-.1.73-.21,1.28-.33.32-.03.72-.12,1.21-.26,1.13-.4,2.02-.61,2.69-.61.14,0,.36.03.65.09.9.17,1.5.42,1.82.74.32.32.52.87.61,1.65.03.15.04.35.04.61,0,.41-.06.77-.17,1.08-.35,1.01-.72,1.76-1.13,2.23-.41.48-.98.86-1.73,1.15-.43.09-.97.49-1.6,1.21-.61.72-.98,1.08-1.13,1.08-.26.12-.49.3-.69.56-.29.32-.51.52-.65.61-.17.09-.29.2-.35.35-.06.15-.1.46-.13.95l-.09.61.52-.04.65-.04c.32,0,.56.04.74.13.17.09.36.23.56.43.75.67,1.21,1.94,1.39,3.82l.09,2.34c0,.49-.03.87-.09,1.15-.06.27-.19.74-.39,1.41-.23.49-.43.85-.59,1.08-.16.23-.35.32-.59.26-.26.03-.52-.07-.78-.28s-.46-.33-.61-.33c-.17,0-.41.1-.69.3-.15.17-.55.35-1.21.54-.67.19-1.13.31-1.39.37-.26.09-.49-.02-.69-.3ZM60.36,86.47c.09,0,.15-.1.2-.3.04-.2.06-.46.06-.78.06-.81.1-1.3.13-1.47.03-.17.03-.27,0-.3l-.52.13c-.2.09-.56.3-1.06.65-.51.35-.76.55-.76.61l.52.3c.32.17.58.38.78.61.29.38.51.56.65.56ZM59.58,80.45c0-.23.16-.59.48-1.08.26-.32.52-.88.78-1.69.26-.84.61-1.26,1.04-1.26.26,0,.53.09.82.26.14.15.22.38.22.69,0,.46-.15.78-.43.95-.2.15-.56.59-1.08,1.34l-.78,1.08c-.15.12-.33.17-.56.17-.32-.06-.48-.22-.48-.48ZM61.38,101.28c.07-.04.22-.05.46-.02.43.09,1.06-.27,1.87-1.08.14-.23.22-.51.22-.82,0-.23-.04-.39-.13-.48-.15-.12-.3-.14-.48-.09-.17.06-.39.17-.65.35-.41.29-.75.46-1.04.52-.93.35-1.39,1-1.39,1.95,0,.46.12.69.35.69.17,0,.35-.2.52-.61.12-.23.21-.37.28-.41ZM62.72,97.45c.56-.32.87-.55.93-.69l.04-.17c0-.23-.15-.53-.43-.91-.17-.26-.36-.39-.56-.39-.35,0-.71.25-1.08.74-.46.58-.69,1.13-.69,1.65,0,.2.02.32.06.35.04.03.18.03.41,0,.32-.06.76-.25,1.32-.56ZM62.94,88.56c.33-.23.59-.42.76-.56.09-.17.04-.32-.13-.43-.15-.14-.27-.22-.39-.22-.35,0-.75.45-1.21,1.34l-.04.17c-.06.12-.08.19-.06.24.01.04.08.05.19.02.26-.14.56-.33.89-.56ZM64.44,86.69c.43,0,.92-.12,1.47-.35.43-.09.81-.4,1.13-.95.32-.55.51-1.19.56-1.91.06-.43.06-.72,0-.87-.06-.14-.13-.25-.22-.3-.12-.2-.51-.3-1.17-.3-.55,0-1.16.07-1.84.22-.68.15-1.13.29-1.37.43-.03,0-.04.06-.04.17l.04.35c.09.29.1.48.04.56.06.26.12.39.17.39s.2-.12.43-.35l.52-.48c.61-.58,1.01-.9,1.21-.95.12-.06.2-.09.26-.09.11,0,.26.06.43.17.32.2.48.43.48.69s-.26.55-.78.87c-.26.17-.54.45-.82.82-.35.43-.58.71-.69.82-.29.29-.41.56-.35.82.06.15.23.22.52.22Z"/><path class="cls-1" d="M86.22,97.14c0-.46.03-.87.09-1.21.06-.35.14-.72.26-1.13.14-.69.29-1.98.43-3.86.14-1.88.2-3.15.17-3.82-.12-.06-.74.04-1.86.3-.75.12-1.21.17-1.39.17-.29,0-.52-.06-.69-.17-.17-.17-.26-.35-.26-.52,0-.26.27-.58.82-.95.29-.2.53-.33.72-.37.19-.04.54-.08,1.06-.11.72-.06,1.19-.17,1.39-.33.2-.16.35-.54.43-1.15,0-.26.07-.65.22-1.17.14-.58.22-.95.22-1.13,0-.2.06-.38.17-.52.12-.14.27-.22.48-.22s.38.06.52.17c.09.06.16.17.22.35v.95l-.04.69c0,.23.03.38.09.43.12.03.62-.32,1.52-1.04.38-.32.67-.48.87-.48.17,0,.32.09.43.26.06.06.09.19.09.39,0,.38-.1.67-.3.87-.15,0-.45.22-.91.65s-.87.83-1.21,1.19c-.35.36-.58.59-.69.67-.15.78-.29,2.4-.43,4.86-.09,1.27-.17,2.56-.26,3.86.14,0,.46-.23.93-.69.48-.46.9-.94,1.28-1.43.29-.4.9-1.03,1.82-1.89.92-.85,1.46-1.28,1.6-1.28.43.12.65.27.65.48,0,.15-.23.49-.69,1.04l-.17.17c-.55.55-.94,1.01-1.17,1.39-.61.93-1.4,1.89-2.36,2.91-.97,1.01-1.81,1.78-2.54,2.3-.29.17-.55.22-.78.13-.46-.14-.69-.4-.69-.78ZM102.94,103c-.1-.15-.15-.39-.15-.74.12-8.24.27-12.58.48-13.01l.17-5.42v-1.39c0-1.24-.04-1.95-.13-2.12-.12-.12-.23-.12-.35,0-.35.69-.75,1.37-1.21,2.04-.46.67-.77,1.03-.91,1.08-.12.09-.29.13-.52.13-.32,0-.46-.14-.43-.43-.03-.23.2-.75.69-1.56.46-.81.68-1.26.65-1.34.06-.29.36-.9.91-1.82.55-.87.88-1.46,1-1.78.06-.06.1-.13.13-.22l1.04-1.91c.32-.52.69-1,1.13-1.45.43-.45.85-.7,1.26-.76.2,0,.36.08.48.24.12.16.17.35.17.59,0,.15-.04.3-.13.48-.15.23-.54.78-1.17,1.65-.26.35-.51.67-.74.98-.23.3-.36.56-.39.76-.06.12-.09.25-.09.39l.09.52c.11.35.17.71.17,1.08.09.98.13,2.12.13,3.43,0,1.82-.09,3.9-.26,6.25-.29,3.79-.43,6.16-.43,7.11l-.04.17c0,.12.04.29.13.52.09.26.13,1.04.13,2.34,0,1.76-.06,2.86-.17,3.3-.17.75-.54,1.13-1.08,1.13-.26,0-.44-.07-.54-.22ZM106.69,81.92c0-.46.14-.77.43-.91.29-.17.81-.32,1.56-.43.61-.06,1.08-.15,1.41-.28.33-.13.72-.33,1.15-.59.32-.23.72-.45,1.21-.65.81-.32,1.37-.48,1.69-.48.49,0,.71.25.65.74.23.12-.59.67-2.47,1.65-.35.17-.67.34-.95.5-.29.16-.43.25-.43.28-.29.17-1.01.41-2.17.69-.72.2-1.19.3-1.39.3-.15,0-.3-.09-.48-.26-.15-.14-.22-.33-.22-.56ZM108.82,97.06c-.49,0-.82-.2-1-.61-.09-.17-.13-.33-.13-.48,0-.32.22-.61.65-.87.09-.06.26-.12.52-.17.4-.14.84-.61,1.3-1.39.17-.29.33-.69.48-1.19.14-.51.19-.79.13-.85h-.09l-.78.13c-.29.03-.58.07-.87.13-.17,0-.35-.18-.52-.54-.17-.36-.23-.67-.17-.93.03-.23.13-.38.3-.43.17-.06.43-.09.78-.09.58,0,.95-.09,1.13-.26.4-.23.65-.43.74-.61.09-.14.13-.59.13-1.34,0-.49-.03-.77-.09-.82l-1.39.56c-.87.35-1.33.49-1.39.43-.12-.03-.27-.17-.46-.41-.19-.25-.28-.44-.28-.59,0-.17.1-.35.3-.54.2-.19.45-.34.74-.46,1.27-.4,2.02-.78,2.26-1.13.09-.17.13-.48.13-.91,0-.87.01-1.36.04-1.47,0-.14.07-.26.22-.35.14-.14.32-.22.52-.22.32,0,.61.3.87.91l.3.74.61.09c.58.03.87.23.87.61,0,.32-.27.62-.82.91-.43.2-.69.72-.78,1.56l-.09.52c0,.23.07.35.22.35.23,0,.45-.22.65-.65l.09-.26c.14-.49.4-.68.78-.56.32.09.48.29.48.61,0,.17-.02.3-.04.39l-.13.26v.13c-.09.29-.16.51-.22.65-.06.15-.2.33-.43.56l-.35.35c-.52.52-.84.88-.95,1.08-.12.2-.23.56-.35,1.08-.23,1.07-.46,1.94-.69,2.6-.17.41-.17.65,0,.74h.13c.29,0,.66-.06,1.13-.17,1.1-.14,2.7-.4,4.81-.78,1.97-.4,3.61-.68,4.94-.82.49-.06.88,0,1.17.15.29.16.43.38.43.67,0,.17-.08.36-.24.56-.16.2-.4.38-.72.52-.15.15-.68.23-1.6.26-.98,0-1.55.04-1.69.13l-2.08.39-1.39.22c-2,.35-3.28.59-3.86.74-.29.12-.85.25-1.69.39-.64.09-1.21.2-1.73.35-.29.09-.56.13-.82.13ZM111.99,75.37c0-.2.04-.43.13-.69.17-.55.25-.87.22-.95-.03-.06-.3-.45-.82-1.17-.41-.49-.65-.85-.74-1.08-.12-.17-.15-.42-.09-.74.06-.23.19-.36.39-.39.29-.06.48-.09.56-.09.17,0,.34.08.5.24.16.16.4.47.72.93.23.35.43.77.61,1.28.17.51.25.88.22,1.11-.09.15-.25.61-.48,1.39-.06.2-.15.37-.28.5-.13.13-.25.19-.37.19s-.28-.07-.48-.22c-.06-.06-.09-.16-.09-.3Z"/><path class="cls-1" d="M138.46,95.06c0-.23.12-.48.35-.74.29-.32.62-.87,1-1.65.38-.72.68-1.26.91-1.6.14-.2.27-.4.39-.61.03-.17.1-.33.22-.48.14-.06.22-.27.22-.65s.07-.56.22-.56c.2-.03.4.12.59.43.19.32.28.67.28,1.04s.04.56.13.56c.06,0,.16-.07.3-.22l.17-.13c1.33-1.24,2.23-1.86,2.69-1.86l2.43-1.17c1.3-.69,2.24-1.1,2.82-1.21,3.04-1.24,5.44-2.08,7.2-2.52.93-.23,1.65-.38,2.17-.43h.22c.35,0,.66.09.95.26.46.23.66.71.61,1.43-.09.41-.17.67-.24.8-.07.13-.2.24-.37.33-.09.06-.2.15-.35.26-.15.12-.29.28-.43.48-.23.32-.59.67-1.06,1.04-.48.38-.74.59-.8.65-1.04.78-1.68,1.06-1.91.82,0-.06.13-.21.39-.46.26-.25.43-.37.52-.37s.43-.31,1.02-.93c.59-.62,1.02-1.12,1.28-1.5.26-.38.36-.68.3-.91-.09-.23-.25-.35-.48-.35-.15,0-.3.04-.48.13-.38.17-1.01.33-1.91.48-.93.15-1.58.3-1.95.48l-3.38,1.3c-1.79.64-3.27,1.27-4.42,1.91-.2.15-.43.27-.67.39-.25.12-.5.23-.76.35-.98.46-1.58.81-1.78,1.04-.29.2-.59.39-.91.56-.46.23-.75.41-.87.52-.06.06-.3.12-.74.17-.38.03-.59.16-.65.39-.03.09-.32.45-.87,1.08-.55.64-.84,1.03-.87,1.17-.32.55-.61.82-.87.82-.12,0-.25-.04-.39-.13-.15-.12-.22-.26-.22-.43ZM140.15,106.25c-.29,0-.59-.13-.91-.39-.35-.29-.52-.54-.52-.74,0-.17.23-.29.69-.35.2-.03.9-.22,2.08-.56l.95-.26,2.86-.82c.46-.15.76-.25.89-.3.13-.06.21-.15.24-.26.03-.12.07-.41.13-.87,1.24-5.26,2.05-8.21,2.43-8.85.2-.26.36-.62.48-1.08.14-.43.28-.74.41-.91.13-.17.34-.22.63-.13.29.09.84-.09,1.65-.52.2-.06.49-.09.87-.09.75,0,1.34.27,1.78.82l.39.48-.09,1.82c0,3.15-.07,5.23-.22,6.25-.06.32-.09.68-.09,1.08,0,.2.01.32.04.35.72,0,2.18-.22,4.38-.65,2.23-.43,3.74-.65,4.55-.65.29,0,.59-.04.91-.11.32-.07.53-.11.65-.11.23,0,.48.07.74.22.32.38.42.75.3,1.13-.09.23-.26.39-.52.48-.35.06-.81.09-1.39.09-1.85.09-4.09.43-6.72,1.04-2.63.55-4.4.9-5.29,1.04-.58.09-1.3.27-2.17.56-.98.29-1.76.45-2.34.48-.78.14-2.96.67-6.55,1.56-.55.17-.97.26-1.26.26ZM142.14,85.82c0-.26.1-.72.3-1.39.14-.52.22-.85.22-1,0-.09-.04-.17-.13-.24-.09-.07-.22-.12-.39-.15-.15-.03-.3-.04-.48-.04s-.28.06-.3.2c-.03.13-.04.43-.04.89,0,.55-.01.87-.04.95-.06.15-.13.25-.22.3-.15.12-.3.17-.48.17-.26,0-.47-.14-.63-.43-.16-.29-.24-.69-.24-1.21,0-.92-.06-1.91-.17-2.95-.09-.58-.13-1.06-.13-1.43,0-.49.07-.94.22-1.34.12-.43.24-.72.37-.87.13-.14.31-.2.54-.17.12-.03.21.04.28.22.07.17.11.39.11.65,0,.2-.02.35-.04.43-.03.06-.04.15-.04.26,0,.23.06.47.2.72.13.25.21.3.24.15.12-.29.28-.51.5-.67.22-.16.5-.31.85-.46.35-.14.62-.3.82-.48.26-.17.56-.33.89-.48.33-.14.7-.29,1.11-.43.61-.29,1.14-.43,1.6-.43.64,0,1.04.33,1.21,1,.09.29.13.61.13.95,0,.55-.13,1.13-.39,1.76-.26.62-.67,1.35-1.21,2.19-.4.67-.81,1.24-1.21,1.73-.43.43-.8.87-1.08,1.3-.32.49-.57.8-.76.93-.19.13-.43.2-.72.2-.58,0-.87-.27-.87-.82ZM142.01,81.92c.09.03.28-.07.59-.3.3-.23.51-.4.63-.52.06,0,.14-.12.24-.37.1-.25.14-.41.11-.5-.09-.12-.19-.17-.3-.17-.15,0-.26.03-.35.09-.32.15-.61.28-.87.41-.26.13-.43.19-.52.19-.29.03-.43.25-.43.65,0,.23.04.46.13.69l.13.43c.32-.4.53-.61.65-.61ZM145.27,74.33c-.12-.2-.17-.51-.17-.91,0-.55-.12-1.23-.35-2.04-.23-.81-.45-1.27-.65-1.39-.15-.12-.25-.25-.3-.41-.06-.16-.11-.36-.15-.61s-.08-.41-.11-.5c-.03-.12-.06-.22-.09-.3,0-.26.17-.39.52-.39.26,0,.51.06.74.17.09.17.3.23.65.17.38-.09.59-.12.65-.09h.04c.09,0,.17-.05.24-.15.07-.1.12-.24.15-.41.06-.26.54-.62,1.45-1.08.91-.46,1.91-.87,2.99-1.24,1.08-.36,1.89-.54,2.41-.54.49,0,.88.15,1.17.46.29.3.43.72.43,1.24,0,.32-.18.91-.54,1.78-.36.87-.67,1.43-.93,1.69-.26.29-.46.59-.61.91-.4.75-.66,1.18-.76,1.28s-.38.33-.85.67l-1.3,1.13c-.2.09-.43.12-.69.09-.35,0-.72-.11-1.13-.33-.41-.22-.61-.41-.61-.59s.17-.61.52-1.3c.03-.03-.17-.16-.61-.39s-.65-.45-.65-.65c0-.26.2-.43.61-.52.69-.17,1.14-.39,1.34-.65.09-.12.18-.39.28-.82.1-.43.12-.68.06-.74-.06-.03-.15-.04-.26-.04-.17,0-.45.07-.82.22-.61.23-.98.33-1.13.3-.35.03-.59.12-.74.26-.06.17-.09.46-.09.87,0,.55.07,1.06.22,1.52.26.95.39,1.71.39,2.25,0,.61-.04.99-.13,1.15-.09.16-.29.24-.61.24-.29,0-.49-.1-.61-.3ZM144.99,82.79c.53-.72.83-1.17.89-1.34.03-.2,0-.29-.09-.26-.35,0-.67.23-.95.69l-.09.17c-.64,1.21-.85,1.82-.65,1.82.06,0,.35-.36.89-1.08ZM145.57,79.97c.32-.09.53-.09.65,0,.12.06.19.09.22.09.23,0,.39-.25.48-.74.06-.29.09-.48.09-.56,0-.23-.07-.39-.22-.48-.17-.06-.3-.09-.39-.09-.15,0-.31.07-.5.22-.19.15-.34.23-.46.26-.49.23-.77.39-.82.48l-.04.09c0,.12.06.28.19.5.13.22.22.33.28.33l.52-.09ZM151.77,101.57c.61-.12.98-.23,1.13-.35.06,0,.17-.4.35-1.19.17-.79.26-1.42.26-1.89,0-.32-.06-.48-.17-.48-.09,0-.32.12-.69.35-1.73,1.36-2.91,1.98-3.51,1.86-.2-.06-.33-.04-.39.06-.06.1-.11.29-.15.56-.04.27-.11.46-.2.54-.09.32-.13.58-.13.78,0,.4.17.61.52.61.2,0,.5-.08.89-.24.39-.16.7-.28.93-.37l1.17-.26ZM152.34,96.71c.75-.49,1.14-.78,1.17-.87,0-.09-.04-.14-.13-.17-.26.03-.74.23-1.43.61-.72.32-1.24.52-1.56.61-.38.12-.61.2-.69.26-.09.06-.16.22-.22.48-.09.2-.13.39-.13.56,0,.15.07.22.22.22.12,0,.3-.09.56-.26.75-.58,1.49-1.06,2.21-1.43ZM150.17,71.66c.14-.04.26-.12.35-.24.35-.4.72-.9,1.13-1.47,1.13-1.73,1.69-2.83,1.69-3.3,0-.2-.02-.33-.06-.37s-.17-.06-.37-.06c-1.21.2-1.97.41-2.26.61-.38.17-.56.41-.56.69,0,.2.13.43.39.69l.09.04c.09,0,.26-.1.52-.3.29-.23.51-.35.65-.35.17,0,.27.13.3.39.03.12,0,.25-.09.39-.06.06-.36.3-.91.74-.29.2-.55.48-.78.85-.23.36-.38.57-.43.63-.06.09-.1.2-.13.33-.03.13-.04.28-.04.46,0,.23.03.38.09.43.14-.06.29-.11.43-.15ZM152.34,94.54l1.13-.61c.17-.17.27-.33.3-.48.09-.32.13-.65.13-1,0-.4-.06-.68-.17-.82-.12-.14-.32-.22-.61-.22-.46,0-.94.15-1.43.43-.23.03-.42.22-.56.56-.12.26-.25.46-.39.61-.41.49-.61,1.16-.61,2,0,.32.06.48.17.48.17,0,.85-.32,2.04-.95ZM155.94,82.92c-.23,0-.54-.06-.91-.19-.38-.13-.65-.21-.82-.24-1.47-.2-2.1-.94-1.87-2.21.03-.38.1-.78.22-1.21.17-.75.26-1.72.26-2.91.06-1.45.1-2.21.13-2.3.06-.09.16-.13.3-.13s.27.04.39.13c.12.09.17.19.17.3s.13.38.39.8c.26.42.42.63.48.63l1.3-.95c.4-.26.98-.55,1.73-.87.32-.12.64-.17.95-.17.64,0,1.16.22,1.56.67.4.45.61,1,.61,1.67,0,.49-.1.94-.3,1.34-.58,1.76-1,2.79-1.26,3.08-.17.2-.26.35-.26.43s-.16.29-.48.61c-.32.32-.59.54-.82.65-.23.15-.38.26-.43.35-.06.06-.23.17-.52.35-.26.12-.54.17-.82.17ZM154.94,78.28c.46-.4.75-.84.87-1.3l.04-.13c0-.14-.15-.17-.43-.09l-.35.17c-.26.12-.43.36-.52.74,0,.15-.01.29-.04.43,0,.23.06.35.17.35.09-.06.17-.12.26-.17ZM155.11,81.62c.12,0,.26-.04.43-.13.23-.12.46-.27.69-.48.23-.2.36-.3.39-.3.72-.43,1.17-.75,1.34-.95.17-.2.4-.66.69-1.39.46-1.13.69-1.97.69-2.52,0-.61-.26-.91-.78-.91-.26,0-.46.03-.61.09-.26.06-.48.21-.67.46s-.27.48-.24.72c.03.26.13.39.3.39.12,0,.31-.09.59-.26.27-.17.46-.26.54-.26.14,0,.23.12.26.35.09.15-.12.47-.63.98-.51.51-.92.86-1.24,1.06-.23.12-.64.6-1.21,1.45-.58.85-.85,1.37-.82,1.54.03.12.12.17.26.17Z"/><path class="cls-1" d="M178.98,97.75c0-.26.16-.53.48-.82.32-.32.54-.61.67-.87.13-.26.33-.78.59-1.56.38-1.19.59-2.02.65-2.52.06-.49.09-1.49.09-2.99,0-1.79-.17-2.69-.52-2.69-.12,0-.28.06-.48.17-.26.23-.59.35-1,.35-.29,0-.54-.07-.76-.22-.22-.14-.34-.35-.37-.61v-.17c0-.17.06-.3.17-.39.12-.09.38-.2.78-.35l.65-.26.48-.22c.17-.09.26-.29.26-.61s-.09-.75-.26-1.3c-.06-.38-.12-1.06-.17-2.04l-.04-1.39h-.95c-.64,0-1.07-.06-1.3-.17-.23-.12-.29-.38-.17-.78.09-.14.09-.29,0-.43-.09-.09-.13-.14-.13-.17,0-.06.16-.12.48-.17l1.52-.13c.61.03,1.07.02,1.39-.04.32-.06.66-.16,1.04-.3.35-.17.79-.32,1.34-.43.09-.03.2-.04.35-.04.38,0,.56.16.56.48s-.06.57-.17.76c-.12.19-.32.34-.61.46l-.26.09c-.12,0-.49.12-1.13.35-.61.26-.98.39-1.13.39-.26.06-.3.15-.13.26.09.09.17.1.26.04.32,0,.52.35.61,1.04l.26,1.73c.09.38.16.64.22.8.06.16.14.24.26.24.14,0,.43-.25.87-.74.35-.38.61-.61.8-.72.19-.1.35-.07.5.11.12.12.17.27.17.48,0,.52-.52,1.29-1.56,2.3-.38.38-.54.69-.48.95.17,1.33.26,2.57.26,3.73,0,1.42-.13,2.69-.39,3.82-.09.43-.13.74-.13.91,0,.2.04.3.13.3.12,0,.36-.26.74-.78l.78-.95c.52-.52,1.06-1.18,1.63-1.97.56-.79.83-1.26.8-1.41.12-.2.25-.3.39-.3s.27.04.39.13c.26.17.39.41.39.69,0,.35-.29.95-.87,1.82-.17.23-.3.45-.39.65-.06.2-.46.76-1.21,1.67-.75.91-1.56,1.79-2.43,2.65-.87.85-1.52,1.38-1.95,1.58-.26.23-.56.35-.91.35-.26,0-.51-.07-.74-.22-.2-.17-.3-.35-.3-.52ZM193.9,95.75c-.64,0-.95-.23-.95-.69,0-.14.01-.26.04-.35.03-.29.29-.56.78-.82.49-.26.95-.39,1.39-.39.29,0,.59-.02.91-.06.32-.04.55-.08.69-.11.09,0,.19-.02.3-.06.12-.04.2-.09.26-.15.09-.09.16-.17.22-.24.06-.07.12-.22.17-.46.06-.14.19-.36.39-.65.2-.35.29-.67.26-.95,0-.49-.12-.74-.35-.74-.15,0-.32.06-.52.17-.46.2-.91.3-1.34.3-.26,0-.48-.04-.67-.13-.19-.09-.3-.22-.33-.39,0-.12.19-.33.56-.65.38-.32.62-.48.74-.48.17,0,.47-.12.89-.35.42-.23.66-.4.72-.52.09-.69.13-1.5.13-2.43l-.09-2.65c-.06-.06-.19-.09-.39-.09l-1.34.04c-.58,0-.8-.22-.65-.65.03-.03.04-.09.04-.17,0-.17-.12-.45-.35-.82-.35-.4-.52-.66-.52-.78-.43-1.36-.78-2.93-1.04-4.73-.38-1.27-.54-2.07-.48-2.39.06-.32.14-.53.24-.63s.3-.17.59-.2c.46,0,.74.23.82.69.14.67.33,1,.56,1,.64-.29,1.29-.59,1.95-.89.66-.3,1.28-.54,1.84-.72s1.15-.26,1.76-.26c.43-.03.79.05,1.06.24.27.19.57.48.89.89.23.43.35.93.35,1.47s-.08,1.06-.24,1.52c-.16.46-.44,1.17-.85,2.12,0,.03-.16.23-.48.61-.32.43-.46.67-.43.69,0,.09-.23.35-.69.78l-.65.65-.13,1.52c-.12,1.07-.17,2.01-.17,2.82,0,.43.03.82.09,1.17.12.2.22.3.3.3s.26-.1.52-.3c.23-.23.46-.35.69-.35.17,0,.35.04.52.13.35.17.52.39.52.65,0,.2-.12.43-.35.67-.23.25-.55.47-.95.67-.41.17-.69.38-.85.61-.16.23-.24.54-.24.91,0,.43.04.91.11,1.43.07.52.14.8.19.82.95-.09,1.65-.16,2.08-.22.72-.09,1.34-.14,1.84-.17.51-.03,1.06-.03,1.67,0,.38-.03.85-.08,1.43-.15.58-.07,1.12-.15,1.63-.24.51-.09.63-.13.37-.13.32,0,.78.13,1.39.39.61.26.91.54.91.82,0,.17-.06.33-.17.48-.17.2-.65.35-1.43.43s-1.92.13-3.43.13c-1.42,0-2.73.1-3.92.3-1.2.2-2.63.49-4.29.87-1.66.38-2.9.62-3.71.74-.2.06-.48.09-.82.09ZM197.18,77.71c.51-.29.8-.51.89-.65.06-.12.09-.32.09-.61s-.04-.58-.11-.87c-.07-.29-.17-.45-.28-.48-.58.06-1.08.26-1.52.61-.43.35-.58.75-.43,1.21.09.69.23,1.08.43,1.17.12.03.43-.1.93-.39ZM198.11,80.45c.17-.29.26-.53.26-.74,0-.32-.19-.48-.56-.48-.29,0-.65.09-1.08.26,0,.29.09.64.26,1.06.17.42.36.59.56.5.2-.12.39-.32.56-.61ZM201.49,75.2c.17,0,.29-.02.35-.06.06-.04.07-.15.04-.33-.06-.35-.15-.58-.28-.69-.13-.12-.37-.17-.72-.17-.58,0-.97.04-1.17.13-.2.09-.3.23-.3.43,0,.23.06.48.17.74.09.38.23.56.43.56.17,0,.4-.1.69-.3.29-.26.55-.36.78-.3ZM201.36,76.93c-.06-.23-.16-.35-.3-.35-.12,0-.25.06-.39.17-.12.12-.25.29-.39.52-.15.26-.22.61-.22,1.04,0,.35.04.52.13.52.64-.64,1.03-1.27,1.17-1.91Z"/><path class="cls-1" d="M228.44,87.34c-.06-.23-.09-.46-.09-.69,0-.4.04-.88.13-1.43.06-.52.09-.95.09-1.3,0-.4.03-.75.09-1.04.09-.23.13-.48.13-.74,0-.29-.04-.62-.13-1l-.13-.17c-.61,1.01-1.2,1.85-1.78,2.52-.69.87-1.24,1.3-1.65,1.3-.26,0-.46-.06-.61-.17-.15-.12-.22-.26-.22-.43s.09-.32.26-.43c.93-.66,1.68-1.73,2.26-3.21.14-.49.43-1.07.87-1.73.46-.72.69-1.3.69-1.73-.03-.03-.07-.04-.13-.04-.17,0-.38.1-.61.3-1.59.81-2.85,1.23-3.77,1.26-.23,0-.41-.08-.54-.24-.13-.16-.2-.35-.2-.59,0-.2.2-.43.61-.69.4-.26.91-.48,1.52-.65,1.04-.26,1.93-.64,2.67-1.13.74-.49,1.11-.94,1.11-1.34,0-.26.06-.58.2-.95.13-.38.22-.69.28-.95,0-.2.09-.37.26-.5.17-.13.38-.2.61-.2.32,0,.53.1.65.3.09.09.13.22.13.39,0,.23-.04.48-.13.74-.09.26-.17.43-.26.52-.2.2-.17.3.09.3.17,0,.85-.49,2.04-1.47.26-.23.51-.35.74-.35.26,0,.39.13.39.39,0,.2-.13.46-.39.78-.35.43-.81.88-1.39,1.34l-1.39,1.21c-.2.17-.3.48-.3.91,0,.38.07.74.22,1.08.14.35.33.58.56.69.29.35.69.68,1.21,1,.29.17.67.45,1.13.82.2.2.49.38.87.52.49.2.74.41.74.61,0,.12-.07.23-.22.35-.17.17-.43.26-.78.26-.55,0-1.13-.2-1.73-.61-.17-.12-.48-.31-.91-.59-.43-.27-.69-.41-.78-.41-.09.03-.15.22-.17.56l-.26,3.25c-.06.81-.13,1.42-.22,1.82-.12.61-.17,1.01-.17,1.21,0,.23-.09.46-.26.69-.17.23-.35.32-.52.26-.43,0-.69-.2-.78-.61ZM223.67,99.38c-.15-.16-.22-.34-.22-.54.17-.58.61-1.4,1.3-2.47.69-1.07,1.43-2.08,2.21-3.04.2-.17.37-.3.5-.39.13-.09.28-.13.46-.13s.33.05.48.15c.14.1.22.21.22.33,0,.15-.07.26-.22.35-.2.17-.33.43-.39.78.12.2-.19.81-.91,1.82-.35.43-.62.85-.82,1.26-.23.38-.61.82-1.13,1.34-.52.52-.84.78-.95.78-.2,0-.38-.08-.52-.24ZM234.77,95.1c-.2-.03-.33-.36-.39-1-.03-.17-.07-.34-.11-.5-.04-.16-.09-.31-.15-.46-.09-.14-.13-.27-.13-.39,0-.17.09-.27.26-.3h.09c.23,0,.43.13.61.39.17.26.54.64,1.11,1.15.56.51,1,.86,1.32,1.06.58.38.95.59,1.13.65l.35.17c.09.09.22.13.39.13.2.06.35.09.43.11.09.02.25.02.48.02h.82c.38,0,.85-.12,1.43-.35.58-.23,1.08-.5,1.52-.8s.65-.54.65-.72c-.38-.29-.72-.48-1.02-.56-.3-.09-.88-.13-1.71-.13-.32,0-.77.06-1.34.17-.58.12-.97.17-1.17.17-.52,0-.91-.17-1.17-.52-.15-.14-.22-.33-.22-.56s.09-.43.26-.61c.17-.17.42-.27.74-.3.69-.2,1.43-.39,2.21-.56,1.19-.26,2.01-.52,2.47-.78l2.91-1.17c2.14-.87,3.92-1.58,5.33-2.12.26,0,.74-.14,1.43-.43.32-.14.65-.27,1-.39.35-.12.67-.17.95-.17.26,0,.45.03.56.09.17.12.26.3.26.56,0,.23-.06.46-.17.69-.2.52-.74.78-1.6.78-.2,0-.65.1-1.34.3-.72.26-1.16.39-1.3.39l-1.21.48c-.58.26-1.11.45-1.6.56-.41.12-1.23.45-2.47,1-1.27.67-1.91,1.04-1.91,1.13,0,.06.07.13.22.22.49.32.92.68,1.28,1.08.36.41.54.72.54.95,0,.17-.08.35-.24.52-.16.17-.36.35-.61.54-.25.19-.46.35-.63.5-.58.49-1.32.89-2.23,1.19-.91.3-1.83.46-2.75.46-.2,0-.54-.03-1-.09-.87-.03-2.28-.88-4.25-2.56ZM239.46,84.04c-.15-.17-.22-.38-.22-.61,0-.17.04-.36.13-.56.06-.17.12-.71.17-1.6l.09-1.6.17-1.08c.12-.52.17-.87.17-1.04,0-.4-.19-.68-.56-.82-.35-.17-.52-.38-.52-.61s.17-.43.52-.61l.48-.35-.04-1.21c-.06-.81,0-1.42.17-1.82.12-.29.26-.52.43-.69.46-.23.93-.45,1.39-.65.66-.26,1.27-.39,1.82-.39,1.07,0,1.89.51,2.47,1.52.23.35.36.67.39.95.06.35.1,1.26.13,2.73.03.64.03,1.13,0,1.47,0,.2-.05.56-.15,1.08-.1.52-.17.97-.2,1.34-.12,1.36-.33,2.43-.65,3.21-.09.17-.23.26-.43.26-.17,0-.45-.07-.82-.22l-.61-.26-.65.43c-1.07.9-2.1,1.39-3.08,1.47-.26-.06-.46-.17-.61-.35ZM242.73,81.29c.56-.36,1.03-.74,1.41-1.15.38-.26.59-.53.65-.82l.17-1.6c0-.23-.02-.38-.04-.43-.06-.06-.13-.09-.22-.09-.23,0-.65.25-1.26.74-.69.55-1.1.84-1.21.87-.41.23-.67.48-.78.74-.12.26-.17.68-.17,1.26,0,.67.03,1.03.09,1.08.35-.03.8-.22,1.37-.59ZM241.67,73.81c0,.26.07.39.22.39.12,0,.61-.23,1.47-.69.87-.46,1.32-.74,1.34-.82.06-.06-.07-.19-.39-.39-.17-.17-.39-.26-.65-.26-.41,0-.91.22-1.52.65-.32.32-.48.69-.48,1.13ZM244.31,75.59c.49-.32.74-.56.74-.74s-.07-.26-.22-.26c-.17,0-.3.03-.39.09l-1.43.78c-.26.15-.59.38-1,.69-.17.12-.26.25-.26.39,0,.23.07.35.22.35.03,0,.16-.03.39-.09.35-.17,1-.58,1.95-1.21Z"/><path class="cls-1" d="M269.09,97.36c-.06-.23-.09-.46-.09-.69,0-.2.03-.36.09-.48.09-.14.26-.25.52-.3.26-.06.55-.1.87-.13.69-.06,1.2-.13,1.52-.22.49-.09,1.2-.17,2.13-.26h.43c.61,0,1.03-.07,1.26-.22.12-.09.19-.2.22-.33.03-.13.04-.28.04-.46,0-.52.04-.94.13-1.26.17-.49.27-1.08.3-1.78l.09-1.13-.56.13c-.26.06-.54.12-.82.17-.58.15-1.06.22-1.43.22s-.61-.07-.69-.22c-.06-.03-.09-.07-.09-.13s.12-.19.37-.39c.25-.2.34-.33.28-.39-.03-.09.04-.17.22-.26.14-.09.36-.17.65-.26l2.17-.78c.06-.09.14-.73.24-1.93.1-1.2.15-2.13.15-2.8,0-.32-.01-.49-.04-.52-.06-.03-.54.17-1.43.61l-1.3.65-1.3-.04c-.72.03-1.24-.04-1.54-.2-.3-.16-.46-.46-.46-.89,0-.23.07-.67.22-1.3.17-.72.23-1.32.17-1.78-.12-.26-.09-.5.06-.72.16-.22.37-.37.63-.46.26-.09.49-.09.69,0,.23.23.35.67.35,1.3-.03.38-.06.75-.09,1.13-.12.81-.15,1.24-.09,1.3.81.06,2.15-.56,4.03-1.86l.39-.3.13-2.56c.14-1.94.3-3.27.48-3.99.06-.23.18-.44.37-.63s.38-.28.59-.28c.17,0,.33.07.48.22.17.15.29.29.35.43,0,.17-.09.56-.26,1.17-.06.26-.12.69-.17,1.3-.06.61-.09,1.19-.09,1.73,0,.52.03.81.09.87.12.15.43-.03.95-.52.52-.49.79-.87.82-1.13.12-.43.39-.65.82-.65s.82.19,1.17.56c.23.35.3.59.22.74-.2.26-.65.67-1.34,1.21-.09.06-.17.13-.26.22-.09.09-.42.36-1,.82-.29.23-.59.46-.91.69-.35.38-.61.83-.78,1.37-.17.54-.26,1.37-.26,2.49l-.04,1.17c0,.64-.02,1.01-.04,1.13v.22c0,.23.06.35.17.35.14,0,.49-.11,1.04-.33.55-.22.97-.43,1.26-.63.32-.2.61-.3.87-.3s.48.09.65.26c.14.15.22.3.22.48,0,.23-.11.46-.33.67s-.48.35-.8.41c-.38.12-.95.39-1.73.82s-1.33.77-1.65,1c-.06.41-.12,1.06-.17,1.95-.06.9-.09,1.62-.09,2.17v.74c.12.03.27.04.48.04.26,0,.52-.04.78-.13.46-.2,1.5-.39,3.12-.56,1.27-.12,2.34-.26,3.21-.43.52-.11,1.86-.26,4.03-.43,2.28-.17,3.58-.36,3.9-.56.35-.12.62-.17.82-.17.32,0,.58.07.78.2.2.13.3.33.3.59-.03.15-.06.29-.09.43-.15.46-.33.75-.56.87-.35.15-1.01.26-1.99.35-.17.09-1.16.17-2.95.26-1.79.09-2.98.17-3.56.26l-3.08.43c-.87.12-1.71.25-2.54.39-.82.15-1.66.35-2.49.61-.29.09-.59.43-.91,1.04-.09.12-.2.17-.35.17-.26,0-.54-.14-.82-.43-.12-.26-.33-.39-.65-.39-.12,0-.36.03-.74.09-.38.06-.67.07-.87.04-.9.12-1.94.27-3.12.48-.69.12-1.08.17-1.17.17-.15,0-.27-.03-.39-.09-.06-.06-.12-.2-.17-.43Z"/><path class="cls-1" d="M309.1,80.84c-.17,0-.55-.09-1.13-.26-.52-.2-.93-.3-1.21-.3-.26,0-.51-.12-.74-.35-.26-.26-.39-.48-.39-.65,0-.26.27-.48.82-.65.09-.09.25-.13.48-.13.58,0,1.34.17,2.3.5.95.33,1.42.6,1.39.8.09.17.13.35.13.52,0,.26-.09.46-.26.59-.17.13-.39.15-.65.06-.26-.09-.51-.13-.74-.13ZM306.15,88.38c0-.49.06-.8.17-.93.12-.13.42-.2.91-.2.38,0,.67-.04.89-.11.22-.07.67-.3,1.37-.67.95-.52,1.52-.78,1.69-.78.14,0,.3.07.48.22.17.15.26.29.26.43-.17.38-.41.67-.69.87-.29.2-.77.46-1.43.78l-1.82.95c-.46.29-.85.43-1.17.43-.15,0-.26-.04-.35-.13-.15-.12-.25-.4-.3-.87ZM307.1,98.66c-.2,0-.4-.11-.59-.33-.19-.22-.28-.43-.28-.63,0-.4.26-.78.78-1.13,2.72-2.23,4.77-4.8,6.16-7.72.4-.64.69-.78.87-.43.09.06.04.32-.15.78-.19.46-.4.97-.63,1.52-.55,1.19-.87,1.94-.95,2.26-.06.32-.43.9-1.13,1.73-.69.84-1.45,1.66-2.25,2.45-.81.8-1.36,1.28-1.65,1.45-.03.03-.09.04-.17.04ZM327.4,84.44c0-.2.03-.45.09-.74.06-.29.09-.59.09-.91.06-.38.06-.61,0-.69-.03-.12-.1-.16-.22-.13-.17.06-.38.18-.63.37-.25.19-.41.27-.5.24-.15.06-.35.19-.61.39-.26.17-.52.32-.78.43-2.02.98-3.27,1.46-3.73,1.43-.15-.06-.28-.26-.41-.61-.13-.35-.15-.58-.06-.69-.03-.14.58-.46,1.82-.95,1.39-.61,2.24-1.04,2.56-1.3.49-.35,1.06-.66,1.69-.95.43-.2.72-.39.87-.56.14-.17.22-.46.22-.87l-.09-1.34-.13-2.04-.13-.61c-.09-.12-.2-.14-.35-.09-.09.03-.3.14-.65.33-.35.19-.61.28-.78.28-.46.09-.76.17-.89.24-.13.07-.33.18-.59.33-.23.06-.39.09-.48.09-.38,0-.67-.14-.89-.43-.22-.29-.3-.58-.24-.87.23-.2,1.27-.61,3.12-1.21,1.65-.52,2.73-.92,3.25-1.21.12-.06.27-.09.48-.09s.35.03.43.09c.43.12.65.32.65.61,0,.2-.19.52-.56.95-.2.23-.33.41-.39.52-.06.12-.09.26-.09.43s-.03.35-.09.52c-.06.12-.09.27-.09.48,0,.26.07.82.22,1.69.14.67.26,1,.35,1,.43-.14.92-.45,1.47-.91l1.39-.95c.46-.32.72-.52.78-.61.09-.09.13-.26.13-.52s.13-.48.39-.65c.26-.17.55-.26.87-.26.35,0,.61.1.78.3.26.26.35.49.26.69-.03.17-.33.57-.91,1.19-.58.62-1.01,1.02-1.3,1.19-.15.09-.58.42-1.3,1-.61.49-1.16.87-1.65,1.13-.67.38-1.06.65-1.19.82-.13.17-.25.52-.37,1.04-.12.35-.24.73-.37,1.15-.13.42-.28.78-.46,1.08-.17.3-.41.53-.69.67-.2-.12-.3-.27-.3-.48ZM326.66,98.57c-.46,0-.69-.38-.69-1.13,0-.35.02-.69.06-1.02.04-.33.06-.59.06-.76l.13-1.26c.06-.72.13-1.2.22-1.43.17-.64.25-1.43.22-2.39l-.09-1.56.35-.35c.23-.23.4-.35.52-.35.17,0,.32.23.43.69.17.58.33.87.48.87s.36-.17.65-.52c.38-.46.83-.82,1.37-1.08.53-.26,1.08-.39,1.63-.39.81,0,1.47.25,2,.74.49.49.74,1.06.74,1.69,0,.41-.12.87-.35,1.39-.15.29-.22.49-.22.61-.09.2-.27.49-.56.87-.35.55-.51.9-.48,1.04l-.04.04c0,.09.29.13.87.13l2.26-.17c.49-.09.91-.13,1.26-.13.72,0,1.13.19,1.21.56.06.12.09.27.09.48,0,.29-.11.53-.33.72-.22.19-.5.28-.85.28-.15-.03-.29-.04-.43-.04-.09-.03-.32-.04-.69-.04-.64,0-1.19.03-1.65.09-1.01.12-1.75.24-2.21.37-.46.13-1.19.46-2.17.98-.55.29-.98.43-1.3.43-.2,0-.45-.07-.74-.22-.17-.14-.29-.22-.35-.22s-.12.06-.17.17c-.26.43-.44.69-.54.78-.1.09-.28.13-.54.13h-.13ZM332.3,92.37c.4-.84.64-1.47.69-1.91,0-.43-.19-.74-.56-.91-.2-.12-.41-.17-.61-.17-.17,0-.35.04-.52.13-.38.17-.9.61-1.56,1.3l-1,1.04c-.12.12-.17.33-.17.65s-.06.64-.17.95c-.12.46-.17.98-.17,1.56,0,.46-.02.93-.04,1.39,1.82-.75,3.19-2.1,4.12-4.03Z"/></g></svg>