<?xml version="1.0" encoding="UTF-8"?><svg id="_圖層_2" xmlns="http://www.w3.org/2000/svg" viewBox="0 0 30 30"><defs><style>.cls-1{fill:none;}.cls-2{fill:#fff;}</style></defs><g id="_按鈕_圖片"><path class="cls-2" d="M27.8,20.39c-.17-.24-.36-.47-.59-.69-.52-.5-.99-.96-1.48-1.41-1.68-1.55-4.27-1.58-5.89-.07-.27.25-.51.5-.74.75-.12.12-.23.25-.35.37-.43.43-.75.94-1,1.55-3.89-1.71-6.81-4.52-8.66-8.36.75-.23,1.36-.59,1.85-1.09.36-.37.69-.7,1.01-1.04,1.65-1.76,1.59-4.46-.13-6.16-.29-.28-.58-.56-.87-.83-.19-.18-.37-.35-.55-.53-.2-.19-.41-.35-.64-.5-1.75-1.17-4.07-.97-5.6.59l-.06.07c-.32.32-.65.66-.96,1.02-.08.1-.17.2-.26.29-.35.39-.75.83-1,1.44-.41,1.02-.53,2.12-.35,3.26.02.13.05.25.07.38.75,4.32,2.62,8.15,5.56,11.4,3.71,4.09,8.36,6.59,13.82,7.43.09.01.19.02.28.04.38.05.78.09,1.21.09.8,0,1.68-.13,2.56-.54.92-.43,1.57-1.14,2.13-1.76.09-.1.18-.19.26-.29.75-.81,1.12-1.79,1.11-2.91.02-.93-.23-1.76-.74-2.49ZM26.75,22.89c.01.66-.2,1.21-.63,1.67-.09.1-.19.2-.28.3-.5.55-.96,1.06-1.56,1.34-.11.05-.23.08-.35.13-.74.26-1.56.31-2.67.14-5.04-.78-9.34-3.08-12.77-6.86-2.8-3.08-4.54-6.73-5.19-10.85-.12-.76-.05-1.49.2-2.17.02-.04.03-.09.04-.14.13-.31.37-.58.66-.9.1-.11.2-.22.3-.34.27-.32.56-.62.87-.93l.06-.06c.53-.54,1.21-.82,1.88-.82.02,0,.04,0,.07,0,.63.02,1.25.26,1.76.75.19.18.38.36.56.54.28.27.57.54.85.81,1.04,1.02,1.07,2.59.07,3.65-.31.33-.63.65-.98,1.01-.29.3-.67.51-1.16.65-.22.06-.91.26-1.19.9-.29.64.02,1.27.12,1.48,2.07,4.34,5.36,7.5,9.77,9.39.59.25,1.04.17,1.31.05.27-.12.63-.38.85-.96.17-.45.38-.81.67-1.1.13-.13.25-.26.37-.39.23-.24.44-.46.66-.67.94-.88,2.46-.84,3.46.08.48.44.94.89,1.45,1.38.52.51.78,1.1.78,1.8,0,.03,0,.05,0,.08v.03Z"/><rect class="cls-1" width="30" height="30"/></g></svg>