<?xml version="1.0" encoding="UTF-8"?><svg id="_圖層_2" xmlns="http://www.w3.org/2000/svg" viewBox="0 0 30 30"><defs><style>.cls-1{fill:none;}.cls-2{fill:#fff;}</style></defs><g id="_按鈕_圖片"><path class="cls-2" d="M25.33,11.46c-.34-3.31-2.24-6.17-4.95-7.82-.57-.35-1.18-.64-1.81-.87-1.11-.41-2.32-.63-3.57-.63s-2.45.22-3.57.63c-.64.23-1.24.53-1.81.87-2.71,1.65-4.61,4.51-4.95,7.82-.04.35-.05.7-.05,1.06,0,.13,0,.25,0,.38,0,.25.03.51.05.76.01.13.03.25.05.37.02.12.03.23.05.35,1.06,6.14,7.01,11.21,9.09,12.82.04.03.08.06.11.09.15.11.27.2.37.27.12.09.2.14.23.16.03.02.07.04.1.06.1.05.21.08.33.08s.22-.03.33-.08c.03-.02.07-.04.1-.06.17-.12,1.97-1.39,4-3.44.22-.23.45-.46.68-.71.46-.49.92-1.02,1.37-1.58.22-.28.45-.57.66-.86.79-1.08,1.52-2.26,2.08-3.52.1-.23.2-.46.29-.69.55-1.4.88-2.88.88-4.41,0-.36-.02-.71-.05-1.06ZM23.73,14.32c-.02.11-.04.22-.07.33-.38,1.65-1.15,3.23-2.09,4.67-.22.34-.46.67-.7,1-.48.65-.98,1.26-1.49,1.83-.25.28-.51.56-.76.82-.99,1.03-1.95,1.88-2.68,2.49-.1.09-.2.17-.3.25-.25.21-.47.38-.64.51-1.83-1.4-8.9-7.22-8.9-13.68,0-.31.02-.61.05-.91.3-2.99,2.09-5.55,4.62-6.92.25-.14.51-.26.78-.38.27-.11.54-.21.82-.3.14-.04.28-.08.42-.12.28-.07.57-.13.87-.18.44-.07.89-.1,1.35-.1s.91.04,1.35.1c.29.05.58.1.87.18.14.04.28.08.42.12.28.09.55.19.82.3.27.11.53.24.78.38,2.52,1.37,4.31,3.93,4.62,6.92.03.3.05.6.05.91,0,.61-.06,1.21-.18,1.8Z"/><path class="cls-2" d="M15,8.25c-2.09,0-3.79,1.7-3.79,3.79s1.7,3.79,3.79,3.79,3.79-1.7,3.79-3.79-1.7-3.79-3.79-3.79ZM15,14.35c-1.27,0-2.31-1.04-2.31-2.31s1.04-2.31,2.31-2.31,2.31,1.04,2.31,2.31-1.04,2.31-2.31,2.31Z"/><rect class="cls-1" width="30" height="30"/></g></svg>