<?xml version="1.0" encoding="UTF-8"?><svg id="_圖層_2" xmlns="http://www.w3.org/2000/svg" viewBox="0 0 40 40"><defs><style>.cls-1{fill:none;}.cls-2{fill:#fff;}</style></defs><g id="_按鈕_圖片"><rect class="cls-1" width="40" height="40"/><path class="cls-2" d="M32.15,21.33c-.42-.68-.21-1.58.47-2l2.84-1.76-8.21-3.25-7.23-2.86-.1,1.17-.25,2.9-.3,3.43-.25,2.9-.3,3.43-.24,2.7,2.84-1.75c.24-.15.5-.22.76-.22s.52.08.75.21c.19.12.36.27.49.48l3.31,5.36,4.4,7.13,8.74-5.4-7.71-12.49Z"/><path class="cls-2" d="M17.64,32c-.47.29-1.06.29-1.52,0-.47-.29-.73-.82-.69-1.36l.21-2.43H5.82c-.8,0-1.45-.65-1.45-1.45s.65-1.45,1.45-1.45h10.08l.3-3.43H5.82c-.8,0-1.45-.65-1.45-1.45s.65-1.45,1.45-1.45h10.63l.3-3.43H5.82c-.8,0-1.45-.65-1.45-1.45s.65-1.45,1.45-1.45h11.19l.29-3.36s.02-.05.02-.07H5.82c-.8,0-1.45-.65-1.45-1.45s.65-1.45,1.45-1.45h15.76c.8,0,1.45.65,1.45,1.45,0,.66-.44,1.19-1.04,1.37l5.27,2.08v-6.97c0-1.9-1.54-3.44-3.44-3.44H3.57C1.68.79.14,2.33.14,4.23v26.05c0,1.9,1.54,3.44,3.44,3.44h20.24c.16,0,.31-.03.47-.05l-2.58-4.18-4.07,2.51Z"/></g></svg>