<?xml version="1.0" encoding="UTF-8"?><svg id="_圖層_2" xmlns="http://www.w3.org/2000/svg" viewBox="0 0 30 30"><defs><style>.cls-1{fill:none;}.cls-2{fill:#fff;}</style></defs><g id="_按鈕_圖片"><path class="cls-2" d="M27.71,9.6c-.59-.59-1.39-.92-2.22-.92-.9,0-1.72.38-2.29,1-.02-.03-.05-.05-.07-.07-.58-.59-1.39-.92-2.22-.92-.9,0-1.72.38-2.29,1-.02-.03-.05-.05-.07-.07-.59-.59-1.39-.92-2.22-.92-.52,0-1.01.13-1.44.35v-4.02c0-.82-.34-1.63-.92-2.22-.59-.59-1.39-.92-2.22-.92-1.73,0-3.14,1.41-3.14,3.14v9.88l-2.02-1.8c-.58-.51-1.32-.79-2.08-.79-.9,0-1.75.38-2.35,1.06-.56.63-.83,1.43-.78,2.27.05.84.42,1.61,1.05,2.16l1.91,1.7s3.48,3.52,4.61,6.21c.25.91,1.09,2.38,2.81,2.44h14.06c.06,0,.12,0,.19,0,.92,0,2.44-.4,2.63-1.99,0-.04,0-.07,0-.11v-14.23c0-.82-.34-1.63-.92-2.22ZM26.94,25.97c-.11.5-.98.47-1.07.46h-14.08c-.89-.03-1.2-1.18-1.22-1.22,0-.04-.02-.08-.04-.12-1.25-3.05-4.96-6.78-5-6.81-.02-.02-.03-.03-.05-.05l-1.94-1.72c-.29-.25-.46-.61-.48-.99-.02-.39.1-.76.36-1.04.51-.57,1.46-.63,2.04-.12l3.43,3.05c.25.22.61.28.91.14.3-.14.5-.44.5-.77V5c0-.8.65-1.44,1.44-1.44.38,0,.75.15,1.02.42s.42.64.42,1.02v6.8h0v4.36c0,.47.38.85.85.85s.85-.38.85-.85v-4.35c0-.8.65-1.44,1.44-1.44.38,0,.75.15,1.02.42.27.27.42.64.42,1.01v4.35c0,.47.38.85.85.85s.85-.38.85-.85v-4.34s0,0,0,0c0-.8.65-1.44,1.44-1.44.38,0,.75.15,1.02.42.27.27.42.64.42,1.02v4.35c0,.47.38.85.85.85s.85-.38.85-.85v-4.35c0-.8.65-1.44,1.44-1.44.38,0,.75.15,1.02.42.27.27.42.64.42,1.02v14.16Z"/><rect class="cls-1" width="30" height="30"/></g></svg>